<?xml version="1.0" standalone="no"?>
<!DOCTYPE svg PUBLIC "-//W3C//DTD SVG 1.1//EN" "http://www.w3.org/Graphics/SVG/1.1/DTD/svg11.dtd" >
<svg xmlns="http://www.w3.org/2000/svg">
<metadata></metadata>
<defs>
<font id="waffle_lightregular" horiz-adv-x="0" >
<font-face units-per-em="2048" ascent="1638" descent="-410" />
<missing-glyph horiz-adv-x="436" />
<glyph unicode="&#x3b;&#x3b;For&#x20;Education&#x20;Used&#x20;Only&#x3b;&#x3b;" horiz-adv-x="917" d="M817 685q3 -13 10.5 -45t11 -47t9 -49t4.5 -51.5t-2 -53.5q-9 -84 -43 -167q-3 -6 -10.5 -22.5t-11.5 -25.5q-43 -99 -97 -144q-57 -51 -110 -62q-31 -7 -130 -7q-75 -2 -145 36q-88 46 -153 141q-89 133 -93 265q-1 76 24 172q8 27 21 52l10 24q2 3 3.5 8.5t6.5 13.5 q19 32 42 59q5 6 20 26t25 29q9 8 28 21t25 18q9 7 25 21t25 21q53 43 127 56q79 15 157 -29q10 -6 28.5 -20.5t27.5 -19.5q6 -4 24.5 -12t27.5 -15q14 -11 47 -53q28 -37 42.5 -66t23.5 -74zM807 460q2 63 -17 151q-2 9 -8 37l-9 42q-13 51 -54 104q-36 47 -37 48 q-8 6 -27.5 16t-27.5 15q-9 5 -25 19t-24 19q-4 2 -10 4.5t-14 5t-13 4.5q-39 11 -42 11q-4 0 -14 2.5t-19.5 2t-21.5 -4.5h-1h-4q-23 -4 -43.5 -13.5t-30 -15.5t-32 -23.5t-28.5 -22.5q-65 -48 -67 -50q-66 -61 -105.5 -156.5t-35.5 -208.5q1 -52 24 -112q14 -38 36 -77 q67 -126 172 -177q44 -23 114.5 -29.5t133.5 6.5q46 10 94 62q13 14 26 34t20.5 35t20 42.5t19.5 40.5q47 92 50 189zM289 566q-21 -59 -10.5 -131t49.5 -103q24 -20 62 -31q58 -17 113.5 -10.5t93.5 30.5q8 5 18 12.5t24 21.5t16.5 24.5t-3.5 21.5q-12 12 -48 -19 q-58 -47 -90 -52q-39 -6 -84.5 3t-70.5 26q-32 21 -43.5 84.5t7.5 101.5q3 6 12.5 17t11.5 14q20 27 26 31q44 32 108 28.5t102 -36.5q1 -1 13.5 -18.5t20.5 -18.5q5 0 8 2t5 6t2.5 7t1.5 8.5t1 7.5q-18 40 -71.5 64.5t-114.5 20.5q-16 -1 -31 -5t-25.5 -7.5t-23 -12.5 t-18.5 -13.5t-17.5 -17.5t-15 -17.5t-15 -19.5t-14.5 -19z" />
<glyph unicode="&#x3b;&#x3b;Registered&#x3b;&#x3b;" horiz-adv-x="967" d="M445 989q46 3 129 -11q1 -2 2 -2q22 -7 58.5 -32.5t41.5 -28.5q40 -23 48 -30q7 -6 23 -16t23 -17q6 -6 35 -48q45 -66 66.5 -163.5t10.5 -204.5q-7 -75 -60 -190q-3 -7 -11 -28t-13 -30q-4 -6 -14 -19t-15 -21q-44 -65 -86 -91q-45 -28 -146 -43q-18 -1 -27 -1t-32 2.5 t-31 3.5q-9 1 -53 12q-85 24 -148 71q-27 20 -72 79q-34 42 -59 91q-53 105 -45 251q1 13 7 34.5t7 29.5q1 5 0.5 19t1.5 19q2 7 8.5 22t8.5 22q2 9 4.5 26.5t5.5 25.5q5 13 33 65q24 48 88 105q6 6 16 16.5t18 18t16 12.5q26 16 79 36q5 2 14 3t12 2q35 9 56 10zM185 783 q-30 -49 -39 -81q-2 -7 -4 -23t-5 -25q-1 -6 -6.5 -18t-6.5 -18q-12 -52 -14 -86q-16 -175 84 -310q26 -35 60 -69q5 -4 13 -13.5t11 -11.5q8 -5 56 -28q2 -1 11 -5t12 -5.5t11 -5t11.5 -5t11.5 -4.5t12.5 -4t12 -3.5t14 -3.5t14 -2t15.5 -2t25.5 -3.5t26.5 -3t26 0.5 q6 1 18.5 5t18.5 5q5 1 17.5 1t18.5 2q25 7 53 25.5t44 35.5q31 34 74 130q2 3 3 5.5t2 5.5q57 127 53 268q-2 95 -35.5 178t-87.5 127q-25 19 -43 30q-20 13 -23 14q-8 4 -37.5 24.5t-48.5 25.5q-6 2 -19.5 2h-16.5q-5 1 -38 7t-53 5q-27 -1 -51 -10t-51 -23t-43 -20 q-8 -9 -49.5 -48.5t-57.5 -65.5zM552 484q12 -21 46.5 -51t46.5 -50q-4 -11 -9 -16.5t-10.5 -6t-11 1t-12.5 7.5t-11.5 11t-12 13t-10.5 11q-43 40 -64 70q-82 -4 -124 -14q-2 -18 -4 -56t-3 -56q-21 -11 -27 -10q-9 7 -13 19t-3 23t3.5 30t2.5 28q2 85 6 139q0 4 1.5 24 t3 31t4.5 16q9 13 108 20q54 4 103.5 -13t67.5 -47q24 -40 -5 -76t-73 -48zM585 550q0 1 4 11.5t3 15.5q-4 19 -39 33.5t-73 16.5q-19 1 -51.5 -3t-41.5 -4q-2 -63 -7 -106q153 -7 205 36z" />
<glyph unicode="&#x3b;&#x3b;Trademark&#x3b;&#x3b;" horiz-adv-x="600" d="M305 979q4 -3 16.5 -13t18.5 -14q31 -25 38 -28q6 6 20 17.5t21 18.5q1 1 8 9t12.5 12.5t13.5 9.5t16 3.5t16 -8.5q7 -7 12 -53q0 -5 8 -69q1 -8 4.5 -23t5.5 -26.5t1 -17.5q-4 -17 -22 -19.5t-25 12.5q-2 5 -5 34q-7 45 -12 107q-12 -5 -33 -31t-41 -27q-13 4 -30.5 18 t-24.5 18q-2 -13 0.5 -53t2.5 -49q1 -24 -16 -33.5t-28 11.5q-3 22 -3 84t-4 90q0 11 5 17q16 10 25 3zM177 946q-2 -22 1.5 -77t-0.5 -76q-13 -9 -29 -8q-8 6 -10.5 14.5t-2 24.5t0.5 19q0 10 -2.5 32t-3 33.5t2.5 34.5q-8 1 -35 -6.5t-38 -3.5t-14.5 15t4.5 17 q19 15 105 23q29 6 65 2t36 -25q0 -11 -5 -16.5t-14.5 -6.5t-19 0t-22 2.5t-19.5 1.5z" />
<glyph unicode="&#x3b;&#x3b;Multiply&#x3b;&#x3b;" horiz-adv-x="555" d="M93 668q36 -33 96.5 -100.5t84.5 -91.5q7 7 59.5 59t77.5 80q2 2 11 13.5t15.5 18.5t17.5 12.5t21 2.5q1 0 4 -3.5t6 -6.5l3 -4q1 -6 -5 -15t-12 -15.5t-16 -15.5l-10 -9q-12 -12 -64 -65.5t-79 -82.5q32 -42 130 -138q42 -37 43 -45t-7 -17t-13 -10q-16 -3 -53 38 q-74 67 -133 137q-89 -81 -143 -136q-40 -40 -50 -41q-7 0 -14 6.5t-8 12.5q0 6 8 15t21 20.5t14 12.5q27 29 77.5 77t65.5 63q-18 19 -58 67t-63 70l-11.5 11.5l-13 13t-11 12.5t-11 14.5t-7 14.5t-4.5 17q9 11 31 8z" />
<glyph unicode="&#x3b;&#x3b;Divide&#x3b;&#x3b;" horiz-adv-x="645" d="M363 559q-35 -16 -95 21q-16 26 -9.5 55.5t25.5 42.5q29 16 58 9.5t46.5 -32t8.5 -53.5q-2 -5 -17 -22q-1 -1 -6.5 -10t-10.5 -11zM296 624q0 -4 3 -20q28 -17 53 -12q8 16 7 22q-2 15 -16.5 25.5t-29.5 7.5t-17 -23zM592 511q3 -11 -7.5 -18t-30 -10t-38 -4t-40 -1 h-27.5q-33 -1 -92.5 1.5t-81.5 2.5q-6 0 -66 2t-67 -1q-1 0 -34.5 -5t-37.5 0q-12 6 -10 24q17 10 41.5 15t42 5t52 -1t48.5 -1q110 -1 310 3q34 0 38 -12zM390 434q10 -8 12 -28t-2 -28q-6 -27 -31.5 -46t-54.5 -17q-25 2 -41 18.5t-15 44.5q0 51 65 59q10 2 36 1.5 t31 -4.5zM301 394q-15 -30 11 -38q24 -7 40 11q14 14 5 35q-29 3 -56 -8z" />
<glyph unicode="&#x2018;&#x2018;" horiz-adv-x="369" d="M124 1045q0 -76 -2 -115q-3 -78 -10 -94q-10 -18 -27 -9q-9 22 -4 107q1 22 0 43.5t2 44t12 32.5q9 5 18 2t11 -11zM274 1045q0 -76 -2 -115q-3 -78 -10 -94q-9 -20 -28 -9q-6 16 -3 107q1 22 0 43.5t2 44t12 32.5q9 5 18 2t11 -11z" />
<glyph unicode="&#x2019;&#x2019;" horiz-adv-x="420" d="M161 1045q0 -76 -2 -115q-3 -78 -10 -94q-8 -20 -27 -9q-9 22 -4 107q1 22 0 43.5t2 44t12 32.5q9 5 18 2t11 -11zM311 1045q0 -76 -2 -115q-3 -78 -10 -94q-9 -20 -28 -9q-6 16 -3 107q1 22 0 43.5t2 44t12 32.5q9 5 18 2t11 -11z" />
<glyph unicode="&#xe24;&#xe32;" horiz-adv-x="1189" d="M619 505q1 -14 5.5 -79.5t4.5 -100.5q0 -31 -3 -62q-15 -153 -15 -332q0 -5 0.5 -15t0.5 -14q0 -14 -2 -41t-2 -33v-16q0 -36 -23 -41q-22 0 -22 25q0 4 1 12t1 11v3q0 12 2 37.5t2 36.5q0 10 -0.5 26.5t-0.5 24.5q0 147 8 274q1 12 4.5 45t3.5 54q0 14 -8 182 q-3 72 -7.5 113t-17.5 89t-39 77t-67 46q-57 23 -111 23q-94 0 -156 -43.5t-62 -109.5q0 -12 4.5 -25t12.5 -29.5t11 -25.5q16 -45 16 -107q0 -40 -10.5 -126.5t-10.5 -132.5q0 -33 2.5 -64t10 -67t23.5 -58t39 -22q13 0 37 6t31 6q11 0 12 -9q0 -20 -22.5 -30.5 t-52.5 -10.5q-123 0 -123 252q0 30 3 62l11 97q7 86 7 107q0 47 -13 83q-2 7 -12 28.5t-14.5 38t-4.5 32.5q0 5 2 17q17 86 94.5 129.5t175.5 43.5q42 0 112 -24q53 -18 85 -48t47.5 -86.5t20 -92t8.5 -123.5q1 -9 1 -13zM1092 -200q2 44 0.5 108.5t1.5 117.5q3 51 3 163 t1 157q0 17 3.5 57t2.5 61v20q0 78 -1.5 121t-11.5 101.5t-31 91.5q-18 27 -38 41q-56 38 -145.5 37.5t-148.5 -35.5q-67 -37 -43 -77q17 1 38.5 22t30.5 26q34 17 79 22q56 8 109.5 -8t75.5 -50q16 -25 25 -63t11 -63t2.5 -84t1.5 -76q1 -28 -1 -78.5t-2 -69.5v-192 q-2 -175 -4 -243v-23.5t0.5 -11t0.5 -6.5t1 -10t2 -22q0 -37 10 -45q1 3 5.5 -0.5t6.5 -0.5q6 8 15 12z" />
<glyph unicode="&#xe26;&#xe32;" horiz-adv-x="1203" d="M613 108q0 -14 -4 -42t-4 -42t1.5 -42t1.5 -41t-0.5 -44t-0.5 -44q0 -9 1 -27t1 -29q0 -33 -18 -33q-9 0 -15 6t-9 15t-4 20.5t-1 20.5t0.5 18t0.5 10q0 11 0.5 32t0.5 28q0 17 -1.5 53t-1.5 55q0 32 4.5 105.5t4.5 112.5q0 33 -4 96.5t-4 94.5q0 21 1.5 63t1.5 63 q0 144 -63 212.5t-200 68.5q-71 0 -143 -24q-23 -11 -44.5 -44t-21.5 -59q0 -32 40 -71.5t46 -61.5q6 -24 6 -66q0 -37 -2.5 -92t-2.5 -77q0 -35 1.5 -103t1.5 -103q0 -62 -17 -98.5t-64 -36.5q-30 0 -54.5 15.5t-24.5 34.5q0 17 14 17q7 0 29.5 -14t36.5 -14q34 0 34 77 q0 23 -1 66t-1 63q0 47 2 133t2 129q0 36 -5 56q-2 9 -8 16.5t-15.5 15.5t-13.5 13q-47 55 -47 110q0 32 25.5 70.5t68.5 58.5q66 30 161 30q166 0 235.5 -82t69.5 -242q0 -20 -1 -60.5t-1 -61.5q0 -42 3 -126t3 -125q0 -50 -1 -74zM1092 -220q2 44 0.5 108.5t1.5 117.5 q3 51 3 163t1 157q0 17 3.5 57t2.5 61v20q0 78 -1.5 121t-11.5 101.5t-31 91.5q-18 27 -38 41q-56 38 -145.5 37.5t-148.5 -35.5q-67 -37 -43 -77q17 1 38.5 22t30.5 26q34 17 79 22q56 8 109.5 -8t75.5 -50q16 -25 25 -63t11 -63t2.5 -84t1.5 -76q1 -28 -1 -78.5t-2 -69.5 v-192q-2 -175 -4 -243v-23.5t0.5 -11t0.5 -6.5t1 -10t2 -22q0 -37 10 -45q1 3 5.5 -0.5t6.5 -0.5q6 8 15 12z" />
<glyph unicode="&#xd;" horiz-adv-x="579" />
<glyph unicode=" "  horiz-adv-x="436" />
<glyph unicode="&#x09;" horiz-adv-x="436" />
<glyph unicode="&#xa0;" horiz-adv-x="436" />
<glyph unicode="!" horiz-adv-x="326" d="M159 1013q7 1 15 0q4 -1 8 -5q6 -6 6.5 -14.5t-2.5 -21.5t-3 -18q-2 -35 -1.5 -100t-0.5 -101q-1 -33 -1 -201q0 -47 -2 -114t-2 -120t4 -110q-1 -19 -33 -16q-8 7 -10 45q-4 84 -4 185.5v184.5q-1 64 3 182t4 143q1 15 9 65q4 15 10 16zM163 124h3q2 1 3 1q24 -1 52 -17 q21 -16 17 -46q-3 -33 -33.5 -52.5t-67.5 -13.5q-18 3 -28 14q-7 8 -11.5 27t-3.5 33q2 17 20 35q21 19 49 19zM137 75q-2 -28 8 -38q14 -5 35 0q20 22 12 45q-13 6 -30.5 4.5t-24.5 -11.5z" />
<glyph unicode="&#x22;" horiz-adv-x="442" d="M166 1045q0 -76 -2 -115q-3 -78 -10 -94q-8 -20 -27 -9q-9 22 -4 107q1 22 0 43.5t2 44t12 32.5q9 5 18 2t11 -11zM316 1045q0 -76 -2 -115q-3 -78 -10 -94q-9 -20 -28 -9q-6 16 -3 107q1 22 0 43.5t2 44t12 32.5q9 5 18 2t11 -11z" />
<glyph unicode="#" horiz-adv-x="1030" d="M404 682q66 -2 179.5 -6t168.5 -6q16 38 28.5 85t25.5 107.5t21 91.5q8 5 20 4.5t17 -6.5q4 -5 4 -15t-2 -18t-6 -21t-5 -17q-41 -176 -55 -213q34 -7 99.5 -6.5t100.5 -2.5q10 -1 6 -29q-15 -12 -68 -14q-51 0 -150 9q-16 -58 -42.5 -168t-36.5 -147q4 0 101 -6 q5 0 37 0.5t36 -4.5q10 -7 10 -18t-10 -18q-39 -4 -61.5 -3.5t-62.5 3.5t-62 3q-9 -22 -24 -67t-23 -65q-3 -7 -8 -20.5t-9 -24.5t-7 -21q-14 -45 -32 -56q-12 -9 -19 8q-4 4 -1 20t3.5 22t6.5 23.5t8.5 23.5t9 22t7.5 20q29 74 38 115q-65 6 -197 6.5t-171 2.5 q-16 -33 -37.5 -106.5t-34.5 -103.5q-2 -4 -7 -15.5t-8 -17.5t-9 -13t-13 -11q-11 0 -19 9q-2 17 -1 23t9 21t10 21q6 16 25.5 87t36.5 104q-14 3 -37.5 4t-44.5 1t-40.5 1t-30.5 6.5t-9 15.5q3 22 38 24q18 0 64 -4.5t70 -2.5q59 168 100 316q-73 7 -85 7q-11 1 -30 1 t-32 0.5t-26.5 2.5t-20 7.5t-6.5 14.5q0 8 5.5 15t17.5 6q68 -7 190 -9q11 36 37.5 139t45.5 154q9 3 16 3t11 -2.5t6 -6t2.5 -9.5t0 -11.5t-2.5 -13.5t-3.5 -13.5t-4 -13.5t-3.5 -12q-7 -31 -27.5 -104.5t-27.5 -107.5zM389 635q-15 -55 -48.5 -158t-47.5 -156 q70 -4 191.5 -4.5t177.5 -2.5q17 41 39 158q6 30 20.5 84.5t18.5 70.5q-38 1 -119.5 5t-118.5 4.5t-113 -1.5z" />
<glyph unicode="$" horiz-adv-x="672" d="M491 496q101 -83 101 -206q0 -88 -34 -167q-14 -33 -37.5 -54t-56.5 -30t-61 -12t-68 -3q0 -62 3 -122q-2 -16 -22 -16q-9 0 -14.5 9.5t-7 24t-2 33t0 37t-0.5 34.5q-45 4 -68 15q-27 12 -81 62.5t-54 84.5q0 8 6 15.5t13 7.5q5 0 11 -6.5t13.5 -18.5t9.5 -15 q3 -4 12.5 -16.5t13 -17t12 -15t13.5 -14.5t15 -11.5t18 -11t20.5 -8.5t25 -7t29 -3.5t34.5 -1.5q92 0 137.5 24t59.5 89q17 61 17 105t-14 82t-34.5 62.5t-54.5 49.5t-61.5 39.5t-69.5 36t-65 35.5q-10 6 -31 16t-37 19t-26 18q-26 23 -43.5 65.5t-17.5 86.5q0 30 9.5 68 t21.5 60q17 32 63.5 56.5t101.5 28.5q0 5 0.5 22.5t1 33t3 33t9 27.5t16.5 10q20 0 20 -22q0 -7 -3 -20t-3 -17q-1 -23 -1 -69q43 -5 92 -24.5t79 -42.5q25 -19 47.5 -50.5t22.5 -54.5q0 -25 -21 -25q-11 0 -22 17.5t-24 42t-25 34.5q-31 24 -81.5 42t-93.5 18q-3 0 -9 -0.5 t-9 -0.5q-28 -2 -69 -17t-55 -39q-27 -46 -27 -110q2 -89 46 -124q15 -12 77 -43q111 -58 155 -84q8 -5 24 -13.5t28.5 -16t21.5 -15.5z" />
<glyph unicode="%" horiz-adv-x="756" d="M657 1003q-9 -24 -32.5 -63t-29.5 -52q-49 -101 -129 -225q-33 -53 -34 -56q-16 -29 -56.5 -92t-58.5 -97q-12 -21 -41 -64.5t-42 -67.5q-13 -25 -54 -96t-61 -112q-2 -4 -7.5 -16.5t-9 -19t-11.5 -13.5t-19 -8q-15 6 -15 19q16 56 69 141q15 25 53 94.5t62 105.5 q67 103 100 161q21 38 64 108t61 102q6 10 19 28.5t19 28.5q10 16 27 54t26 56q4 7 15.5 23.5t17.5 26.5l9.5 19t11.5 21t12 10q13 4 23.5 0t10.5 -16zM231 1010q24 0 54 -16.5t45 -33.5q22 -24 34 -67t8 -91q-7 -66 -53.5 -117.5t-115.5 -49.5q-22 1 -54 9t-46 17 q-40 26 -57 100q-1 5 -3.5 13t-2.5 12q-4 30 6 74q16 53 66 98q26 24 57 37q39 15 62 15zM232 972q-32 1 -69.5 -25t-59.5 -57q-31 -45 -19 -117t57 -88q1 0 34 -7q52 -11 89.5 14t51.5 68t8.5 93t-30.5 85q-34 34 -62 34zM544 426q24 0 54 -16.5t45 -33.5q22 -25 34 -68 t8 -91q-7 -66 -53.5 -117.5t-115.5 -48.5q-21 0 -53 8t-47 17q-39 24 -57 100q-1 5 -3.5 13.5t-2.5 12.5q-5 34 6 74q16 54 66 98q27 25 57 36q41 16 62 16zM545 388q-32 0 -69.5 -26t-59.5 -57q-31 -44 -19 -116.5t57 -88.5q6 -2 18.5 -3.5t15.5 -2.5q52 -11 89.5 14 t51.5 68t8.5 92.5t-30.5 84.5q-3 3 -12.5 10.5t-15 11.5t-15 8.5t-19.5 4.5z" />
<glyph unicode="&#x26;" horiz-adv-x="744" d="M514 229q12 2 32.5 38.5t37.5 36.5t17 -18q0 -14 -21 -42t-39 -46q16 -29 61.5 -76.5t61.5 -76.5q0 -1 0.5 -2.5t0.5 -2.5q0 -5 -5.5 -11.5t-13.5 -6.5q-15 0 -34 26q-4 6 -16 15t-17 15q-10 12 -32.5 40.5t-32.5 40.5q-13 -9 -44 -42.5t-68 -50.5q-6 -3 -32 -16.5 t-43.5 -19.5t-35.5 -6q-36 0 -75.5 23.5t-56.5 52.5q-40 68 -40 175q0 121 49 238q19 43 19 46q0 7 -6.5 17t-15.5 21.5t-12 16.5q-56 91 -56 168q0 89 54.5 140.5t113.5 51.5q51 0 80.5 -29t29.5 -82q0 -11 -1.5 -21t-5.5 -21.5t-7 -18.5t-9.5 -21t-8.5 -19 q-31 -67 -72 -134q-34 -53 -34 -67q0 -6 7 -15t22 -24l16 -16q60 -67 125 -151.5t107 -125.5zM320 818q12 26 12 52q0 65 -54 65q-51 0 -96 -43t-45 -106q0 -20 17 -74q22 -66 57 -106q87 159 109 212zM311 403q-15 20 -47.5 57t-46.5 55h1q-3 -11 -22 -63t-27.5 -91.5 t-8.5 -85.5q0 -87 32.5 -148t96.5 -61q15 0 35.5 7t33.5 14.5t30.5 18.5t18.5 11q22 13 46 36.5t33 39.5q-129 144 -175 210z" />
<glyph unicode="'" horiz-adv-x="291" d="M166 1045q0 -76 -2 -115q-3 -78 -10 -94q-8 -20 -27 -9q-9 22 -4 107q1 22 0 43.5t2 44t12 32.5q9 5 18 2t11 -11z" />
<glyph unicode="(" horiz-adv-x="306" d="M201 -82q-12 7 -23.5 23t-17 26.5t-16.5 37t-14 32.5q-42 92 -49 285q-4 56 -4 85q0 38 10.5 106t11.5 86q20 187 80 353q14 52 37.5 101.5t42.5 49.5q21 0 21 -10v-2q-8 -22 -35.5 -83t-38.5 -98q-40 -133 -53 -225q-1 -10 -4.5 -40t-6.5 -46q-20 -115 -20 -199 q0 -347 118 -465q11 -10 11 -16q0 -16 -15 -16q-18 0 -35 15z" />
<glyph unicode=")" horiz-adv-x="323" d="M102 -77q-19 -15 -36 -15q-14 0 -14 15q0 7 10 17q118 109 118 465q0 80 -30 285q-14 90 -53 225q-11 36 -38.5 97t-35.5 84l-1 1v1q0 10 21 10q5 0 11 -4.5t13 -15.5t10.5 -17.5l10.5 -19.5q87 -177 115 -447q0 -1 11 -77.5t11 -117.5q0 -29 -10 -152q-12 -144 -43 -215 q-2 -5 -9 -21.5t-10.5 -24t-10 -21.5t-12 -21.5t-13 -16t-15.5 -14.5z" />
<glyph unicode="*" horiz-adv-x="503" d="M244 1013q1 0 2 -1.5t3 -1.5q1 0 4 0.5t5 0.5q15 0 15 -37q0 -7 -0.5 -21t-0.5 -20v-10q10 5 36 36.5t51 31.5q11 0 15.5 -5.5t7.5 -5.5q-3 -16 -30.5 -42.5t-34.5 -38.5q6 0 22.5 0.5t25.5 0.5q41 0 41 -19q0 -7 -5 -10t-5 -7v-3q-9 -3 -21 -4.5t-20.5 -2t-24.5 -0.5 h-25q1 -4 4 -7.5t8.5 -7t7.5 -5.5q5 -5 16 -18.5t17 -19.5q3 -3 12.5 -9.5t14.5 -13t6 -15.5q-2 -4 -9.5 -8t-9.5 -9q-29 5 -58 37.5t-42 39.5q0 -3 -0.5 -10t-1 -11.5t-1 -11t-1 -11t-2 -10t-3 -9t-3.5 -7t-5 -5t-7 -1.5q-21 0 -21 41v29v12q-15 -8 -44 -42.5t-55 -37.5 q0 6 -7 8t-7 9q0 12 24.5 41t45.5 47q-28 -5 -54 -5q-10 0 -28 2v1q0 3 -4.5 10t-4.5 11q0 11 18 15.5t46 5.5t36 3q-4 9 -22 25t-33.5 32t-15.5 29q0 9 5.5 15.5t12.5 6.5q17 0 48.5 -35.5t40.5 -39.5q0 4 1 23.5t1.5 26.5t4 19t8.5 19z" />
<glyph unicode="+" horiz-adv-x="653" d="M346 710q19 -78 23 -191q19 -2 113 2q4 0 18.5 0.5t26.5 0.5t25.5 -0.5t22 -3.5t10.5 -8q5 -13 -1.5 -22t-20.5 -9q-29 0 -93 -1t-100 0q0 -77 2 -123q0 -9 2.5 -25.5t3.5 -24t-1 -18.5q-1 -5 -8 -12t-11 -7q-16 -1 -22 13q-9 110 -10 190q-35 4 -72.5 4t-90 -2t-75.5 -2 q-7 -1 -10.5 5.5t-3.5 12.5q1 7 5.5 11t13.5 6t16.5 3t19 1.5t16.5 1.5q25 3 54 3.5t69.5 -0.5t55.5 -1q2 27 -8 101t1 95q2 12 21 7q7 -4 8 -7z" />
<glyph unicode="," horiz-adv-x="196" d="M60 -65q0 19 12.5 60.5t13.5 64.5q2 26 -3 49q-1 6 -7.5 14t-12 13.5t-5.5 13t9 14.5q18 11 34.5 -8t22.5 -43q11 -43 -1.5 -102.5t-32.5 -78.5q-5 -7 -23 -3q-7 3 -7 6z" />
<glyph unicode="-" horiz-adv-x="609" d="M542 518q12 0 14.5 -16t-10.5 -20q-24 -5 -50 -7.5t-58.5 -3.5t-53 -1.5t-62 0t-55.5 0.5q-147 -4 -171 0q-24 3 -31 22q0 11 10 14q12 4 42.5 5t70 -0.5t43.5 -1.5q17 0 311 9z" />
<glyph unicode="." horiz-adv-x="230" d="M181 121q18 -45 -22 -80.5t-83 -15.5q-18 8 -27.5 29t-5.5 41q7 32 37 52.5t61 6.5q12 -4 19 -11q17 -15 21 -22zM107 59q19 -1 28.5 19t-2.5 38q-32 10 -44 -18q-10 -23 5 -35q6 -4 13 -4z" />
<glyph unicode="/" horiz-adv-x="433" d="M474 1158q-11 -36 -26 -72.5t-37 -84t-31 -68.5q-40 -128 -125 -347q-7 -18 -22 -53t-26.5 -63t-19.5 -54q-10 -28 -50 -128q-3 -9 -7.5 -24.5t-6.5 -20.5q-5 -14 -19.5 -50t-21.5 -58q-14 -50 -34 -112q-2 -4 -5.5 -15t-5.5 -16q-1 -3 -4.5 -14.5t-6.5 -19.5t-7.5 -17.5 t-10 -14.5t-12.5 -5h-6.5t-5.5 0.5t-4 2t-3 4.5q-1 35 20 85q13 36 38.5 115t40.5 120q11 29 32 82t29 72q50 137 58 154q36 77 90 234.5t85 227.5q3 6 13.5 32.5t18.5 42.5q2 4 7.5 18t9.5 23.5t10.5 19.5t12.5 12q10 3 17.5 2t11.5 -4t3 -6z" />
<glyph unicode="0" horiz-adv-x="715" d="M463 39q-2 -1 -6 -2q-10 -7 -47.5 -14t-73.5 -4q-38 1 -93 29q-49 23 -76.5 52t-45.5 77q-24 65 -31 175q-1 12 2 136q0 13 -1 92t3 88q4 52 6 73t9 58.5t19 60.5q4 8 29 43q25 33 33 38q20 13 27 16q20 10 50 20q56 17 113 11.5t104 -30.5q39 -20 64 -48q19 -22 28 -39 t16 -50q13 -53 14 -59q8 -47 12 -123q13 -240 -2 -385q-14 -147 -153 -215zM345 955h-5q-62 -11 -66 -12q-26 -8 -77 -57q-19 -16 -30 -36q-8 -12 -11 -21.5t-5.5 -25.5t-3.5 -23q-8 -35 -12 -86q0 -5 -0.5 -14t-1.5 -14q-4 -24 -2.5 -90t0.5 -91q-4 -146 14 -245 q1 -5 20 -56q15 -39 38.5 -58.5t69.5 -40.5q57 -27 112 -20q63 7 97 33q58 43 71 69q19 40 26 135q8 119 3 210q-1 18 -1 43t-1 41t-2.5 41t-1.5 27q-1 31 -19 133q-7 40 -31 70.5t-53 46.5q-9 3 -36.5 16t-48 19t-43.5 6z" />
<glyph unicode="1" horiz-adv-x="595" d="M480 37q2 -8 -3.5 -16.5t-13.5 -11.5q-13 -5 -32 -6t-55 1t-47 2q-3 0 -134 8q-46 3 -54 11t-2 24q2 6 14.5 7.5t31 0t38 -3.5t41 -3.5t34.5 -0.5q1 34 -2 111.5t0 117.5l3 51q0 10 2 30.5t2 29.5q1 73 5 234q1 49 -2.5 144.5t-3.5 141.5q-6 -3 -12 -8t-12.5 -12 t-10.5 -12t-11 -14.5t-10 -12.5q-4 -5 -60 -58q-4 -4 -16.5 -18.5t-22 -21t-22.5 -5.5q-15 0 -15 16q2 7 7.5 14.5t9.5 11.5t13 12t11 10q9 7 24 24t20 22l9 9l8 8q57 73 93 99q4 3 11.5 3.5t12.5 -3.5q7 -12 10.5 -28.5t4.5 -25.5t1 -32.5v-26.5q0 -24 3 -71.5t3 -67.5 q1 -85 0 -128t-4.5 -129t-4.5 -130l-3 -56q-2 -50 -1.5 -75.5t2.5 -77t2 -76.5q11 -5 33 -4.5t44.5 4t40.5 1.5t20 -13z" />
<glyph unicode="2" horiz-adv-x="666" d="M148 54q92 -10 107 -10h21q9 0 45 -1t59 -1q83 0 117 5q45 10 59 10q31 0 31 -21q0 -12 -20.5 -20t-61 -11t-71.5 -4t-80 -1q-71 0 -131 4q-9 0 -39.5 1t-46 2.5t-19.5 4.5q-15 17 -15 53q0 56 12.5 104t39.5 91t48 69.5t61 69t55 59.5q15 18 51.5 58t54.5 62 q5 5 19.5 22.5t19.5 24t17 22.5t17 25t13 25t11.5 28.5t6 28.5t2.5 33q0 66 -45 108.5t-117 42.5q-86 0 -151 -34.5t-87 -113.5q-1 -4 -3.5 -21.5t-7 -24.5t-14.5 -7q-20 0 -20 31q0 47 31 96t70 71q30 17 83 30.5t104 13.5q96 0 149.5 -56.5t53.5 -136.5q0 -68 -27 -117 q-7 -13 -26 -37t-24 -31q-27 -37 -60.5 -75.5t-76.5 -85t-66 -72.5q-10 -11 -33 -36t-32.5 -37.5t-25 -35t-25 -48.5t-17.5 -59q-2 -8 -6.5 -25t-7.5 -32t-3 -30q0 -2 0.5 -6t0.5 -5z" />
<glyph unicode="3" horiz-adv-x="727" d="M524 554q134 -53 134 -183q0 -173 -85 -257q-92 -106 -212 -106q-124 0 -224 100q-24 29 -33 41t-23 39t-21 56q-2 4 -2 8q0 5 6.5 10t15.5 5q11 0 17.5 -8t12 -23.5t9.5 -21.5q63 -94 116 -128q19 -12 55.5 -21t69.5 -9q39 0 81 18.5t82 53t65.5 95t25.5 134.5 q0 118 -94 156q-27 10 -41 10q-18 0 -61.5 -27t-62.5 -27q-18 0 -18 19q0 10 8 18.5t17 13t24 10.5l20 8q14 6 47 23.5t45 23.5q45 48 45 142q0 98 -51 151t-145 53q-70 0 -119.5 -38.5t-68.5 -106.5q-1 -4 -3 -17t-4 -20t-7.5 -14t-13.5 -7q-20 0 -20 20q0 30 12 60.5 t21 44t29 40.5q29 37 78.5 57.5t106.5 20.5q105 0 170 -61.5t65 -173.5q0 -121 -69 -182z" />
<glyph unicode="4" horiz-adv-x="672" d="M584 329h12t12 -0.5t11 -1.5t8 -5t3 -10q0 -4 -1 -7.5t-4 -6t-6 -4t-8 -2.5t-8.5 -1.5t-9.5 -0.5h-8.5t-9 0.5t-7.5 0.5q-18 1 -31.5 0.5t-28.5 0.5q0 -38 1 -137t0 -142q-1 -10 -11 -12.5t-20 2.5q-12 6 -12 64q-2 34 -1.5 118t-2.5 106q-52 6 -139 6t-122 3 q-31 4 -60 9q-44 9 -65.5 32.5t-16.5 73.5q1 10 5 29t5 24q1 13 13 63q4 17 15 50.5t16 51.5q31 107 72 217q3 7 11.5 35t16.5 46t16 19q15 5 24 -6q3 -12 1.5 -19t-8.5 -24.5t-8 -22.5q-12 -40 -22 -65q-20 -52 -48.5 -146.5t-37.5 -120.5q-11 -35 -17 -70q-9 -31 -8 -67 t25 -48q17 -10 100 -16q43 -3 113 -4t120 -5q2 27 5 213q2 160 2 230q0 8 -2.5 25.5t-1 28t9.5 19.5q22 9 30 -13.5t8 -54.5q1 -141 -5 -451q47 -3 75 -4z" />
<glyph unicode="5" horiz-adv-x="631" d="M527 445q8 -115 7 -216q0 -3 -0.5 -20.5t-0.5 -23.5t-1 -21t-2.5 -22.5t-3.5 -18t-6 -18t-9 -13.5q-13 -17 -74 -50q-17 -11 -24 -13q-2 0 -8.5 -2.5t-9.5 -3.5q-4 -1 -13.5 -4t-13.5 -4q-52 -10 -107.5 -3t-101.5 27q-31 13 -47.5 22t-35 24.5t-26.5 38.5t-8 55 q-2 44 13 48q18 4 26 -25q3 -13 4 -39l1 -7q6 -19 25 -36q16 -12 43 -26q46 -22 47 -22q110 -33 178 -7q15 6 26.5 11.5t28.5 15t32 17.5q17 13 21.5 38.5t5.5 69.5v10q1 31 -4 143q-2 101 -13 133q-3 8 -8.5 15.5t-10.5 13t-15.5 11.5t-16 9t-19.5 8t-19 6.5t-21 6.5t-19 6 q-60 18 -121.5 13t-112.5 -26q-5 -2 -12.5 -7t-14.5 -7.5t-14 -2.5q-5 4 -8.5 10t-4.5 14.5t-1 14t1 17.5t1 16q2 46 2.5 163t4.5 172q0 4 20.5 4.5t55 -1t49.5 -1.5q145 3 261 0h13.5t16 -0.5t13 -2.5t10.5 -6.5t3 -11.5q0 -10 -4 -17t-17 -5q-54 5 -119.5 5t-142.5 -2 t-119 -2q-2 -47 -2.5 -153t-3.5 -161q42 17 97.5 24.5t100.5 0.5q79 -10 149 -42q19 -8 41.5 -29t28.5 -39q4 -11 9 -72z" />
<glyph unicode="6" horiz-adv-x="700" d="M604 401q6 -96 -9 -195q-1 -8 -3.5 -24t-4 -23t-5 -18.5t-8.5 -21.5q-10 -20 -39 -47q-33 -29 -48 -38q-62 -35 -162.5 -30t-154.5 44q-46 35 -62 88q-5 22 -12 81q-3 9 -2 67t1 70l3 136q1 31 1 91q0 14 -1 44t-1 46.5t1 41t4 46t9 41.5q17 66 58 107q50 48 127 58 q73 11 137 -8q61 -19 87 -40q42 -34 33 -58q-6 -15 -19 -11q-12 6 -35.5 28t-40.5 30q-57 27 -139 22t-119 -45q-8 -8 -19 -26q-8 -12 -14 -24q-14 -32 -20.5 -76.5t-6 -86.5t1.5 -89q0 -6 0.5 -18t0.5 -18q8 6 15 14t12 12q55 45 149 62.5t161 -9.5q49 -20 79 -55 q16 -18 26 -47.5t13 -53t6 -67.5zM538 139q15 28 21.5 69.5t5.5 80t-1 79.5q-2 95 -10 124q-17 63 -77 88.5t-143 14.5q-43 -6 -81.5 -25.5t-59 -37.5t-52.5 -50q-7 -174 -3 -226q5 -88 27 -134t79 -65q51 -16 81 -16q19 1 77 9q40 5 61 17t43 32.5t32 39.5z" />
<glyph unicode="7" horiz-adv-x="604" d="M566 976q-60 -194 -156 -437q8 -1 24.5 -1t29 -0.5t25 -2.5t19.5 -6.5t7 -11.5q0 -13 -21 -17t-47.5 -2t-50.5 0q-13 -25 -33 -72.5t-29 -65.5q-6 -12 -15 -38t-14 -38q-19 -40 -29 -77q-21 -71 -35 -138l-3 -18t-3.5 -18t-5 -13.5t-10 -9.5t-16.5 -1q-8 6 -9.5 18 t0.5 21.5t6 24.5t5 19q30 143 141 402q-27 7 -88.5 -1t-86.5 -4q-11 3 -9 19l3 9q4 6 15 8.5t30 4t26 2.5q34 5 127 7q25 54 48.5 116.5t52 147.5t42.5 123q-54 -27 -134 -43t-169.5 -10.5t-145.5 39.5q-23 14 -26 26q0 11 4 14q8 5 16 5.5t13 -2t13.5 -7.5t12.5 -7 q123 -53 315 -6q30 7 78 28.5t57 24.5q7 3 17.5 -2t8.5 -10z" />
<glyph unicode="8" horiz-adv-x="693" d="M406 589q29 -3 49 -7t33.5 -13t19 -13.5t16 -19t13.5 -18.5q37 -45 51 -79q10 -23 18 -55q21 -84 3 -175.5t-72 -139.5q-56 -50 -131 -60q-57 -10 -84 -7q-42 4 -91.5 24t-75.5 43q-1 0 -22 25q-16 20 -21 28q-27 44 -35 152q-3 79 28 151q3 7 33 48q11 16 29 36 q10 11 33.5 28.5t31.5 28.5q-2 4 -6.5 7.5t-13 7.5t-11.5 6q-29 18 -32 22q-32 33 -50 96t-7 116q13 66 41 100q53 62 153.5 73.5t180.5 -39.5q72 -48 81 -141q8 -75 -16 -131q-18 -44 -49 -67t-97 -27zM427 934q-38 19 -85 20t-79 -13q-56 -22 -79 -48q-40 -50 -34.5 -131 t46.5 -125q17 -18 44.5 -30.5t53.5 -11.5q12 1 37 10t32 11q15 4 46 9.5t50 12t31 19.5q29 35 37 95q5 56 -12 108q-2 6 -5.5 12t-8 11t-8.5 9t-10.5 9t-10 7.5t-11.5 7t-10 5.5t-11 5l-8 5q-3 2 -5 3zM556 410q-10 34 -50 80q-26 32 -42 42.5t-59 22.5q-28 8 -73 8 q-28 0 -74 -24q-28 -16 -67 -57q-29 -32 -49.5 -80t-24.5 -94q-5 -67 13.5 -123.5t55.5 -86.5q23 -19 65 -35t78 -20q23 -1 60 7q7 1 28.5 4.5t29.5 5.5q35 12 59 38t48 67q38 118 2 245z" />
<glyph unicode="9" horiz-adv-x="644" d="M565 773q3 -6 2.5 -67.5t-0.5 -69.5q1 -26 -1.5 -75.5t-2.5 -60.5q-1 -26 -1 -78.5v-76.5q-1 -19 -3 -72.5t-3 -84.5q0 -67 -44 -111q-29 -31 -59 -42q-3 -1 -14.5 -4.5t-17.5 -4.5q-34 -9 -95 -15q-35 -3 -102 23q-77 29 -106 77q-4 7 3 14q9 6 21 5q9 -2 35 -22 q15 -11 33 -21q2 -1 15.5 -8t19 -10t17.5 -8t22 -7t21 -2q23 0 35 2q75 12 93 19q73 29 80 105q2 21 3.5 61.5t2.5 57.5v148q-8 -6 -15.5 -14t-12.5 -12q-54 -45 -148.5 -62t-161.5 9q-46 19 -79 55q-16 18 -25.5 47.5t-12.5 53t-6 67.5q-8 94 8 195q1 8 3.5 24t4 23t5 18.5 t8.5 21.5q10 20 39 47q30 26 48 38q62 35 162.5 30t154.5 -44q47 -35 62 -88q5 -17 12 -81zM520 508q7 177 4 226q-5 88 -27 134t-80 65q-41 16 -81 16q-20 -1 -77 -9q-39 -5 -60 -17q-53 -30 -76 -72q-15 -28 -21.5 -69.5t-5.5 -80t1 -79.5q2 -94 10 -124 q17 -63 77.5 -88.5t143.5 -14.5q42 6 80.5 25.5t59 37.5t52.5 50z" />
<glyph unicode=":" horiz-adv-x="249" d="M181 231q18 -45 -22 -80.5t-83 -15.5q-18 8 -27.5 29t-5.5 41q7 32 37 52.5t61 6.5q12 -4 19 -11q17 -15 21 -22zM107 169q19 -1 28.5 19t-2.5 38q-32 10 -44 -18q-10 -23 5 -35q6 -4 13 -4zM181 711q18 -45 -22 -80.5t-83 -15.5q-18 8 -27.5 29t-5.5 41q7 32 37 52.5 t61 6.5q12 -4 19 -11q17 -15 21 -22zM107 649q19 -1 28.5 19t-2.5 38q-32 10 -44 -18q-10 -23 5 -35q6 -4 13 -4z" />
<glyph unicode=";" horiz-adv-x="238" d="M181 711q18 -45 -22 -80.5t-83 -15.5q-18 8 -27.5 29t-5.5 41q7 32 37 52.5t61 6.5q12 -4 19 -11q17 -15 21 -22zM107 649q19 -1 28.5 19t-2.5 38q-32 10 -44 -18q-10 -23 5 -35q6 -4 13 -4zM87 -55q0 19 12.5 60.5t13.5 64.5q2 26 -3 49q-1 6 -7.5 14t-12 13.5t-5.5 13 t9 14.5q18 11 34.5 -8t22.5 -43q11 -43 -1.5 -102.5t-32.5 -78.5q-5 -7 -23 -3q-7 3 -7 6z" />
<glyph unicode="&#x3c;" horiz-adv-x="520" d="M464 982q11 -5 13 -10t0 -12.5t-8 -16.5t-12 -16.5l-14 -17.5l-12 -15q-7 -8 -18.5 -26t-17.5 -27q-132 -170 -260 -361q33 -52 107 -146.5t93 -120.5q11 -16 29.5 -48.5t28.5 -47.5q5 -7 18.5 -21t17.5 -19q2 -2 7.5 -8t8 -9.5t6.5 -9t6 -10t2 -8.5q0 -10 -6.5 -17 t-12.5 -9q-4 -1 -9 2t-10.5 8.5t-9.5 10t-9 10.5l-4 6q-4 5 -18 19.5t-19 21.5q-8 9 -18.5 29t-12.5 22q-60 95 -102 147q-55 67 -107 141q-31 46 -31 51q0 12 33 62q23 35 68.5 98.5t48.5 68.5q65 95 121 164q13 16 39 54t45 59q6 6 19 2z" />
<glyph unicode="=" horiz-adv-x="887" d="M717 410q10 -7 11 -18t-9 -15q-76 -10 -257 -8q-43 0 -127.5 -2t-126.5 -2q-72 0 -85 17q-9 12 2 19q8 4 19 5.5t19 1.5t22.5 -0.5t20.5 -0.5q21 0 62 2.5t60 2.5q263 -3 341 1q3 0 11.5 1t13 1.5t11.5 -1t12 -4.5zM717 615q10 -7 11 -18t-9 -15q-68 -9 -257 -9 q-47 1 -132.5 -1t-121.5 -2q-72 0 -85 17q-8 11 2 19q8 4 19 5t19 1t22 -0.5t21 -0.5q19 0 60.5 3t61.5 2q298 0 341 2q3 0 11.5 1t13 1.5t11.5 -1t12 -4.5z" />
<glyph unicode="&#x3e;" horiz-adv-x="492" d="M73 6q-9 3 -14 10q-2 7 3 17.5t11 19t17.5 22.5t15.5 19q6 9 17.5 27t18.5 26q121 155 260 361q-33 50 -105 142.5t-95 124.5q-12 16 -30 49t-28 47q-4 7 -18 20.5t-19 19.5q-28 30 -29 44q0 10 6.5 17.5t12.5 8.5q11 2 42 -36q7 -9 20.5 -22.5t17.5 -18.5q6 -9 17 -28.5 t13 -23.5q62 -97 102 -146q49 -59 107 -141q2 -3 8.5 -12t10.5 -15t7.5 -13t3.5 -12q1 -13 -32 -62q-23 -34 -67.5 -97t-49.5 -70q-84 -117 -120 -163q-15 -18 -41.5 -55.5t-43.5 -57.5q-5 -7 -19 -2z" />
<glyph unicode="?" horiz-adv-x="638" d="M272 144h7q10 0 19 -2t12.5 -3.5t11.5 -6t9 -5.5q19 -15 17 -46q-3 -33 -33.5 -52.5t-68.5 -13.5q-20 6 -27 14t-12 27t-4 33q1 15 21 35q18 18 48 20zM246 94q0 -29 9 -37q17 -6 34 0q20 20 13 44q-13 7 -31 5.5t-25 -12.5zM275 218q-9 0 -15 10q-13 34 -11 110 q0 8 1 44t2.5 48.5t5 38t11 42.5t18.5 32q12 14 40 38.5t39 37.5q11 11 35 43q2 3 13.5 17t15.5 19.5t14 19.5t14 22l11 22t10 25.5t5.5 26.5t2.5 30q-2 55 -11 76q-23 58 -99 78.5t-140 -16.5q-10 -7 -39 -38q-29 -32 -45 -66q-24 -48 -9 -82q8 -17 29 -34.5t40 -24.5 q4 -1 14 -2.5t15 -5t5 -11.5q1 -9 -7 -16t-15 -8q-16 -2 -48 17t-43 31q-50 58 -31 123q5 17 8 25q2 3 5 8.5t5.5 9.5t3.5 7q11 20 41 52t52 46q47 31 124 29.5t122 -38.5q41 -34 55 -71q8 -20 12 -57t0 -65q-5 -49 -53 -129q-14 -22 -71 -84q-33 -37 -80 -74 q-47 -72 -33 -248q4 -17 0.5 -37t-19.5 -21z" />
<glyph unicode="@" horiz-adv-x="873" d="M528 405q-79 -69 -155 -74q-45 -1 -91 28q-36 23 -43 31q-22 25 -28 76t10 86q4 8 19.5 28t23.5 27q24 19 55 34q53 27 97 29q68 5 118 -22q4 -2 6 -9t2 -18v-21t-0.5 -24t-0.5 -21q4 -97 28 -139q7 -14 28 -28.5t37 -14.5q22 0 43 17t31 38q21 42 21 153q0 14 0.5 54.5 t-1 66t-6.5 46.5q-27 116 -88 144q-18 9 -39 15q-27 9 -40 11q-51 11 -106 7t-93 -22q-8 -4 -74 -48q-46 -32 -68 -54q-91 -90 -108 -296q-2 -30 0 -94q2 -42 9 -80q28 -157 74 -220q52 -71 182 -106q12 -3 23 -4.5t24 -0.5t20 2t23.5 5t21.5 5q73 14 110 36q47 27 65 51 q1 1 7 9t9 13q3 4 6.5 11t5.5 10q1 1 3.5 6t3.5 6.5t3.5 5t5 5t6 2.5t8 1t9.5 -2q7 -2 8 -8.5t-2.5 -16t-8 -17t-9.5 -14.5q-3 -4 -10 -15t-9 -14t-8.5 -11.5t-10.5 -12.5l-11 -11t-14 -11.5t-17 -10.5t-21 -12q-50 -26 -127 -42q-52 -9 -62 -10q-64 -5 -129 22t-104 64 q-25 24 -55 76q-23 41 -32 79q-13 50 -18 84q-2 16 -8.5 53.5t-8.5 56.5q-6 75 9 188q12 83 50 155q18 37 32 56q6 9 13 17t18 18t16 14.5t21 17t18 14.5q46 36 86 57t92 31q45 8 142 -9q67 -13 110 -39q42 -36 69.5 -94.5t29.5 -129.5q1 -35 1 -115q2 -174 -84 -224 q-46 -25 -96 -8t-67 61zM288 576q-29 -27 -37 -70.5t15 -82.5q8 -13 31.5 -28.5t40.5 -20.5q59 -15 117 26q50 36 54 52q2 8 -2 23.5t-4 19.5q-3 64 0 125q-67 17 -121 4t-94 -48z" />
<glyph unicode="A" horiz-adv-x="711" d="M587 2q-8 3 -12.5 11t-6 20.5t-1.5 22.5t0.5 23t0.5 15q0 24 1.5 70.5t1.5 69.5q0 18 -5 54.5t-5 55.5q0 2 0.5 7t0.5 8q-29 1 -87 1q-97 0 -348 -11q-3 -51 -3.5 -166.5t-3.5 -165.5q-1 -7 -9 -12t-17 -5q-17 0 -17 23t4 73.5t4 68.5t-2.5 54.5t-2.5 55.5q0 147 14 373 q3 49 31 135q61 188 241 188q77 0 137 -51.5t83 -117.5q21 -60 21 -200v-69q0 -188 7 -277q1 -16 1 -47q0 -23 -1.5 -70t-1.5 -70q0 -4 1 -16t1 -18q0 -31 -27 -33zM517 836q-26 40 -68.5 68.5t-86.5 28.5q-35 0 -64.5 -9.5t-51.5 -23.5t-39 -39.5t-28.5 -48.5t-20 -61.5 t-13 -66t-8 -73.5t-5 -74t-3 -77.5t-2.5 -74.5q242 16 397 16h41q0 6 -0.5 18t-0.5 19q0 22 1 70t1 72q0 180 -49 256z" />
<glyph unicode="B" horiz-adv-x="725" d="M603 415q46 -69 46 -168q0 -73 -26 -123t-76.5 -77t-111 -38.5t-142.5 -11.5q-66 0 -100 4q-14 1 -32 0t-40.5 0.5t-32.5 6.5q-8 3 -12.5 42.5t-4.5 62.5q0 18 2 56t2 57q0 13 -1 37.5t-1 35.5q0 14 1 21q18 243 18 375q0 28 -5 86t-5 87q0 52 12 92q3 14 93 14 q34 0 196 -9q116 -8 174 -53t58 -156q0 -86 -52 -141.5t-138 -80.5q130 -49 178 -119zM134 928q-1 -19 -1 -58q0 -36 2 -110.5t2 -112.5q0 -48 -3 -96q24 3 73 3h36q77 0 110 6q9 1 27.5 6.5t28.5 7.5q40 6 57 13q12 4 23.5 13t19 16.5t19 20.5t16.5 19q6 7 10.5 13.5 t7 13.5t4.5 10.5t2.5 11.5t0.5 11v13v13q0 75 -13 103q-25 50 -98.5 67t-183.5 17q-26 0 -73.5 -0.5t-66.5 -0.5zM598 209q2 24 2 36q-2 102 -40 154q-13 17 -72 56q-40 27 -79 37.5t-112 15.5q-5 0 -15.5 -1.5t-15.5 -1.5q-122 -1 -133 -11q0 -36 -7 -93t-9 -85 q0 -5 1.5 -15.5t1.5 -15.5q-3 -150 -3 -151q0 -56 3 -82q25 -1 83.5 -7t97.5 -6h15q41 3 64 5.5t54 7t47.5 10t38 14t32 20t22 28t17 37.5t7.5 48z" />
<glyph unicode="C" horiz-adv-x="654" d="M552 236q5 4 13 4q11 0 20 -8.5t9 -23.5q-6 -35 -20 -68t-40 -69t-72 -58t-105 -22q-46 0 -97 16q-101 35 -129 74q-37 54 -59 193q-24 146 -24 251q0 79 24 172q16 62 25.5 91.5t32 69t55.5 68.5q53 46 150 46q96 0 166.5 -44t70.5 -125q0 -45 -23 -45q-25 0 -27 49 q0 9 -1 13q-11 56 -63.5 82t-118.5 26q-47 0 -82 -14.5t-58 -46t-37.5 -64.5t-29.5 -84q-34 -112 -34 -232q0 -163 51 -336q21 -59 73 -81q72 -36 125 -36q71 0 127.5 45t66.5 114q1 4 1 10q0 23 10 33z" />
<glyph unicode="D" horiz-adv-x="691" d="M195 983h23q166 0 267.5 -76.5t107.5 -220.5q7 -166 7 -181q0 -49 -4 -141v-26q0 -22 -6.5 -58.5t-7.5 -47.5q-8 -76 -36 -130q-6 -12 -12.5 -21.5t-16 -18t-15.5 -14t-21 -12t-21 -9.5t-26 -9t-27 -8t-33 -8.5t-35 -8.5q-22 -6 -77 -6q-4 0 -25.5 -0.5t-35.5 -0.5 t-36.5 1.5t-37 4.5t-28 9.5t-18.5 15.5q-5 10 -5 34q0 11 1 34t1 33q0 20 -1.5 65t-1.5 68q0 25 0.5 77t0.5 77q0 22 -1 62t-1 58q0 33 1.5 93.5t1.5 89.5q0 27 -3 85.5t-3 90.5q0 55 15.5 77t75.5 22h33zM416 59q30 10 51.5 25.5t33 28.5t20.5 38t11.5 38.5t7 48t7.5 50.5 q10 58 10 135q0 44 -10 259q-10 110 -70 173q-10 5 -37.5 27.5t-47.5 30.5q-62 25 -169 25q-53 0 -108 -5q-1 -16 -1 -52q0 -83 8 -144q-3 -129 -3 -310q0 -155 2 -383q60 -12 118 -12q93 0 177 27z" />
<glyph unicode="E" horiz-adv-x="645" d="M133 934q1 -32 5 -127.5t4 -150.5q0 -68 -6 -139q30 6 88 6h54q20 0 53 3t49 3q44 0 44 -20q0 -22 -21 -24q-27 -1 -84 -1.5t-99 -2.5t-84 -7q-6 -86 -6 -229q0 -118 27 -168q11 -17 56 -29.5t84 -12.5q40 0 120 8.5t115 8.5q28 0 28 -22q0 -15 -19 -17 q-11 -1 -68.5 -7.5t-95 -9t-74.5 -2.5q-72 0 -133 25t-68 61q-16 79 -16 206q0 65 6.5 191.5t6.5 182.5q0 49 -5.5 149.5t-5.5 153.5q0 15 32 15q27 0 75 -2t70 -2q38 0 120 1t136 1q52 0 52 -19q0 -29 -86 -29q-14 0 -36 1t-26 1q-14 0 -44.5 -0.5t-46.5 -0.5 q-127 0 -201 5z" />
<glyph unicode="F" horiz-adv-x="628" d="M121 920q2 -85 4.5 -234t3.5 -179q36 2 73.5 9t84 18t69.5 16q42 9 51 9q20 0 20 -17q0 -24 -52 -33q-14 -2 -104.5 -21.5t-141.5 -23.5v-24q0 -16 0.5 -45.5t0.5 -44.5q0 -10 -1 -31t-1 -31q0 -20 2.5 -59.5t2.5 -58.5q0 -11 -1 -40t-1 -44q0 -7 0.5 -22t0.5 -24 q0 -41 -20 -41q-10 0 -16 12.5t-7.5 35.5t-2 42.5t0.5 48.5t1 38q0 105 -4.5 317.5t-4.5 315.5q0 81 4 142q1 15 61 15q16 0 49.5 -1t47.5 -1q186 8 289 8q50 0 50 -21q0 -24 -59 -24h-36q-61 -3 -182.5 -3.5t-181.5 -3.5z" />
<glyph unicode="G" horiz-adv-x="731" d="M642 466q13 -51 13 -112q0 -168 -78.5 -260.5t-234.5 -92.5q-92 0 -172 87t-96 221q-13 132 -13 221q0 270 76 343q44 48 96.5 73.5t135.5 25.5q124 0 203 -79q55 -55 55 -82q0 -7 -5 -15t-14 -8q-12 0 -35 30q-1 0 -1 1t-1 2q-46 55 -90.5 80t-106.5 25q-150 0 -209 -93 t-59 -278q0 -81 8 -153q1 -8 2 -26t1 -20q2 -45 7 -70q22 -98 86.5 -167.5t137.5 -69.5q44 0 97 15t82 37q38 37 60 111t22 143q0 35 -7 69q-22 -1 -94 -20q-80 -20 -121 -20q-8 0 -14 7t-6 17q0 7 8 13t26.5 11t29.5 7l33 6q22 3 30 6q1 1 4 1t5 1q88 22 115 22q20 0 24 -9 z" />
<glyph unicode="H" horiz-adv-x="811" d="M158 475q65 14 477 110q-3 36 -3 70q0 27 2 80.5t2 82.5q0 14 -1 40.5t-1 39.5q0 78 17 78q29 0 29 -51q0 -6 -0.5 -17.5t-0.5 -16.5v-7q0 -26 -1 -83t-1 -87q0 -76 3 -240t3 -240q0 -14 -1.5 -40t-1.5 -40q0 -10 0.5 -29.5t0.5 -28.5v-29v-27q0 -36 -21 -36 q-23 0 -23 38q0 12 2 35t2 32q0 10 -1 32t-1 34q0 5 0.5 15t0.5 15q0 15 -2 41t-2 37q-1 47 -1 128v128q-71 -14 -228 -51t-246 -52q-1 -15 -1 -44q0 -20 1 -56.5t1 -54.5q0 -20 -1 -61t-1 -62v-109q0 -54 -20 -54q-9 0 -15 13.5t-7.5 37.5t-2 43.5t0.5 47.5t1 33 q0 17 1.5 52.5t1.5 53.5q0 22 -5 149q-2 33 -7 387q0 12 -3.5 49.5t-2.5 56.5q0 58 17 58q10 0 15.5 -5t7.5 -18.5t2 -18v-22.5q0 -17 3.5 -50.5t3.5 -47.5q0 -13 7 -339z" />
<glyph unicode="I" horiz-adv-x="349" d="M195 929q1 -23 4 -135t7 -172v-18q0 -55 -4.5 -166.5t-4.5 -165.5q0 -37 6 -107.5t6 -106.5v-16q7 -3 18 -3q8 0 25.5 2t24.5 2q25 0 25 -15q0 -32 -59 -32q-110 0 -156 6q-5 1 -8 2.5t-4 3t-1.5 5.5t-0.5 5q0 24 39 24q6 0 19 -0.5t20 -0.5q6 0 9.5 1t5 4.5t2 5.5t0 7.5 t-0.5 7.5q0 37 -6.5 111t-6.5 111q0 35 8 320q-1 15 -1 39v34q0 34 -4.5 110.5t-4.5 116.5v22q-52 -2 -69 -2h-3q-9 0 -14 0.5t-10.5 5.5t-5.5 15q0 25 102 25h12q29 0 45 -0.5t37.5 -2t32 -6.5t10.5 -13q0 -25 -68 -25q-19 0 -26 1z" />
<glyph unicode="J" horiz-adv-x="639" d="M116 400q7 -8 12.5 -18.5t11 -25t9.5 -21.5q1 -1 25 -41q12 -18 39.5 -68.5t51.5 -84t56 -62.5q35 -31 63 -31q78 0 78 159q0 40 -4.5 120t-4.5 121q0 63 3 191.5t3 192.5q0 67 -1 100q-24 5 -61 5q-21 0 -58.5 -2.5t-47.5 -2.5q-12 2 -12 15q0 11 5.5 16.5t10 6.5 t19.5 3q80 11 96 11q54 0 73 -10.5t19 -54.5q0 -9 -0.5 -27t-0.5 -24q0 -11 1.5 -47t0.5 -55q0 -54 -3 -169t-3 -171q0 -33 3 -96.5t3 -92.5q0 -52 -5 -90t-17 -71.5t-36.5 -50.5t-61.5 -17q-28 0 -56 17t-42 31.5t-38 42.5q-30 35 -85 129q-4 7 -23 38.5t-28 47.5 q-24 40 -28 69q0 9 7 15t15 6q7 0 11 -4z" />
<glyph unicode="K" horiz-adv-x="801" d="M691 352q8 -25 3 -154t-4 -162q0 -18 -10.5 -22t-22.5 3q-6 3 -9 14.5t-3.5 30t0 34.5t2 36t1.5 27q3 63 1 135t-15 127q-22 94 -87 149q-46 39 -86 49q-88 -59 -161.5 -94t-169.5 -46q-7 -239 0 -415q5 -21 1.5 -41.5t-24.5 -22.5q-7 2 -11 7.5t-4.5 9t-1 13t-0.5 10.5 q-12 142 -8 255q0 9 2.5 53.5t1.5 69.5q-2 70 4 205t4 195q-6 106 -5 120q1 18 9.5 29t26.5 8q6 -4 7 -9.5t-0.5 -14.5t-1.5 -13q0 -13 5.5 -85.5t4.5 -115.5q-3 -109 -11 -218q128 15 252 95q99 62 151 142l30 54q4 7 14.5 25.5t16 29t12.5 27t11 31.5q0 1 5 27t13 38 q5 7 19 4t19 -11q8 -14 -14 -84q-1 -3 -5.5 -11t-6.5 -12q-2 -5 -7.5 -14.5t-6.5 -12.5q-2 -3 -7 -11.5t-8 -13.5t-14.5 -29t-19.5 -36q-38 -61 -84 -107q98 -33 153 -143q1 -3 11 -23.5t13 -29.5q5 -17 15 -102z" />
<glyph unicode="L" horiz-adv-x="606" d="M127 974q5 -19 5.5 -40.5t-0.5 -58.5t-1 -52q0 -60 -3 -276t-1 -336q2 -83 19 -112q6 -10 21 -22.5t29 -17.5q9 -3 32.5 -4.5t29.5 -2.5q71 -8 215 0q5 0 13 1.5t12.5 2t10 0.5t9 -2.5t5.5 -6.5q8 -17 -13 -25.5t-54 -10.5q-13 -1 -48 -2.5t-49.5 -2t-40 0.5t-48.5 4 q-8 1 -30.5 3t-38 4.5t-26.5 6.5q-28 10 -52 35t-32 54q-5 16 -7 43q-5 59 -5 186q-1 80 3.5 242t4.5 242v30.5t0.5 33t2 29t4 32t7.5 28.5q7 8 15.5 5.5t10.5 -11.5z" />
<glyph unicode="M" horiz-adv-x="863" d="M422 647q24 28 67 85t66 84q15 17 41.5 52.5t49.5 62t48 46.5q6 3 11 3q37 0 37 -138q0 -26 -0.5 -71.5t-0.5 -65.5q0 -113 1.5 -340.5t1.5 -333.5q0 -20 -22 -20q-24 0 -24 42q0 5 0.5 16t0.5 17v59v166q0 61 -2.5 192.5t-2.5 199.5q0 21 1.5 62.5t1.5 62.5q0 46 -5 79 q-32 -32 -66.5 -75t-76 -98.5t-60.5 -79.5q-57 -68 -73 -67q-7 0 -13.5 7t-14 19.5t-10.5 16.5q-16 21 -36 43q-119 137 -193 206l-12 12t-14.5 14t-13.5 10q8 -101 8 -268q0 -46 -0.5 -136t-0.5 -134q0 -39 2.5 -114t2.5 -112v-17v-73q0 -3 0.5 -13t0 -15t-2 -12 t-6.5 -10.5t-13 -3.5q-10 0 -15.5 8t-7.5 26t-2.5 28t-0.5 31q0 11 0.5 32.5t0.5 32.5q0 48 -2.5 141.5t-2.5 138.5q0 25 1.5 74.5t1.5 70.5q0 50 -3.5 149t-3.5 158v11.5v13v12.5t0.5 13t1.5 12t2.5 11t3.5 7.5t5 5.5t7 2q24 0 61 -40q17 -18 60 -58.5t64 -64.5 q15 -17 42 -46t42 -46t34 -40t33 -43z" />
<glyph unicode="N" horiz-adv-x="840" d="M668 980q4 3 8 3q25 0 25 -59q0 -12 -1 -35.5t-1 -33.5q0 -26 3.5 -76.5t3.5 -75.5q0 -57 1.5 -170.5t1.5 -168.5q0 -22 -1.5 -66.5t-1.5 -63.5q0 -24 9 -83t9 -87q0 -33 -22 -33q-7 0 -14 8t-11 16.5t-10 23.5l-8 20q-6 13 -17.5 29t-29 36.5t-23.5 27.5 q-55 70 -133 191q-147 229 -187 299q-9 16 -35.5 64t-46.5 78.5t-44 55.5q4 -80 8 -228t6 -206v-27q0 -15 -0.5 -44t-0.5 -43q0 -16 1 -47.5t1 -47.5q0 -17 -0.5 -50t-0.5 -49t2 -47.5t2 -46.5q0 -29 -23 -35q-28 2 -28 128q0 23 3 58.5t3 47.5q-2 64 -6.5 289t-9.5 345 q-3 51 -3 54q0 44 20 44q15 0 31.5 -17t37.5 -49.5t23 -35.5q10 -14 61 -102q22 -39 66 -110t58 -94q10 -17 33 -50t33 -50q76 -131 201 -291q0 -5 5 -5q-4 39 -4 93q0 18 0.5 53.5t0.5 51.5q0 205 -2 308q0 18 -3.5 80t-2.5 99q0 10 0.5 30t0.5 30q0 5 -0.5 13.5t-0.5 12.5 q0 26 13 38z" />
<glyph unicode="O" horiz-adv-x="751" d="M655 440q2 -23 2 -70q0 -264 -137 -336q-53 -27 -143 -27q-66 0 -108 15q-8 3 -18 8.5t-21 12t-14 8.5q-80 65 -108.5 178.5t-28.5 294.5q0 93 15 172t46.5 145.5t88 104.5t133.5 38q76 0 141 -24t85 -60l18 -42q16 -38 27 -105q7 -47 10 -91t5.5 -107.5t6.5 -114.5z M612 347q-1 6 -1 18q0 8 0.5 24t0.5 24q0 32 -3.5 98t-4.5 89q0 5 -2.5 16t-2.5 17q0 78 -29 186q-13 48 -16 53q-19 29 -77 49t-116 20q-57 0 -100 -25.5t-68 -66.5t-40 -101.5t-20 -120t-5 -133.5q0 -200 45 -315q26 -69 74.5 -100.5t136.5 -31.5q120 0 174 76.5t54 199.5 v24z" />
<glyph unicode="P" horiz-adv-x="699" d="M124 481q-1 -48 9 -262q0 -8 1 -51t4 -67q0 -2 2.5 -19t4 -28.5t0 -25.5t-6.5 -20q-10 -12 -22 -9q-4 1 -6.5 5t-4 11t-2 13t-1 15.5t-0.5 14.5q-2 28 -7 89t-7 91q0 4 -1 37t-2 51q-5 52 -5 93q-1 31 5 208q2 84 0 234q-3 99 8 113q13 16 52 19t64 -1q31 -2 92.5 -3 t108.5 -5t84 -15q48 -14 81 -38q3 -2 9.5 -9t9.5 -9q50 -44 60 -86q12 -50 4 -126q-12 -106 -54 -143q-25 -22 -103 -52q-34 -13 -110 -18q-63 -5 -74 -5q-8 0 -22.5 -1t-26.5 -1.5t-23 -0.5h-58.5t-62.5 1zM238 520q12 0 36.5 2t37.5 2q19 0 77 7q71 5 74 6q16 4 45 15.5 t42 15.5q11 4 21.5 12.5t15.5 13.5l5 6q18 48 23 109t-6 107q-10 41 -65 79q-52 36 -153 49q-34 4 -100 5t-94 3q-5 0 -16 1.5t-17 1.5h-14t-13.5 -2.5t-10.5 -7.5q7 -118 0 -424q72 -2 112 -1z" />
<glyph unicode="Q" horiz-adv-x="781" d="M677 11q3 -3 3 -7q0 -8 -7.5 -15.5t-14.5 -7.5q-2 0 -3 1q-47 16 -119 72q-89 -72 -236 -72q-53 0 -92 16t-62 40.5t-39 65t-22.5 76.5t-12.5 89q-6 29 -8 89t-3 77q-8 80 -8 149q0 218 94 332q78 95 211 95q30 0 44 -2q40 -5 97.5 -29.5t79.5 -56.5q29 -43 43.5 -146.5 t14.5 -208.5q0 -204 -11 -286q-20 -142 -57 -194q12 -16 30 -28.5t42.5 -26.5t35.5 -22zM483 216q19 -57 58 -98q25 51 37.5 136.5t14 146t1.5 169.5q0 25 -2 53t-4.5 47t-7 51t-6.5 47q-6 43 -9 60.5t-13 44t-25 40.5q-28 25 -82.5 40.5t-100.5 15.5q-42 0 -64.5 -6.5 t-45.5 -23.5q-81 -61 -109.5 -147t-28.5 -222q0 -67 4 -124q2 -24 4 -65t3.5 -64.5t5 -59.5t7.5 -57t11.5 -49.5t17.5 -45t25 -35.5t33.5 -28.5t43.5 -16t55 -6.5q62 0 121 18.5t81 46.5q-22 30 -33.5 47.5t-24 49.5t-12.5 63q0 17 14 17q8 0 13 -2t7.5 -7t4 -9t3.5 -13 t3 -14z" />
<glyph unicode="R" horiz-adv-x="745" d="M495 526q4 -30 9.5 -88.5t13 -104t21.5 -87.5q41 -112 80 -172q30 -47 30 -60q0 -15 -22 -14q-8 1 -15.5 7.5t-11 11.5t-10 16.5t-8.5 14.5q-78 126 -104 277q-12 67 -26 187q-37 -15 -56 -18q-40 -8 -88.5 -9t-102 1t-80.5 1q-1 -36 1 -106.5t2 -98.5q0 -31 7 -95.5 t5 -97.5q0 -11 2 -34t1.5 -38t-6.5 -19q-20 -13 -29 -3t-11 43q-1 14 -1 71t-2 85q-1 6 -3.5 31t-3.5 40q-6 194 -5 218q1 33 -0.5 93.5t-1.5 78.5q0 115 -5 191q-2 20 -2 69q2 55 5 60q6 11 11 12q35 8 68.5 10t85.5 1t76 0q79 0 136 -9q83 -13 121 -52q31 -31 53 -89 q20 -52 17 -100q-6 -82 -44 -142t-107 -82zM383 540q54 11 108 33q32 15 54 31q25 20 41.5 63.5t16.5 84.5q0 89 -60 151q-40 40 -107 47q-137 13 -321 0q10 -140 10 -415q20 1 74 -2t102 -2.5t82 9.5z" />
<glyph unicode="S" horiz-adv-x="692" d="M596 817q-9 -13 -20 -13t-23 18.5t-26 43.5t-26 35q-33 25 -84 43.5t-95 17.5q-37 0 -84 -14.5t-64 -43.5q-28 -44 -28 -115q0 -90 48 -127q9 -8 21.5 -15t32 -16.5t25.5 -12.5q112 -58 161 -88q74 -44 76 -46q105 -89 105 -215q0 -144 -61.5 -209.5t-217.5 -65.5 q-68 0 -118.5 27t-100.5 100q-24 29 -23 42q0 8 6.5 16t14.5 8q4 0 10.5 -8t13.5 -19t10 -14q3 -4 13 -18t13 -18t12.5 -15t14.5 -15t15 -12.5t18 -11.5t20.5 -8.5t25 -7.5t28.5 -3.5t34 -1.5q65 0 100.5 8.5t77.5 38.5q17 11 32 70q18 78 18 111q0 50 -19 93t-47.5 72 t-71 56.5t-79.5 45t-84 41t-75 41.5q-3 2 -15.5 8.5t-17.5 11.5q-26 23 -44.5 68.5t-18.5 88.5q0 65 33 133q17 35 69 61t114 26q47 0 108.5 -21t101.5 -49q25 -20 48.5 -53t24.5 -56q0 -3 -2 -13z" />
<glyph unicode="T" horiz-adv-x="666" d="M357 922q-2 -46 -2 -71q0 -63 5.5 -198t5.5 -199q0 -30 -4 -89t-4 -91q0 -38 2 -114.5t2 -116.5q0 -23 -6 -34.5t-25 -11.5q-14 2 -14 34q0 9 1 27.5t1 26.5q-5 73 -5 152q0 37 4.5 111t4.5 112q0 49 -5 145.5t-5 144.5q0 20 0.5 63t0.5 67v41q-16 -1 -52 -1 q-18 0 -58 0.5t-61 0.5q-9 0 -30.5 -2t-31.5 -2q-42 0 -42 31q0 17 34 17q11 0 35 -1.5t34 -1.5h10q16 0 47.5 -1.5t46.5 -1.5q60 0 172 6.5t156 6.5q39 0 39 -20q0 -24 -45 -24q-6 0 -18 0.5t-17 0.5q-32 0 -90.5 -3.5t-85.5 -3.5z" />
<glyph unicode="U" horiz-adv-x="749" d="M658 973q3 -45 3 -91q0 -38 -3 -114.5t-3 -113.5q0 -21 2.5 -60.5t2.5 -58.5v-12q0 -9 0.5 -28t0.5 -29q0 -98 -18 -287q-6 -57 -36 -108q-33 -55 -91 -71.5t-179 -16.5q-128 0 -183.5 78.5t-55.5 241.5q0 10 0.5 31.5t0.5 32.5q0 18 -1.5 54.5t-1.5 54.5q0 20 2.5 60 t2.5 59q0 30 -2.5 90t-2.5 89q0 68 3 143q0 1 0.5 7t0.5 9.5t0.5 9.5t1.5 10t2 9.5t2.5 9t3.5 7t5 5t7 1.5q24 0 24 -43q0 -36 -3 -86t-3 -79q0 -31 3 -88.5t3 -86.5q-6 -132 -6 -224q0 -101 8 -165.5t36 -111.5q24 -40 66 -55.5t110 -15.5q49 0 71 0.5t59.5 8.5t54.5 24 q51 49 58 169q0 12 4 37.5t4 40.5q0 9 -0.5 27.5t-0.5 28.5q0 17 2 53t2 56q0 37 -1.5 112.5t-1.5 110.5q0 26 1.5 78.5t1.5 79.5q0 11 -1 38t-1 42q0 26 5 37.5t20 11.5q17 0 21 -12z" />
<glyph unicode="V" horiz-adv-x="788" d="M76 979q2 0 5.5 0.5t4.5 0.5q6 0 8 -5q67 -146 164.5 -456t154.5 -443q11 29 23.5 86.5t18.5 78.5q80 276 139 444q9 27 41.5 114t47.5 134q7 23 14 32t23 9q20 0 20 -22q0 -12 -5 -25.5t-12.5 -28.5t-10.5 -24q-11 -31 -29.5 -90.5t-25.5 -79.5q-25 -62 -60 -175 t-48 -150q-21 -60 -54 -184.5t-52 -181.5q-9 -16 -29 -16q-8 0 -13.5 2.5t-10.5 10t-7 11.5t-6.5 16t-5.5 16q-103 262 -191 569q-16 53 -52.5 145.5t-44.5 116.5q-2 7 -8.5 22.5t-10 27t-3.5 23.5q0 22 15 22z" />
<glyph unicode="W" horiz-adv-x="956" d="M101 988q10 0 17 -8t9.5 -22.5t3.5 -26.5t1.5 -29t0.5 -22q2 -29 10 -81t10 -69q63 -523 83 -664q34 38 94.5 122t94.5 123q33 58 69 73q6 0 13.5 -4t13.5 -8.5t14.5 -13.5t12 -14t12 -15.5t9.5 -11.5q32 -38 89.5 -112t81.5 -103q5 16 9 67q5 47 19.5 152t24 192.5 t11.5 161.5q1 41 9 116.5t10 107.5v16.5t0.5 17.5t1 16t2.5 16t5.5 12t9 8.5t12.5 2.5q20 0 20 -37q0 -53 -4.5 -119t-12.5 -145.5t-10 -112.5q-4 -53 -21 -172q-16 -92 -30 -233q-1 -11 -2 -36t-2 -45t-4 -41t-9.5 -33t-16.5 -12q-4 0 -8.5 2.5t-9 7.5t-7.5 9t-8 11.5 l-7 10.5q-44 59 -225 284q-11 -15 -35 -43.5t-35 -44.5q-11 -15 -31.5 -46t-31.5 -46q-5 -7 -18.5 -24.5t-22.5 -29t-22.5 -28.5t-23.5 -28t-21 -22t-20 -16.5t-16 -5.5q-3 0 -6.5 1t-5.5 2l-3 2q-9 9 -18 84q-4 35 -14.5 91.5t-13.5 85.5q-1 15 -5 55t-6 63 q-1 10 -5.5 29.5t-5.5 30.5q-15 156 -41 340q-12 87 -12 157q0 54 8 54h9z" />
<glyph unicode="X" horiz-adv-x="709" d="M352 544q41 53 121 186.5t90 149.5q1 2 19 34.5t32 48.5t27 16q7 0 13.5 -4.5t6.5 -12.5q0 -11 -3.5 -20.5t-14 -24.5t-11.5 -16q-133 -218 -255 -408q132 -258 231 -394q2 -4 14 -20t17.5 -26.5t5.5 -19.5q0 -7 -5 -15t-15 -8q-4 0 -9 3.5t-11 10t-11.5 13.5t-13 17.5 t-12.5 18t-12.5 18.5t-10.5 16q-17 24 -36 54.5t-31.5 51.5t-34.5 59t-32 55q-6 9 -27 51.5t-36 62.5q-26 -34 -105 -167q-7 -12 -49 -88.5t-70 -117.5q-5 -7 -13.5 -22t-14 -24t-15 -16.5t-18.5 -7.5q-18 0 -18 16q6 33 43 89t41 64q21 38 42 81q4 8 12.5 20t11.5 18 q2 3 21 36.5t37 56.5q6 12 32.5 51t35.5 65q-17 31 -48 88.5t-57.5 104.5t-52.5 87q-18 25 -48 74.5t-42 67.5q-22 33 -22 45q0 16 23 16q15 0 51 -58q11 -18 28 -41.5t30.5 -44t26.5 -43.5q21 -35 68.5 -120.5t73.5 -126.5z" />
<glyph unicode="Y" horiz-adv-x="679" d="M635 954q1 -2 1 -5q0 -7 -5 -17t-13 -24t-11 -19q-29 -56 -64.5 -115.5t-85.5 -141t-75 -122.5q-6 -10 -9.5 -18.5t-5 -19.5t-2 -15.5t0 -19.5t0.5 -18q0 -154 12 -401v-2q0 -15 -25 -15q-32 3 -31 323v11.5v9.5v10q0 15 0.5 42.5t0.5 40.5q0 6 -0.5 11.5t-1 10t-2 10 t-2 8.5t-3 8.5t-3.5 8t-4.5 9t-4.5 8.5t-5.5 10t-5.5 10q-31 55 -64.5 110t-87.5 138.5t-67 103.5q-26 40 -26 57q0 19 17 19q11 0 19 -6t11.5 -12t9.5 -18t9 -17q4 -7 15 -21.5t16 -22.5q19 -31 92.5 -147.5t106.5 -177.5q12 13 22.5 28.5t24.5 40t20 34.5q46 73 157 270 q31 57 49 57q10 0 20 -14z" />
<glyph unicode="Z" horiz-adv-x="728" d="M650 961q19 0 19 -20q0 -11 -17 -45q-46 -93 -131 -227q-15 -23 -47 -67t-47 -67q-5 -8 -13 -25t-13 -25q-20 -32 -68.5 -108.5t-72.5 -115t-60 -99t-65 -114.5q55 0 170 4.5t172 4.5h16.5h21h22.5t24.5 -1t22.5 -2t21 -2.5t16 -4t12 -6t4 -7.5q0 -10 -9 -18t-19 -8 q-17 0 -56.5 4t-58.5 4q-52 0 -162 -5t-165 -5q-4 0 -21.5 -0.5t-26 0t-21 2t-18 7t-5.5 13.5q0 11 18 45q24 45 46 80q16 25 43 74.5t42 72.5q14 22 46 66t48 69q5 8 13 24.5t13 24.5q30 50 86.5 137t100.5 159.5t79 140.5h-21q-52 0 -160 -4.5t-162 -4.5h-16.5h-21h-22.5 t-24 1t-22 2t-21.5 2.5t-16 4t-11.5 6t-4 7.5q0 10 9 17.5t19 7.5q19 0 57 -4t57 -4q53 0 163.5 5.5t164.5 5.5q24 0 72 -2z" />
<glyph unicode="[" horiz-adv-x="360" d="M173 1054v-406q-1 -55 -8 -214.5t-6.5 -268.5t11.5 -210q19 3 55 -6t43 -10q14 -2 31 -0.5t32 -2.5t16 -16q1 -13 -11.5 -19t-33.5 -5t-40.5 4t-39 7t-22.5 4q-6 1 -27 1.5t-28 2.5q-6 6 -10 14.5t-6 15t-4 19t-2.5 18.5t-1.5 21.5t-1 20.5q-3 30 -4 65.5t-0.5 60 t1.5 66.5t1 62q0 19 1 56.5t1 60.5q0 43 2 94t4.5 110.5t3.5 89.5q2 62 2 301q0 7 -0.5 21.5t-0.5 24t1 21t3 19t5 11.5q14 14 124 14h7q16 0 24.5 -0.5t21.5 -1.5t20 -5t8 -11q1 -5 0 -9t-4 -7t-6.5 -5t-9 -3t-10 -1.5t-12 -0.5h-12t-12 0.5t-10.5 0.5q-61 0 -96 -4z" />
<glyph unicode="\" horiz-adv-x="423" d="M351 -90q-14 35 -25 73.5t-23 88.5t-18 73q-49 130 -116 350q-4 13 -22 77.5t-30 97.5q-16 44 -40 132q-3 8 -9 22t-8 22q-4 12 -15 50t-20 60q-27 68 -42 109q-2 4 -5.5 15t-5.5 16q-1 3 -5.5 14.5t-7 19t-5 18t-1 18t6.5 11.5q14 10 20 7q21 -26 37 -79q12 -38 41 -116 t42 -118q32 -106 47 -159q42 -121 50 -156q20 -84 74.5 -241.5t74.5 -230.5q2 -9 9.5 -35t11.5 -43q1 -4 8 -27.5t7.5 -31t-1.5 -23.5q-6 -8 -13 -13t-11 -4.5t-6 3.5z" />
<glyph unicode="]" horiz-adv-x="367" d="M18 -86q-19 0 -19 20q0 8 4.5 12.5t11.5 5.5t16.5 1.5t19.5 -0.5t20 0q80 4 91 4q-8 181 4 677q5 202 3 418q-28 5 -78.5 4.5t-74.5 1.5q-12 2 -8 18q2 7 7.5 11t14.5 6t16 3t20 1.5t19 1.5q11 1 70 -2q46 0 54 -14q3 -5 4.5 -19t2 -36t0.5 -24q1 -30 -1.5 -80.5 t-2.5 -61.5q0 -19 1 -93.5t-1 -110.5q-11 -321 -12 -548q0 -10 3.5 -79t-1.5 -76q0 -3 -0.5 -10t-1 -11.5t-3 -9.5t-7.5 -7q-8 -4 -21 -5t-32 -0.5t-26 0.5q-62 -2 -93 2z" />
<glyph unicode="^" horiz-adv-x="565" d="M486 905q1 -8 -7.5 -17t-13.5 -10q-14 -2 -53 38q-74 67 -133 137q-55 -48 -143 -135q-36 -41 -50 -42q-7 0 -14 6.5t-8 12.5q0 6 8 15t21 20.5t14 12.5q16 17 163 164l22 5q60 -74 151 -162q1 -1 13 -11.5t20.5 -20t9.5 -13.5z" />
<glyph unicode="_" horiz-adv-x="763" d="M691 20q11 -8 11 -18t-10 -15q-68 -9 -256 -9q-47 1 -132.5 -1t-122.5 -2q-71 0 -84 17q-9 12 2 19q8 4 19 5t19 1t22 -0.5t21 -0.5q20 0 61.5 3t60.5 3q263 -3 340 1q39 2 49 -3z" />
<glyph unicode="`" horiz-adv-x="221" d="M71 1023q28 -61 45 -106q28 -72 28 -89q1 -23 -21 -20q-5 5 -10.5 13.5t-11 20t-9 20t-9 22.5t-7.5 20q-3 10 -15.5 37.5t-18 46.5t-1.5 32q6 8 15.5 9t14.5 -6z" />
<glyph unicode="a" horiz-adv-x="695" d="M525 413v19q0 21 1.5 59.5t1.5 57.5q0 42 -6.5 75.5t-24 66t-54.5 50.5t-91 18q-143 0 -202 -101q-4 -7 -9.5 -23.5t-10.5 -26t-13 -9.5q-7 0 -14.5 7t-7.5 19q0 56 62.5 109t135.5 61q27 3 53 3q122 0 184 -73q40 -48 38 -183v-88v-56.5v-59t0.5 -53.5t1.5 -57.5t3 -51 t5.5 -53.5t8 -47t10.5 -48q3 -6 3 -12q0 -13 -15 -13t-23 11.5t-13.5 35.5t-6.5 28q-43 -29 -63.5 -41.5t-66.5 -27.5t-96 -15q-92 0 -145 32q-46 27 -72.5 79t-26.5 109q0 48 30 108q6 15 20.5 29.5t26.5 23t33.5 21.5t27.5 17q76 37 181 37q21 0 44.5 -6.5t49.5 -16.5 t40 -14zM411 406q-6 2 -20 2q-93 0 -172 -34t-96 -95q-10 -38 -8 -66q3 -93 57 -135t138 -42q125 0 225 95q-6 45 -6.5 126.5t-1.5 104.5q-32 24 -116 44z" />
<glyph unicode="b" horiz-adv-x="685" d="M612 360q-2 -126 -24 -174q-6 -13 -16.5 -40t-17.5 -43t-21.5 -35.5t-33.5 -32.5q-22 -15 -65 -28t-78 -13q-62 0 -128 38q-30 16 -62 54.5t-40 44.5v-13v-34q0 -5 1 -22.5t1 -26.5q0 -24 -16 -24q-30 0 -30 53q0 6 0.5 18t0.5 17v25q-1 30 1.5 85t2.5 79q0 16 -1 46.5 t-1 45.5v61q0 19 -1.5 59t-1.5 60q0 15 2 45q0 13 -2 65.5t-2 82.5q0 40 2 86.5t6 100.5t5 82q0 5 -2 23.5t-2 28.5q0 31 16 31q6 0 11 -3.5t7.5 -10t4 -13t2 -16.5t1 -16.5t0 -16t-0.5 -12.5q0 -42 -5.5 -135t-5.5 -148l1 -33q73 91 169 91q109 0 187 -68t106 -163 q8 -25 13.5 -60.5t9.5 -78.5t7 -62zM548 175q22 56 22 171q0 89 -20 170.5t-52 131.5q-26 40 -85.5 74t-102.5 34q-10 0 -19.5 -0.5t-18 -2.5t-14.5 -3.5t-13.5 -5t-11 -5t-11 -7t-9.5 -7t-10 -8t-10 -7.5q-43 -38 -57 -74t-14 -97q0 -26 2.5 -78t2.5 -77q0 -10 -0.5 -27.5 t-0.5 -25.5q0 -9 0.5 -30.5t0.5 -32.5t-0.5 -33.5t-0.5 -32.5q8 -10 38.5 -53.5t52.5 -61.5q71 -57 146 -57q13 0 27 3q69 15 101 47t57 95z" />
<glyph unicode="c" horiz-adv-x="646" d="M565 204q4 -3 4 -11q0 -31 -28.5 -77.5t-57.5 -70.5q-60 -51 -172 -51q-70 0 -122.5 32t-82.5 89t-44 126.5t-14 152.5q0 149 50 249q34 68 92.5 118t128.5 50q89 -2 145 -36t82 -107q6 -14 6 -23q0 -18 -14 -18q-9 0 -12 6q-13 14 -35.5 45.5t-36.5 47t-44 29.5t-70 14 q-108 0 -179 -108q-33 -49 -51 -124.5t-18 -158.5q0 -95 38 -214q18 -57 66.5 -94t114.5 -37q36 0 77 9.5t61 26.5q15 12 34.5 38t27.5 42q3 7 8 24t11 26.5t17 9.5q6 0 18 -5z" />
<glyph unicode="d" horiz-adv-x="692" d="M603 107q1 -7 11 -35t10 -40q0 -20 -19 -20q-21 0 -33 44t-12 80q-6 -4 -12 -10t-15.5 -18.5t-10.5 -14.5q-37 -45 -93 -71.5t-106 -26.5q-34 0 -76 12.5t-66 28.5q-50 34 -81 133q-20 40 -20 69q0 2 -2 16t-4 28.5t-3.5 35t-1.5 35.5q0 17 0.5 35.5t7 65.5t17.5 87 t35.5 89t57 83t86 57.5t119.5 23.5q49 0 88.5 -21.5t79.5 -70.5l1 33v24q0 50 -5 135t-5 124q0 3 -0.5 12.5t0 16t1 16t2 16.5t4 13.5t7.5 10t11 3.5q15 0 15 -32q0 -10 -1.5 -28t-1.5 -23q1 -21 6.5 -114t5.5 -144q0 -9 -3 -159q2 -30 2 -45q0 -20 -1.5 -60t-1.5 -59v-61 q0 -15 -1 -45.5t-1 -46.5v-26v-35q0 -76 9 -121zM555 332q0 9 -0.5 26t-0.5 27q0 25 2.5 77t2.5 78q0 61 -14 97t-58 74q-19 16 -30.5 24t-35 15.5t-53.5 7.5q-43 0 -100.5 -34.5t-84.5 -74.5q-4 -6 -10.5 -21t-8.5 -19q-53 -102 -53 -263q0 -142 49.5 -228.5t155.5 -86.5 q76 0 147 57q23 18 54 62.5t38 52.5q-1 21 -1 67q0 43 1 62z" />
<glyph unicode="e" horiz-adv-x="656" d="M103 380q-1 -8 -1 -23q0 -57 16.5 -128.5t39.5 -103.5q57 -82 166 -82q61 0 131 17q16 4 27.5 11t17 12.5t19.5 21.5q14 14 29 14t15 -15t-20 -34.5t-37 -30.5q-54 -34 -185 -34q-64 0 -90 10q-49 18 -84.5 61.5t-51.5 97.5q-33 115 -33 208q0 131 55 252q31 62 95 114 t147 52q106 0 157.5 -80t51.5 -220q0 -4 1 -14.5t0.5 -16.5t-2 -13t-7.5 -11t-15 -5q-58 -9 -168.5 -22.5t-156.5 -20.5q-12 -2 -36 -6.5t-43 -7.5t-38 -3zM425 745q-33 13 -68 13q-61 0 -109 -31.5t-76.5 -83t-45 -107t-21.5 -113.5q298 42 426 55q-3 47 -5.5 72t-9.5 62 t-17 58.5t-29 42.5t-45 32z" />
<glyph unicode="f" horiz-adv-x="389" d="M386 751v-4q0 -23 -33 -30t-83.5 -6.5t-64.5 -2.5q2 -33 7 -95t8.5 -114.5t3.5 -98.5q0 -20 -2 -56.5t-2 -55.5q0 -29 1 -59.5t1 -34.5q0 -12 -1.5 -36.5t-1.5 -72.5q0 -88 -24 -88q-8 0 -15 7t-7 17q0 15 2 31l3 24l1 8q1 0 1 56q0 16 -2 55t-2 79q0 29 2.5 89t2.5 91 q0 45 -8 129.5t-9 119.5h-30q-10 0 -28.5 1t-27.5 1h-12q-32 0 -32 23q0 22 67 22q7 0 20 -0.5t19 -0.5q12 0 19 1q4 133 19 177q10 32 53 58.5t81 26.5q4 0 14 -0.5t16 -0.5l19 -6q6 -5 6 -10q0 -15 -17.5 -19t-44 -4.5t-35.5 -3.5q-23 -9 -37.5 -28.5t-20.5 -47t-7.5 -50 t-1.5 -52t-1 -38.5q13 3 39 3h33q9 0 38 3.5t46 3.5q27 0 28 -11z" />
<glyph unicode="g" horiz-adv-x="685" d="M583 54q0 -62 -31 -146q-33 -92 -111.5 -129t-204.5 -37q-46 0 -86 21q-36 14 -36 32t22 18q11 0 42 -14.5t66 -14.5q18 0 48 4q14 2 42 4.5t46.5 6t33.5 11.5q63 33 94 112t31 171v36q-6 -4 -11 -9.5t-11.5 -15t-10.5 -14.5q-34 -45 -91 -71.5t-106 -26.5 q-35 0 -77 12.5t-66 28.5q-48 32 -82 132q-15 29 -18 58q-13 52 -13 128q0 8 2.5 23.5t2.5 26.5q0 36 25 159q30 97 104.5 163.5t187.5 66.5q53 0 87 -19t69.5 -56.5t43.5 -72.5q8 -36 8 -86q0 -20 -1.5 -61t-1.5 -60q0 -7 0.5 -21t0.5 -20q0 -18 -1.5 -53.5t-1.5 -54.5 q0 -27 2 -81.5t2 -81.5v-20q0 -7 0.5 -24t0.5 -25zM534 408q0 22 2 66t2 65q0 61 -12 94t-54 70q-19 16 -29.5 23.5t-34 15t-53.5 7.5q-43 0 -99 -31.5t-84 -71.5q-74 -117 -74 -307q0 -143 49.5 -224.5t154.5 -81.5q74 0 144 55q23 18 52 60.5t37 51.5q0 14 -1 44t-1 45 q0 7 0.5 20.5t0.5 19.5t-0.5 17t-0.5 17q0 7 0.5 23t0.5 22z" />
<glyph unicode="h" horiz-adv-x="689" d="M130 681q9 6 22.5 21.5t20.5 21.5q36 30 89.5 49.5t111.5 19.5q74 0 133 -38t76 -106q7 -30 7 -88v-57v-16q0 -52 -1.5 -161.5t-1.5 -162.5q0 -24 2 -69t2 -71q0 -38 -22 -38q-25 0 -25 40q0 6 0.5 20t0.5 21q-3 234 -3 242q0 20 0.5 58.5t0.5 57.5v64q0 11 0.5 35.5 t0.5 37.5q0 90 -43 140t-128 50q-83 0 -164 -58t-81 -101v-17q0 -6 -1 -18.5t-1 -19.5q0 -8 0.5 -24t0.5 -25q0 -82 -6 -224.5t-6 -197.5v-42q0 -18 -4 -26t-20 -8q-18 0 -18 25q0 7 1 20t1 18q0 6 -1 16t-1 17q0 59 9 257q7 154 7 253q0 18 -1 53.5t-1 53.5q0 17 2.5 60.5 t2.5 65.5q0 11 -0.5 31.5t-0.5 30.5q0 6 0.5 18t0.5 18q0 20 -2 63.5t-2 66.5q0 56 20 56q14 0 18.5 -12.5t4.5 -39.5q0 -10 -0.5 -29t-0.5 -25q0 -19 1.5 -60t1.5 -62q0 -41 -1.5 -111t-1.5 -94z" />
<glyph unicode="i" horiz-adv-x="254" d="M100 1012q38 8 72 -12.5t40 -56.5q3 -19 -2 -40.5t-20 -29.5q-3 -1 -6.5 -4.5t-6.5 -4.5q-7 -4 -18 -7q-31 -7 -67 5t-49 31q-21 34 -0.5 73t57.5 46zM167 911q5 21 -6 41t-30 24q-22 4 -38.5 -9t-18.5 -31q-3 -29 22.5 -39t58.5 -5q9 5 12 19zM138 757v-525 q0 -12 -1 -38.5t-1 -42t3 -37t9 -38.5q5 -13 28 -41q3 -3 11 -10.5t13 -13.5t5 -11q0 -13 -17 -19q-29 -5 -67 54q-23 35 -28 93q-3 13 -0.5 94t2.5 97q0 33 -1 140t0 173t6 127q2 15 19.5 15t18.5 -17z" />
<glyph unicode="j" horiz-adv-x="252" d="M103 1011q38 7 71.5 -13.5t40.5 -55.5q3 -20 -2.5 -42t-20.5 -29q-2 -1 -5.5 -4t-6.5 -5q-10 -6 -19 -6q-30 -7 -66 5t-49 31q-21 34 -0.5 73t57.5 46zM170 909q4 22 -7 42t-29 24q-22 4 -38 -9t-19 -31q-4 -28 22 -38.5t59 -6.5q10 6 11 16q1 2 1 3zM117 772h16 q11 -5 11 -16q4 -75 3 -115t-4.5 -123.5t-4.5 -125.5q-1 -56 6 -248q0 -16 4 -81t2 -99q-5 -58 -34 -101q-22 -30 -52 -45q-45 -24 -89 -30q-72 -12 -69 27q1 6 18.5 9t43.5 5.5t40 7.5q47 15 61 29q51 47 33 219q-2 18 -2.5 38.5t-0.5 45.5v38q-4 120 -4 181q0 11 2 32 t2 31q0 50 3 154.5t3 150.5q-1 16 12 16z" />
<glyph unicode="k" horiz-adv-x="715" d="M154 471q8 -1 23 -1q101 0 175.5 43t119.5 111q46 68 59 114q1 3 3 22.5t8.5 27.5t22.5 8q15 0 15 -27q0 -71 -66 -160q-5 -6 -14 -19.5t-17 -24t-16 -18.5q53 -13 85 -45q23 -23 42 -58.5t19 -64.5q0 -31 1 -85t1 -83v-30q0 -18 0.5 -47t0.5 -42v-22q0 -6 1 -22t1 -24 q0 -36 -20 -36t-20 12q-5 117 -5 243q0 17 0.5 48.5t0.5 46.5q0 76 -46 128q-40 45 -78 45q-18 0 -56 -23t-56 -29q-8 -2 -33.5 -10.5t-38 -12t-35 -7t-43.5 -3.5q-10 0 -32 2q-9 -81 -9 -184q0 -38 2 -115.5t2 -118.5q0 -20 -23 -20q-20 0 -20 68v19q0 21 -1 81t-1 88 q0 72 2 108q11 185 13 503q0 23 -0.5 70t-0.5 71q0 10 -2.5 40.5t-2.5 46.5q0 49 24 49q19 0 19 -38q0 -9 -0.5 -27t-0.5 -28q0 -33 3.5 -105.5t3.5 -112.5q0 -70 -4.5 -194t-5.5 -158z" />
<glyph unicode="l" horiz-adv-x="252" d="M144 1086v-661q0 -6 -1 -65t-1 -103.5t3 -94t9 -66.5q6 -14 28 -41q3 -3 11 -10.5t13 -13.5t5 -11q0 -7 -6.5 -12.5t-10.5 -5.5q-29 -6 -67 53q-23 34 -28 93q-2 48 -1.5 106t2 147.5t1.5 109.5q0 21 -1 171t0 247t6 158q2 16 19.5 16t18.5 -17z" />
<glyph unicode="m" horiz-adv-x="857" d="M78 791q17 4 25.5 -6t14 -34t8.5 -30q27 35 87.5 58t114.5 11q83 -19 117 -109q27 50 107.5 84t146.5 4q29 -13 49 -51t25 -83q2 -11 0 -61.5t-2 -62.5q0 -34 -2.5 -113t-2.5 -118q0 -112 -2 -148q-1 -19 1.5 -52.5t1.5 -47.5q0 -14 -7 -27.5t-22 -8.5q-5 2 -8 6t-4 11 t-1.5 14t-0.5 18.5v19.5q-1 32 -1 90v84q-1 51 3 161t4 151q0 96 -14 130q-10 24 -42.5 38t-69.5 11q-66 -6 -145 -97q4 -28 6.5 -57.5t3 -65.5t0.5 -59t-1 -67.5t-1 -62.5q0 -166 1 -196q0 -7 1.5 -29t1 -33.5t-2.5 -27t-9 -23t-19 -7.5q-6 0 -9 4.5t-4 12.5t-1 16v19.5 v17.5q0 15 1 42.5t1 37.5q-3 120 -3 134q-1 61 0 127q3 45 1 113t-14 113q-12 51 -56 86.5t-101 19.5q-75 -20 -91 -44q-3 -4 -8.5 -12.5t-8.5 -13.5t-6.5 -13.5t-5.5 -17.5q1 -23 4.5 -71t4.5 -72q2 -54 2 -184t3 -197q0 -6 2.5 -35.5t2.5 -37t-2 -37.5q-3 -9 -14 -11 t-18 4q-7 5 -9 19.5t-1 31.5t-1 37q-4 40 -1 198q0 188 -16 372q-2 32 -7 59q-2 8 -5.5 18t-7 17t-5 14t1 11.5t9.5 7.5z" />
<glyph unicode="n" horiz-adv-x="652" d="M567 592q0 -42 -8 -140t-8 -144q0 -26 3.5 -92.5t3.5 -97.5q0 -5 0.5 -25t0.5 -32t-2 -28t-7 -24t-13 -8q-23 0 -23 51q0 12 1.5 33t1.5 28q-1 23 -4 102.5t-3 123.5q0 39 6 106.5t6 102.5q0 69 -15 104q-20 43 -62 69t-93 26q-77 0 -137 -54q-58 -51 -75 -96 q2 -70 2 -104q0 -58 -4.5 -174t-4.5 -175q0 -13 1 -42t1 -44v-7v-7.5v-7.5t-0.5 -7.5t-1.5 -6.5t-3 -6.5l-4 -5t-5 -3.5t-7 -1q-23 0 -23 36q0 6 0.5 21.5t0.5 23.5q0 7 -0.5 20t-0.5 19q0 50 5 161t5 167q0 15 0.5 64.5t0 72t-2.5 58.5t-6 64q-2 11 -9.5 29.5t-7.5 25.5 q0 15 19 15q13 0 20 -11.5t11.5 -33t7.5 -28.5l3 -42q94 119 216 119q86 0 147 -53t67 -142z" />
<glyph unicode="o" horiz-adv-x="627" d="M563 504q5 -29 5 -77q1 -86 -43 -230q-32 -101 -51 -128q-51 -74 -173 -74q-74 0 -119 30q-59 39 -95 132t-36 194q0 97 44 225q33 95 99.5 156t164.5 61q153 0 204 -289zM530 385v21q0 35 -7.5 85.5t-24.5 114t-54.5 106.5t-88.5 43q-174 0 -233 -232q-2 -8 -10 -39 t-11.5 -46t-7.5 -40t-4 -45q0 -131 54 -226.5t141 -95.5q57 0 91.5 11t51.5 28.5t33 50.5q2 4 20.5 54t24.5 69.5t15 61t10 79.5z" />
<glyph unicode="p" horiz-adv-x="679" d="M82 105v20q0 28 2 82.5t2 81.5q0 18 -1.5 54t-1.5 54q0 7 0.5 20t0.5 20q0 20 -1.5 61t-1.5 61q0 50 8 86q8 35 44 73t70 56q37 19 86 19q43 0 80.5 -9.5t65.5 -25t51.5 -39.5t39.5 -48t29.5 -56t21 -57t14.5 -58.5t9.5 -53.5l6 -48t4.5 -37v-8q0 -83 -13 -128 q-2 -17 -18 -57q-34 -101 -81 -132q-25 -16 -67 -28.5t-77 -12.5q-50 0 -106.5 27.5t-90.5 70.5q-4 5 -10.5 14.5t-11.5 15t-11 9.5v-178q0 -49 2.5 -113.5t2.5 -79.5q0 -36 -6.5 -50.5t-24.5 -14.5q-17 4 -17 333v50v26zM125 203q8 -9 38 -53t53 -62q73 -57 146 -57 q36 0 111 33q49 41 72.5 108t23.5 175q0 189 -72 302q-25 40 -84 74t-102 34q-104 0 -165 -95q-25 -40 -25 -122q0 -21 2 -64.5t2 -64.5q0 -17 1 -26q0 -10 -0.5 -27.5t-0.5 -25.5q0 -9 0.5 -30t0.5 -32q0 -12 -0.5 -34.5t-0.5 -32.5z" />
<glyph unicode="q" horiz-adv-x="692" d="M645 -255q4 -5 4 -11q0 -9 -6.5 -14.5t-15.5 -5.5q-78 0 -78 361v57q-6 -4 -11 -10t-11.5 -15t-10.5 -14q-34 -43 -91 -70.5t-106 -27.5q-35 0 -77.5 12.5t-66.5 28.5q-47 31 -81 132q-14 29 -18 57q-12 70 -13 110v18q0 8 1 15.5t2 17.5t2 18q0 43 8.5 90.5t31 102 t57 97t91.5 71t129 28.5q49 0 86 -19q34 -18 70 -56t44 -73q8 -36 8 -86q0 -20 -1.5 -61t-1.5 -61q0 -7 0.5 -20t0.5 -20q0 -18 -1.5 -54t-1.5 -54q0 -23 2 -69t2 -70q0 -14 -0.5 -40.5t-0.5 -38.5q0 -71 5 -123q1 -12 3 -39.5t3 -39.5t4 -33t7.5 -33.5t12.5 -28.5t19 -29z M458 88q23 18 53 62t38 53q0 15 -0.5 45t-0.5 44q0 7 0.5 20.5t0.5 19.5q0 8 -0.5 25.5t-0.5 27.5q1 9 1 26q0 21 2 64.5t2 64.5q0 82 -25 122q-23 38 -64.5 66.5t-100.5 28.5q-43 0 -102 -34t-84 -74q-72 -110 -72 -302q0 -108 23.5 -175t72.5 -108q75 -33 111 -33 q73 0 146 57z" />
<glyph unicode="r" horiz-adv-x="451" d="M119 676q28 57 80.5 94t123.5 37q21 0 44.5 -7.5t23.5 -20.5q0 -7 -8 -16t-19 -9q-9 0 -24 4.5t-24 4.5q-71 0 -121.5 -53t-50.5 -114q0 -20 7.5 -59.5t8.5 -53.5q5 -65 5 -128q0 -23 -1 -69t-1 -68q0 -6 0.5 -18t0.5 -18q0 -19 -1.5 -58.5t-1.5 -60.5q0 -11 1.5 -33 t1.5 -33q0 -20 -23 -20q-4 0 -7.5 2t-5.5 7t-4 9.5t-2.5 12.5t-1.5 13.5t-1 14v13.5v13v10q0 20 1.5 62t1.5 64v66.5v69t-1 62.5t-2.5 65t-5 56.5t-8.5 58.5t-13 50t-18 50q-2 5 -7.5 14.5t-9.5 17t-4 13.5q0 8 6.5 12.5t11.5 4.5q4 0 8 -2t8 -6.5t7 -8t7.5 -11t6.5 -11.5 t6 -12.5t5 -10.5z" />
<glyph unicode="s" horiz-adv-x="587" d="M430 371q78 -62 78 -163q0 -68 -52 -145q-56 -79 -169 -79h-4q-57 0 -109.5 31.5t-84.5 78.5q-21 31 -21 46q0 7 6 15t16 8q7 0 12.5 -7t10.5 -19.5t7 -15.5q21 -37 67 -64t90 -27q87 0 136.5 49.5t49.5 129.5q0 5 -1 17t-1 18q-4 17 -11 32t-13.5 26.5t-20.5 23 t-21 18.5t-27 16.5t-27 13.5t-32 12.5t-31 10.5t-35.5 11t-34.5 10q-60 17 -79 31q-25 17 -44 53.5t-19 71.5q0 46 20.5 81t59.5 73q14 13 34.5 27t61.5 29.5t81 15.5q38 0 81 -26q23 -14 51.5 -52t28.5 -58q0 -8 -5 -14t-10 -6q-4 0 -17 15q-9 10 -24.5 31t-26.5 34 t-34.5 24t-55.5 11q-55 0 -108 -37.5t-73 -85.5q-2 -5 -7.5 -15t-8.5 -18.5t-3 -16.5q0 -35 14 -64.5t37 -39.5q19 -6 60.5 -19.5t60 -20.5t48.5 -18.5t53 -24t46 -28.5z" />
<glyph unicode="t" horiz-adv-x="306" d="M131 991q28 0 28 -65q0 -20 -1 -61t-1 -61q28 -4 43 -4q6 0 20.5 1t23.5 1q32 0 47 -3.5t15 -16.5q0 -27 -83 -27q-36 0 -66 3q-1 -31 -1 -93q0 -55 2 -173.5t2 -183.5q0 -12 -0.5 -38t-0.5 -39q0 -85 12 -137t49 -67q6 -3 20.5 -4t21.5 -5t7 -15q0 -19 -33 -19 q-91 0 -109 132q-6 43 -7.5 98t-2 127.5t-1.5 113.5q-2 78 -2 117v123v67q-9 3 -42 7t-54 10.5t-23 18.5q1 23 32 23q15 0 46.5 -6.5t41.5 -6.5q2 34 2 49q0 12 -0.5 34.5t-0.5 33.5v9.5v12t0.5 12t1.5 12.5t2.5 10t4 7.5t6.5 2.5z" />
<glyph unicode="u" horiz-adv-x="692" d="M590 52q1 -2 6.5 -14.5t5.5 -19.5q0 -9 -6.5 -15t-15.5 -6q-14 0 -22.5 16t-15 45t-9.5 37q-11 -12 -25 -23.5t-23.5 -18.5t-28.5 -20t-28 -19q-38 -27 -88 -27q-69 -1 -129 32t-82 74q-15 29 -23.5 71t-9.5 73t-1.5 93t-1.5 88q-8 229 -8 267v18.5v23v23t1 23t3 19t5 14 t7 4.5q13 0 19 -7t6.5 -13.5t0.5 -21.5q0 -10 -1.5 -30t-1.5 -28q0 -20 2.5 -65.5t2.5 -68.5v-42q0 -32 2 -59q2 -35 2.5 -117.5t7 -137t24.5 -97.5q19 -37 68 -66t97 -29q54 0 112 46q5 4 87 79q-5 47 -5 114q0 35 2 106t2 108q0 39 -5 121.5t-5 134.5v8v14q0 49 19 49 q25 0 25 -40q0 -6 -0.5 -18t-0.5 -17q-1 -54 4.5 -144t5.5 -140q0 -33 -2 -102t-2 -103q0 -120 23 -192z" />
<glyph unicode="v" horiz-adv-x="593" d="M548 800q8 -8 8 -23q0 -13 -12 -51q-10 -31 -34.5 -98.5t-42.5 -124t-29 -105.5q-22 -100 -97 -308q-3 -9 -8.5 -31.5t-12.5 -36.5t-20 -23q-3 0 -4 1q-1 -1 -4 -1q-14 9 -21 22.5t-12 37.5t-8 31q-72 200 -96 308q-11 47 -50 168q-8 25 -27 72.5t-30.5 82t-11.5 56.5 q0 20 14 27q11 0 19 -9.5t12 -20.5t9 -29t8 -26q38 -106 102 -320t96 -304q32 90 96 304t102 320q2 4 9.5 32t15.5 40.5t21 12.5q4 0 8 -4z" />
<glyph unicode="w" horiz-adv-x="804" d="M169 791q1 -3 1 -10q0 -12 -4.5 -31.5t-12.5 -46.5t-11 -39q-28 -119 -28 -261q0 -74 7.5 -135t25 -113.5t50.5 -82t78 -29.5q54 4 90 96q4 9 6.5 18t4.5 21t3.5 18t2 22t1 20.5t1 25.5t0.5 26v17.5t0.5 20.5t2 16t5.5 13.5t10 4.5q17 0 22.5 -19t5.5 -63q0 -71 -27 -157 q11 -32 41.5 -54t68.5 -22q48 0 81.5 31.5t49.5 84.5t22.5 105t6.5 110q0 46 -6 103t-10.5 84.5t-19 100.5t-15.5 78q-8 24 -8 30q0 16 16 19q41 0 76 -233q13 -86 13 -176q0 -376 -222 -376q-10 0 -20 2t-17 4t-16.5 7.5t-14.5 8.5t-14 11t-12 10.5t-12.5 12l-11.5 11.5 q-1 -1 -14.5 -19.5t-18.5 -22.5t-17.5 -15.5t-26 -15t-29.5 -3.5q-55 0 -95.5 33.5t-62.5 91.5t-32.5 125t-10.5 144q0 252 67 403q5 7 11 7q10 0 19 -12z" />
<glyph unicode="x" horiz-adv-x="629" d="M315 420q15 17 27.5 38.5t26.5 48.5t23 42q10 16 38 57t41 65q1 2 23.5 43.5t38 64t26.5 22.5q7 0 14 -5.5t7 -11.5q-7 -24 -45 -87q-13 -21 -47.5 -76t-53.5 -88q-73 -124 -97 -156q41 -76 63 -115t62.5 -103t77.5 -109q24 -29 24 -45q0 -6 -5 -13t-14 -7q-6 0 -15.5 8 t-19 19.5t-20.5 27t-18.5 27.5t-15.5 24.5t-9 13.5q-5 8 -33.5 51.5t-39 61.5t-30 51.5t-33.5 62.5q-31 -41 -98.5 -149t-110.5 -161q-1 -2 -4.5 -6t-5.5 -6.5t-5.5 -6t-6 -5.5t-5.5 -3.5t-6 -1.5q-9 0 -14.5 7t-5.5 12q0 6 5 13.5t13 17.5t11 15q10 15 43.5 61.5t48.5 73.5 q16 29 58.5 90t58.5 94q-155 292 -196 363q-21 33 -21 42q0 14 17 14q10 0 22.5 -12.5t26.5 -36t25.5 -44.5t26.5 -51t22 -43q22 -41 57.5 -104t47.5 -85z" />
<glyph unicode="y" horiz-adv-x="712" d="M601 623q-2 -72 -2 -108q0 -60 2.5 -180t2.5 -181q0 -132 -32 -221q-18 -50 -47.5 -83.5t-72 -50.5t-88 -24t-106.5 -7q-40 0 -63 12l-25 8q-32 14 -32 33q0 17 23 17q11 0 42 -14.5t65 -14.5q117 0 170 27q126 66 126 289q0 5 -0.5 15t-0.5 14q-19 -38 -29 -50 q-100 -121 -212 -121q-50 0 -97 24.5t-78 63.5q-8 10 -13 21.5t-10.5 28l-7.5 22.5q-36 92 -36 209q0 42 6 128q0 1 1.5 20.5t3.5 47t5 62.5t7.5 68t9.5 61t12 45t14 17t13 -6.5t6 -14.5q0 -4 -2 -12.5t-2 -10.5q-31 -198 -31 -396q0 -106 20 -171q6 -20 13.5 -38.5 t23.5 -44t35.5 -44t50.5 -31.5t67 -13q29 0 68 18.5t59 40.5q80 87 103 165q0 38 -4 135t-4 151q0 21 2 63t2 67q0 10 -4.5 48t-4.5 58t5 29t19 9q16 0 16 -10q1 -14 6 -69t5 -86v-15z" />
<glyph unicode="z" horiz-adv-x="639" d="M512 47h5q16 0 25 -0.5t18.5 -5.5t9.5 -15q0 -25 -51 -25q-17 0 -49.5 1t-42.5 1q-13 -1 -68 -4.5t-85 -3.5q-83 0 -191 6q-15 1 -15 13q-1 8 20 60q34 86 110 238q6 11 57 92q117 183 253 342h-18q-18 0 -57 0.5t-59 0.5q-22 0 -63.5 -2t-64.5 -2q-14 0 -42 1t-41 1 q-7 0 -20 -0.5t-20 -0.5q-35 0 -37 17v4q3 18 46 18q14 0 42 -1.5t41 -1.5q27 0 82 3t83 3q18 0 55 -1t56 -1q9 0 26.5 1t26.5 1q27 0 27 -28q0 -6 -3 -12t-6.5 -9.5t-11.5 -11t-11 -10.5q-17 -17 -44.5 -53t-37.5 -48q-13 -15 -25.5 -29.5t-25.5 -32t-22 -29t-23.5 -33.5 t-20 -30t-22 -34t-19.5 -31t-21.5 -35t-20.5 -33q-79 -128 -135 -287q54 -2 83 -2q55 0 161 4t146 5z" />
<glyph unicode="{" horiz-adv-x="341" d="M149 511q54 -40 57 -133q1 -33 -6 -104t-7 -101q0 -129 10 -169q7 -29 20 -47q4 -7 25.5 -19.5t22.5 -20.5q1 -10 -6 -17.5t-16 -8.5q-11 0 -33 15t-29 25q-9 12 -19 39.5t-12 46.5q-1 6 -2 21.5t-2 22.5q-2 20 -2 58.5v48.5q0 13 3.5 36.5t3.5 34.5q1 13 1 39.5t1 39.5 q8 102 -19 139q-6 9 -22.5 17t-20.5 16q-5 9 3 23.5t21 30.5t16 23q11 29 15 62q4 29 4 138q0 117 1 141q1 11 1.5 43.5t2 47t6 38t13 38.5t22.5 26q23 16 45 18q52 9 52 -18q0 -10 -14.5 -15t-32.5 -8t-22 -5q-11 -7 -17.5 -22t-9 -34t-3.5 -42t-0.5 -45.5t-0.5 -43.5 q-1 -26 0 -128t-4 -129q-6 -63 -46 -118z" />
<glyph unicode="|" horiz-adv-x="252" d="M115 -108q-8 8 -12 19.5t-3.5 23.5t0.5 28q2 68 2 278.5t1 279.5q1 32 -3 177t-4 171q0 119 -1 132q-10 90 13 93q6 1 10.5 0t7.5 -4.5t5 -7t2.5 -10t1 -11t1 -13.5t0.5 -14q1 -8 3 -23t2 -19q2 -33 2 -177t1 -174q2 -24 2 -51.5t-1 -63.5t-1 -58q0 -428 -3 -493 q0 -8 1.5 -25.5t1.5 -30.5t-5 -18q-12 -14 -24 -9z" />
<glyph unicode="}" horiz-adv-x="342" d="M91 -95q-1 12 2.5 17.5t14.5 9.5t16 7q11 7 18 19.5t9 31t2.5 31.5t-1 38.5t-1.5 34.5q0 22 1 70t1 73v81t1.5 88.5t9.5 64t24 60.5q-4 6 -13 17t-14.5 20.5t-9.5 21.5q-1 5 -2 14.5t-2 14.5q-1 4 -2.5 17.5t-1.5 14.5q-2 17 2 90q2 23 1.5 95t-0.5 91q1 29 0.5 54.5 t-8 50t-23.5 39.5q-6 6 -24 10t-24 6q-11 4 -15 12.5t1 16t18 9.5q37 4 74 -21q46 -33 48 -143q2 -151 -5 -241q-8 -101 20 -141q4 -6 13 -13.5t15.5 -13t6.5 -9.5q1 -8 -13.5 -25t-15.5 -20q-11 -23 -15.5 -59t-4 -65t2 -80t1.5 -76q0 -30 -1 -80t-1 -71q1 -57 -7.5 -93.5 t-35.5 -59.5q-16 -15 -32.5 -18.5t-29.5 9.5z" />
<glyph unicode="~" horiz-adv-x="788" d="M700 598q0 -6 -8 -15t-20 -19.5t-15 -13.5q-157 -168 -172 -168q-13 0 -50 37q-76 71 -133 138q-66 -60 -142 -136q-40 -40 -50 -41q-8 0 -15 6t-8 13q0 5 8 14.5t21 21.5l14 12q24 25 163 164l22 4q42 -51 170 -179v4q63 56 143 136q1 1 9.5 10t14 14.5t13.5 11t13 5.5 q7 0 14 -6t8 -13z" />
<glyph unicode="&#xde;" horiz-adv-x="916" d="M819 230v-15q0 -9 0.5 -27.5t0.5 -27.5q0 -54 -15 -108q-10 -36 -37 -61q-51 -45 -105 -45q-12 0 -40 5t-63.5 14.5t-62 28.5t-26.5 43q0 19 22 19q6 0 14 -6t18 -15.5t15 -12.5q49 -35 120 -35h9q56 12 81.5 44.5t25.5 110.5q0 8 -0.5 23t-0.5 23q0 4 0.5 10t0.5 9 q-58 -77 -155 -77q-48 0 -80.5 20.5t-48 59t-21 79t-5.5 95.5q0 28 0.5 84.5t0.5 83.5q0 57 -4 95.5t-16 75t-36.5 59t-62.5 34.5q-32 12 -81 12q-58 0 -110 -31t-52 -75q0 -20 12.5 -56t13.5 -41q15 -61 15 -141q0 -53 -10 -165q-3 -28 -5.5 -124.5t-10.5 -146t-27 -49.5 q-21 0 -21 42q0 12 2 30q27 270 27 399q0 81 -15 145q-2 8 -14.5 40.5t-12.5 54.5q0 62 34 94q24 24 79.5 46t103.5 22q42 0 100 -18q77 -24 107 -90.5t30 -170.5q0 -19 -1 -58t-1 -59q0 -149 8 -195q19 -103 96 -109h11q86 0 152 104q4 112 4 233q0 46 -1.5 149t-1.5 165 q0 40 19 40q8 0 13.5 -9t9 -27.5t5 -38t2 -49t0.5 -51t-0.5 -52.5t-0.5 -47q0 -180 -8 -359z" />
<glyph unicode="&#xe0d;" horiz-adv-x="916" d="M819 230v-15q0 -9 0.5 -27.5t0.5 -27.5q0 -54 -15 -108q-10 -36 -37 -61q-51 -45 -105 -45q-12 0 -40 5t-63.5 14.5t-62 28.5t-26.5 43q0 19 22 19q6 0 14 -6t18 -15.5t15 -12.5q49 -35 120 -35h9q56 12 81.5 44.5t25.5 110.5q0 8 -0.5 23t-0.5 23q0 4 0.5 10t0.5 9 q-58 -77 -155 -77q-48 0 -80.5 20.5t-48 59t-21 79t-5.5 95.5q0 28 0.5 84.5t0.5 83.5q0 57 -4 95.5t-16 75t-36.5 59t-62.5 34.5q-32 12 -81 12q-58 0 -110 -31t-52 -75q0 -20 12.5 -56t13.5 -41q15 -61 15 -141q0 -53 -10 -165q-3 -28 -5.5 -124.5t-10.5 -146t-27 -49.5 q-21 0 -21 42q0 12 2 30q27 270 27 399q0 81 -15 145q-2 8 -14.5 40.5t-12.5 54.5q0 62 34 94q24 24 79.5 46t103.5 22q42 0 100 -18q77 -24 107 -90.5t30 -170.5q0 -19 -1 -58t-1 -59q0 -149 8 -195q19 -103 96 -109h11q86 0 152 104q4 112 4 233q0 46 -1.5 149t-1.5 165 q0 40 19 40q8 0 13.5 -9t9 -27.5t5 -38t2 -49t0.5 -51t-0.5 -52.5t-0.5 -47q0 -180 -8 -359z" />
<glyph unicode="&#xff;" horiz-adv-x="1942" d="M1620 1414q-28 32 -80.5 82t-59.5 50q-5 0 -13 -2t-12 -2q12 -13 45.5 -44t53.5 -53t28 -38q-24 -64 -75 -185t-70 -170q-20 -58 -69 -170.5t-69 -172.5q-1 -8 -8 -20t-9 -18q-7 -21 -29 -75t-26 -71q-16 -31 -40.5 -94.5t-35.5 -88.5q-3 -9 -15.5 -38t-18.5 -46t-6 -24 h40q16 47 52 129.5t43 100.5q5 10 13 33.5t15 35.5q58 175 126 325q14 31 28 77q3 9 11 25.5t10 21.5q7 18 18.5 49.5t18.5 51t17.5 45t21.5 46.5q15 44 48 122.5t47 117.5zM711 1225q-5 -2 -15.5 -2.5t-14.5 -2.5q15 -14 45 -46.5t46 -47.5q2 -2 13 -11.5t16 -16t5 -13.5 q0 -6 -10 -28q-17 -56 -57 -150t-58 -153q-11 -31 -20 -45q-28 -74 -33 -92q-2 -5 -7.5 -12.5t-6.5 -11.5q-10 -30 -38.5 -91.5t-37.5 -93.5q4 0 17 1t21 1q33 106 53 153q37 62 61 140q34 68 82.5 201.5t70.5 184.5q-33 39 -55 61q-13 10 -37 38t-40 37zM984 583 q-35 -5 -44 -5q-10 0 -15 0.5t-9 5t-4 13.5t12 35q17 52 38 100q6 13 24 60t30 69q-12 16 -27 31.5t-34.5 33.5t-29.5 29q-19 21 -29 27q-17 -54 -35 -88.5t-20 -52.5q-6 -12 -13.5 -30.5t-13.5 -31.5t-10 -16q-13 -41 -44.5 -118.5t-35.5 -86.5q-63 -165 -75 -165 q-8 0 -8 6q0 4 3 10t3 7q14 41 48 123.5t50 128.5q14 42 48.5 118.5t47.5 112.5q4 14 23 58q18 45 27 56q13 0 31 3t29 3q19 -13 44.5 -39.5t31.5 -31.5q18 -15 44.5 -45.5t26.5 -35.5q0 -6 -16 -35q-33 -92 -41 -108q-10 -21 -27.5 -70.5t-29.5 -70.5zM979 967 q9 -9 44.5 -45t51.5 -55q-18 -44 -52.5 -133.5t-52.5 -133.5q-4 1 -13 1q-4 0 -11.5 -0.5t-11.5 -0.5q3 15 8.5 30t14.5 34t13 30q8 21 24 61t23 61l8 18q8 19 8 29q0 12 -18.5 33.5t-57 57t-44.5 41.5q4 0 13.5 2t14.5 2q9 0 38 -32zM1075 867q-34 41 -78.5 86.5 t-55.5 45.5q-5 0 -14.5 -2t-13.5 -2q4 -4 13.5 -12.5t17 -16t12.5 -15.5q25 -19 51 -46t26 -42q0 -8 -3 -16t-7 -17t-6 -14q-7 -21 -23 -61t-24 -61q-31 -71 -36 -94q4 0 11.5 0.5t11.5 0.5q9 0 13 -1q18 44 52.5 133.5t52.5 133.5zM1222 221q0 16 15 53t18 50 q12 26 48 117.5t61 136.5q16 10 17 10q8 0 30 -21t42 -43l20 -23q85 -79 177 -178q10 -11 33.5 -32t38 -36t14.5 -25q0 -5 -14 -12.5t-21 -7.5q-12 0 -40.5 2.5t-38.5 2.5h-61q-23 0 -73.5 2t-74.5 2q-30 0 -87.5 -3t-84.5 -3q-12 0 -19 8zM1365 536q9 13 14 27 q6 -5 16 -14.5t18.5 -17.5t15.5 -15q42 -42 123.5 -124t109.5 -110q5 -5 16 -14.5t18 -17t11 -16.5q-39 0 -40 13q-18 15 -47 45t-39 40q-22 13 -43 36q-9 17 -28 27q-49 56 -114 114l-12.5 12.5t-18.5 14.5zM1246 234q4 1 12 1q4 0 13 -1t14 -1q23 0 65.5 3.5t63.5 3.5 q39 0 116 -3t116 -3q-32 38 -95 95.5t-86 81.5q-76 81 -109 105q-90 -223 -110 -282zM1379 563q-5 -14 -14 -27q8 -4 18.5 -14.5l12.5 -12.5q15 -13 40 -38.5t31 -30.5q4 -4 13 -14t15.5 -16.5t14 -13t13.5 -7.5q3 -9 22.5 -28.5t35.5 -28.5q10 -10 39 -40t47 -45 q1 -13 40 -13q-4 9 -11 16.5t-18 17t-16 14.5q-29 29 -89 90.5t-105.5 106.5t-88.5 84zM880 374q-24 0 -34 2q-10 -21 -20 -46.5t-21 -56.5t-17 -46q3 1 17.5 1t18.5 1q4 11 24 65t32 80zM1587 127h-8q-27 0 -27 -17q0 -9 14 -9.5t16 -5.5q0 -9 -3 -14t-5.5 -5.5t-11 -1 t-11.5 -0.5q-2 -18 -2 -25q0 -9 1 -27t1 -28q0 -22 -20 -22q-3 0 -5 8.5t-3 23t-1 27t0.5 27t0.5 16.5h-10.5t-8.5 1v9.5t1 6t1.5 4t3 2.5t3 1t5.5 0.5t7 0.5q2 6 4 19t4 18t10 10t22 5q25 0 25 -12zM1538 133q-4 -6 -5 -22.5t-8 -21.5q-2 1 -8 1q-4 0 -5.5 -0.5t-1.5 -2 v-3.5v-3q18 -2 19 -7v-6q0 -88 5 -88q2 0 4 1t4 1h2v46.5t-1 46.5q3 7 12 7q2 0 8 -0.5t9 -0.5q3 5 3 9v4q-4 -2 -14 -2q-17 0 -17 6q0 17 9 25t18.5 10.5t10.5 5.5q-8 5 -21 5q-17 0 -23 -11zM337 142q-1 -4 -2.5 -11.5t-3.5 -12.5t-6 -8q-6 3 -11 3q-11 0 -11 -12 q0 -5 3.5 -5.5t7.5 0t7.5 -3.5t3.5 -13q0 -7 -3.5 -10t-10.5 -4t-11 -3q-1 -11 -1 -33v-26q0 -3 0.5 -11.5t0 -11t-2.5 -7t-7.5 -5.5t-14.5 -1q-15 0 -15 40q0 7 0.5 21.5t0.5 22.5v15q-1 0 -5 -0.5t-6 -0.5q-4 0 -7 3v6v7t1 5.5t3 4.5t6 2.5t10 1.5q0 1 -0.5 3t-0.5 3 q0 20 15.5 33t35.5 13q14 0 24 -5zM283 131q-7 -7 -9.5 -18.5t-6.5 -18.5t-16 -7q-1 -2 -1 -7v-8h8q8 0 10 -3q0 -97 4 -97q2 0 6.5 1t7.5 1q5 0 7 -1q0 9 -0.5 27t-0.5 26v10.5v10.5t1 9t3 8.5t6 5t10 2.5h4q1 1 1 4q0 6 -3.5 8t-7.5 1.5t-7.5 2.5t-3.5 10q0 9 5 15.5 t13 6.5q3 0 9 -2q6 8 6 21q-8 2 -12 2q-6 0 -33 -10zM1582 139q-8 5 -21 5q-17 0 -22.5 -11t-6.5 -25.5t-7 -18.5q-2 1 -8 1t-7 -1q0 -9 9.5 -8.5t9.5 -6.5v-6q0 -88 5 -88q2 0 4 1t4 1h2v46.5t-1 46.5q3 7 12 7q2 0 8 -0.5t9 -0.5q3 5 3 9v4q-4 -2 -14 -2q-8 0 -17 3 q0 20 9 28t18.5 10t10.5 6zM328 139q-8 2 -12 2q-20 0 -29.5 -7.5t-15 -26t-6.5 -20.5q-7 0 -10 -1t-4 -1.5t-1 -5v-7.5h8q12 0 10.5 -50t3.5 -50q2 0 6.5 1t7.5 1q5 0 7 -1q0 9 -0.5 27t-0.5 26v10.5v10.5t1 9t3 8.5t6 5t10 2.5h4q1 1 1 4q0 13 -11 13t-11 9t5 15.5t13 6.5 q3 0 9 -2q6 8 6 21zM1704 129v-9v-21h4h13q5 0 7.5 -1.5t2.5 -3v-5.5q0 -6 -0.5 -9.5t-3.5 -5l-4 -2t-6.5 0t-6.5 0.5q-6 0 -9 1q0 -5 -1 -19.5t-1 -21.5q0 -37 24 -37h10q0 -2 0.5 -6t0.5 -7q0 -11 -22 -11q-7 0 -13 2t-10 6.5t-7 9t-4.5 12.5t-3 13.5t-1.5 15v15v15v13.5 h-1q-1 0 -4 -0.5t-5 -0.5t-3 1q0 6 6.5 16t19.5 24.5t14 16.5q1 -2 4 -2zM1672 81q1 0 3 0.5t3 0.5q2 0 4 -2q0 -8 -1 -24.5t-1 -24.5q0 -36 18 -49h2l2 1q1 0 4 -1t5 -1q16 0 16 7q-21 0 -27.5 11.5t-6.5 36.5q0 46 10 46q3 0 9 -0.5t9 -0.5q2 0 3 1t1 3.5v3.5q-1 0 -7 1.5 t-10 1.5q-5 0 -8 -1q-2 3 -2 13t-3 12q-3 -6 -11.5 -17t-11.5 -18zM866 99h5.5t6.5 -0.5t6.5 -1t5 -2t1.5 -4.5t-0.5 -9t-0.5 -8q0 -4 1 -6q-5 -1 -12 -1t-9 -1t-4 -5.5t-2 -15.5q0 -44 17 -44q6 0 13 4q0 -23 2 -34q-5 -5 -18 -5q-33 0 -41.5 14t-8.5 46v24q0 15 -5 15h-4 q-5 0 -7 3q4 5 13 19.5t17 24t17 17.5q1 0 2 -2t3 -2q-1 -3 -1 -8q0 -9 3 -18zM824 72q5 0 8.5 -1t4.5 -4.5t1 -5v-8.5t-1 -21t-1 -20q0 -25 12.5 -32t39.5 -7q0 4 -0.5 9t-0.5 7q0 4 1 7q-2 0 -4 -0.5t-3 -0.5q-9 0 -14.5 4.5t-7 12t-2.5 17t-0.5 20t-0.5 20.5q24 0 30 20 q-4 2 -11 2h-7q-11 0 -11 10q0 1 0.5 5t0.5 6q0 4 -2 6q-6 -7 -11.5 -14.5t-11 -17t-9.5 -14.5zM856 118q-9 -10 -32 -46q5 0 8.5 -1t4.5 -4.5t1 -5v-8.5t-1 -21t-1 -20q0 -24 12.5 -31.5t39.5 -7.5q0 4 -0.5 9t-0.5 7q0 4 1 7q-2 0 -4 -0.5t-3 -0.5q-9 0 -14.5 4.5t-7 12 t-2.5 17t-0.5 20t-0.5 20.5q2 0 3 1l1 2q22 4 23 8q1 0 3 9q-4 2 -11 2h-7q-11 0 -11 10q0 1 0.5 5t0.5 6q0 4 -2 6zM1695 116q-3 -6 -11.5 -17t-11.5 -18q1 0 3 0.5t3 0.5q2 0 4 -2q0 -8 -1 -24.5t-1 -24.5q0 -36 18 -49h2l2 1q1 0 4 -1t5 -1q16 0 16 7q-21 0 -27.5 11.5 t-6.5 36.5q0 46 10 46q3 0 9 -0.5t9 -0.5q2 0 3 1t1 3.5v3.5q-1 0 -7 1.5t-10 1.5q-5 0 -8 -1q-2 3 -2 13t-3 12zM721 -29q-5 -1 -16 -1q-13 0 -15.5 3t-2.5 16q0 6 1 21t1 22q0 30 -15 30q-13 0 -17.5 -17t-4 -42t-1.5 -32q-10 -2 -21 -2q-6 0 -9.5 2t-4.5 6t-1 7.5 t0.5 9.5t0.5 8q0 12 0.5 34.5t0.5 32.5v20q18 9 25 9q9 0 9 -13q13 15 35 15q40 0 40 -42q0 -13 -2 -35q0 -5 0.5 -14t0.5 -13q0 -14 -4 -25zM719 74q-1 0 -2.5 1.5t-2.5 3.5l-1 2q-24 13 -32 13q-7 -1 -17.5 -10t-16.5 -9q-2 3 -2 16q-8 -2 -20 -6q0 -10 -1 -36t-1 -40 q0 -3 -0.5 -7t-0.5 -6.5v-5t1 -4.5t2.5 -3.5t4.5 -2.5t7 -1.5t10 -0.5v16v25q0 50 22 50q26 0 26 -33q0 -7 -1.5 -20.5t-1.5 -19.5q0 -10 3 -18q7 3 21 3q3 28 3 93zM1073 87q0 -8 -6 -18q-14 6 -24 6q-18 0 -28 -12.5t-10 -29.5t11 -26t24.5 -10t24.5 -3.5t11 -9.5 q0 -17 -33 -17q-61 0 -61 63q0 24 11.5 44.5t33.5 23.5q2 1 2 3q4 -1 14.5 -2t18 -3.5t11.5 -8.5zM1043 91q-56 0 -56 -66q0 -50 60 -50q16 0 20 9q-6 1 -19 3t-19.5 3.5t-15 6t-12 13.5t-3.5 23q0 25 13 38t33 13q12 0 21 -6v2q0 11 -22 11zM1411 -24q-19 -8 -41 -8 q-54 0 -54 41q0 43 56 43h13q2 6 2 8q0 16 -30 16q-14 0 -30 -4q-2 8 -2 10q0 19 39 19q49 0 49 -52q0 -12 -1 -37t-1 -36zM1394 85q-12 6 -27 6q-34 0 -34 -11q14 4 27 4q35 0 35 -26q0 -15 -23 -15h-10q-18 0 -29.5 -11t-11.5 -30q3 -26 46 -26q22 0 38 8q-1 4 -1 14 q0 8 1.5 25t1.5 26q0 27 -13 36zM511 -18q-19 -18 -44 -18q-26 0 -43 18t-17 48t15 49.5t46 19.5q56 -4 56 -66q0 -31 -13 -51zM506 -12q13 14 13 42q0 60 -54 60q-23 0 -37.5 -17t-14.5 -46q0 -28 18.5 -41t37.5 -13q23 0 37 15zM1190 95q3 -1 3 -3q0 -1 -0.5 -3.5 t-0.5 -3.5q27 9 31 9q12 0 12 -10q0 -7 -2 -15q-4 1 -10 1q-11 0 -17 -6t-8.5 -17.5t-3.5 -22.5t-1 -25.5t-1 -22.5q-3 -3 -20 -3q-4 16 -4 41q0 12 1 34.5t1 32.5v14q8 2 12 2t8 -2zM1179 87v-9q0 -10 -2 -32.5t-2 -33.5q0 -19 4 -31q5 0 10 1q-2 18 -2 32q0 64 35 64h6v9 q-5 -1 -12 -2t-9 -1l-4 -4t-5.5 -4.5t-5.5 -1.5q-4 0 -5 7.5t-4 7.5zM716 -19q3 28 3 93q-1 0 -2.5 1.5t-2.5 3.5l-1 2q-24 13 -32 13q-7 -1 -17.5 -10t-16.5 -9q-2 3 -2 16q-8 -2 -20 -6q0 -10 -1 -36t-1 -40q0 -21 1 -31q3 0 7.5 -0.5t6.5 0t4.5 1.5t3.5 5t1 10v25 q0 50 22 50q26 0 26 -33q0 -7 -1.5 -20.5t-1.5 -19.5q0 -10 3 -18q7 3 21 3zM1405 -16q-1 4 -1 14q0 8 1.5 25t1.5 26q0 42 -40 42q-34 0 -34 -11q14 4 27 4q35 0 35 -26q0 -15 -23 -15h-10q-17 0 -29 -11t-12 -28q0 -28 46 -28q22 0 38 8zM1346 31q-9 -6 -9 -17 q0 -27 29 -27q14 0 24 9q-1 3 -1 12v14q0 10 -1.5 12t-10.5 2q-22 0 -31 -5zM1065 78v2q0 11 -22 11q-56 0 -56 -66q0 -50 60 -50q16 0 20 9q-6 1 -19 3t-19.5 3.5t-15 6t-12 13.5t-3.5 23q0 25 13 38t33 13q12 0 21 -6zM441 -22q15 -5 28 -5q23 0 36.5 15t13.5 42 q0 60 -54 60q-23 0 -37.5 -17t-14.5 -46q0 -15 4.5 -23t12.5 -14t11 -12zM436 37q0 -46 25 -49q15 0 24 15t9 33q0 15 -7.5 25t-20.5 10q-11 0 -19.5 -9.5t-10.5 -24.5zM1189 74q-1 2 -1.5 6t-1.5 6.5t-3 2.5l-4 -2v-9q0 -10 -2 -32.5t-2 -33.5q0 -19 4 -31q5 0 10 1 q-2 18 -2 32q0 64 35 64h6v9q-5 -1 -12 -2t-9 -1l-4 -4t-5.5 -4.5t-5.5 -1.5h-3zM486 63q-11 8 -20 8q-11 0 -19.5 -9.5t-10.5 -24.5q0 -46 25 -49q15 0 24 15t9 33q0 14 -8 27zM463 -4q25 0 25 35q0 32 -20 32q-25 0 -25 -34q0 -31 20 -33zM461 62q-18 -4 -18 -33 q0 -12 5.5 -22.5t14.5 -10.5q25 0 25 35q0 32 -20 32q-5 0 -7 -1zM1388 36q-14 0 -19.5 -0.5t-15 -2t-13 -6.5t-3.5 -13q0 -27 29 -27q14 0 24 9q-1 3 -1 12v14q0 11 -1 14zM1346 18v-2l-1 -2q0 -9 7 -14.5t16 -5.5q15 0 15 34h-7h-7.5h-6t-5.5 -1t-4.5 -2t-4 -2.5 t-2.5 -4.5zM1383 28h-6.5h-7h-7t-7 -1t-5 -2.5t-4 -4t-1.5 -6.5q0 -9 7 -14.5t16 -5.5q15 0 15 34zM1640 1420q-5 -20 -12.5 -40t-19.5 -46.5t-17 -37.5q-65 -185 -146 -368q-2 -5 -2 -15q-33 -96 -52 -123q-3 -16 -6 -21q-9 -24 -40.5 -109.5t-51.5 -133.5q-6 -8 -9.5 -17 t-6.5 -20.5t-5 -16.5q-15 -44 -53.5 -125.5t-52.5 -120.5q-9 -14 -25 -14q-17 0 -50.5 1t-50.5 1q-19 0 -54 -2.5t-53 -2.5q-40 0 -40 14q0 6 5 19t6 17q38 98 46 115q-6 0 -16 0.5t-15 0.5q-10 0 -15 -1q-16 -26 -36.5 -84t-32.5 -81q-19 -2 -56 -2q-19 0 -55 1t-55 1 t-58 -1t-59 -1q-41 0 -113 1.5t-105 1.5q-4 0 -13 -0.5t-15 -0.5q-55 0 -55 13q0 10 12 32q7 18 37.5 102t53.5 131q50 128 55 138q52 129 107 254q11 26 35.5 94.5t40.5 100.5q-16 1 -51 1h-42h-14h-16h-14.5t-14 1.5t-11 3.5t-8 6t-2.5 9q0 6 20 18t49 28t41 25 q18 11 56.5 34t57.5 34q11 0 33 6t33 6q13 0 28.5 -13.5t36.5 -38t29 -32.5q59 -59 59 -73q0 -9 -14 -34q-14 -45 -24 -66q-7 -20 -31.5 -76.5t-31.5 -84.5q-8 -34 -10 -38q-20 -58 -104 -235q-30 -64 -57 -158q-4 -1 -11 -7q-3 1 -10 1q-5 0 -17.5 -1t-18.5 -1q-11 0 -13 4 t-2 14q0 15 14 45q67 147 77 170q13 39 46.5 119.5t46.5 122.5q1 3 43 111q31 84 43 111q-27 23 -70 69.5t-61 63.5q-58 -32 -169 -103q-22 -7 -32 -20q32 -1 126 -1q4 0 10 0.5t9 0.5q14 0 14 -8t-3 -18.5t-6.5 -18t-10.5 -21t-10 -20.5q-9 -20 -19.5 -47t-20 -55 t-12.5 -36q-8 -22 -26.5 -63t-22.5 -51q-8 -19 -32 -72t-38.5 -90.5t-23.5 -70.5q-7 -18 -23.5 -55.5t-24.5 -58.5q-24 -68 -43.5 -115.5t-25.5 -63.5q12 -1 39 -1q13 0 41 0.5t42 0.5q30 0 86.5 -2t84.5 -2q25 0 73 1t71 1q34 0 51 -1q15 24 31 68.5t28.5 72t26.5 27.5 q7 0 21.5 -1.5t19.5 -1.5t15 0.5t14 0.5q3 0 8 -0.5t8 -0.5q2 0 11.5 1.5t17.5 1.5q14 0 14 -10t-6 -24t-14 -28t-10 -19q-7 -17 -12 -31.5t-9.5 -29t-7.5 -23.5q17 0 64 1.5t70 1.5q25 0 36 -1q8 19 35 87.5t44 104.5q22 46 67 164q19 55 39 104q2 6 5.5 18.5t6.5 19.5 q2 9 11 25.5t11 20.5q12 27 33.5 79.5t31.5 74.5q11 25 30 79t32 81q7 14 29 79q20 32 32 81q11 29 34.5 81t32.5 74q-68 69 -124 123q-28 -61 -78 -189q-145 -363 -169 -428q-4 -13 -23.5 -56.5t-21.5 -65.5q-20 -20 -44 -97q-5 -9 -15 -39.5t-20 -50.5t-20 -20q-5 0 -5 7 q0 4 1.5 9.5t4 10.5t2.5 6q7 14 17.5 45t18.5 47q27 55 75 178q60 156 70 187q7 21 25 61.5t25 59.5q22 68 47 122q10 22 27 65t23 56q4 9 13 29.5t13 30.5q15 46 26 59q36 10 64 10q12 -11 47.5 -44t58 -56t41.5 -47zM1504 1530q-19 16 -24 16t-13 -2t-12 -2 q12 -13 45.5 -44t53.5 -53t28 -38q-27 -73 -96 -235.5t-98 -248.5q-4 -10 -16.5 -39t-18.5 -45q-2 -4 -13 -27.5t-15 -35.5q-3 -12 -12.5 -33.5t-13.5 -33.5q-1 -8 -8 -20t-9 -18q-12 -37 -27 -77t-28 -70.5t-15 -37.5q-21 -44 -54 -129t-38 -98q-1 -2 -5 -11t-4 -14h40 q14 42 30.5 83t43 102t34.5 80q2 10 6.5 21.5t11 26.5t10.5 24q11 27 50 130.5t63 156.5q12 27 28 77q3 9 11 25.5t10 21.5q32 87 115 295q6 15 26.5 62.5t29.5 74.5q-16 18 -57 56.5t-59 59.5zM681 1220q4 2 14.5 2.5t15.5 2.5q9 -5 17.5 -13.5t17.5 -20t15 -17.5 q10 -10 39.5 -40t42.5 -45q-52 -121 -68 -172q-16 -33 -41.5 -106t-43.5 -108q-4 -13 -50 -125q-11 -15 -21.5 -39t-15.5 -39t-15 -49.5t-12 -40.5q-8 0 -21 -1t-17 -1q13 47 27 76.5t44.5 96t71.5 173.5q3 10 10.5 28.5t10.5 27.5q13 26 64 165q4 11 15 37.5t18 45.5t7 27 q0 7 -5 13.5t-16 16t-13 11.5q-16 15 -46 47.5t-45 46.5zM846 376q-10 -21 -20 -46.5t-21 -56.5t-17 -46q3 1 17.5 1t18.5 1q4 11 24 65t32 80q-24 0 -34 2z" />
<glyph unicode="&#x152;" d="M-253 1055q134 11 198 93q9 10 24.5 6.5t15.5 -16.5q-1 -4 -2.5 -8.5t-3 -7.5t-5 -7.5t-5.5 -6.5l-6.5 -6.5t-6.5 -6t-7.5 -6t-6.5 -5.5q-30 -23 -61 -36q-119 -52 -189 -27q-4 2 -5 5.5t1.5 8t5.5 9t6.5 10t5.5 8.5q7 13 11.5 26t6.5 28t-6 23t-26 7q-9 -1 -21 -10.5 t-25 -10.5q-14 0 -14 13q-1 25 26 40.5t57 10.5q24 -3 42 -26.5t13 -54.5q-2 -9 -11.5 -25t-11.5 -28z" />
<glyph unicode="&#xf70b;" d="M-253 1055q134 11 198 93q9 10 24.5 6.5t15.5 -16.5q-1 -4 -2.5 -8.5t-3 -7.5t-5 -7.5t-5.5 -6.5l-6.5 -6.5t-6.5 -6t-7.5 -6t-6.5 -5.5q-30 -23 -61 -36q-119 -52 -189 -27q-4 2 -5 5.5t1.5 8t5.5 9t6.5 10t5.5 8.5q7 13 11.5 26t6.5 28t-6 23t-26 7q-9 -1 -21 -10.5 t-25 -10.5q-14 0 -14 13q-1 25 26 40.5t57 10.5q24 -3 42 -26.5t13 -54.5q-2 -9 -11.5 -25t-11.5 -28z" />
<glyph unicode="&#x153;" d="M-403 1235q134 11 198 93q9 10 24.5 6.5t15.5 -16.5q-1 -4 -2.5 -8.5t-3 -7.5t-5 -7.5t-5.5 -6.5l-6.5 -6.5t-6.5 -6t-7.5 -6t-6.5 -5.5q-30 -23 -61 -36q-119 -52 -189 -27q-4 2 -5 5.5t1.5 8t5.5 9t6.5 10t5.5 8.5q7 13 11.5 26t6.5 28t-6 23t-26 7q-9 -1 -21 -10.5 t-25 -10.5q-14 0 -14 13q-1 25 26 40.5t57 10.5q24 -3 42 -26.5t13 -54.5q-2 -9 -11.5 -25t-11.5 -28z" />
<glyph unicode="&#xf714;" d="M-403 1235q134 11 198 93q9 10 24.5 6.5t15.5 -16.5q-1 -4 -2.5 -8.5t-3 -7.5t-5 -7.5t-5.5 -6.5l-6.5 -6.5t-6.5 -6t-7.5 -6t-6.5 -5.5q-30 -23 -61 -36q-119 -52 -189 -27q-4 2 -5 5.5t1.5 8t5.5 9t6.5 10t5.5 8.5q7 13 11.5 26t6.5 28t-6 23t-26 7q-9 -1 -21 -10.5 t-25 -10.5q-14 0 -14 13q-1 25 26 40.5t57 10.5q24 -3 42 -26.5t13 -54.5q-2 -9 -11.5 -25t-11.5 -28z" />
<glyph unicode="&#x160;" d="M-187 1256q52 -17 -16 -57q-6 -4 -18 -10q-14 -8 -19 -11q-87 -54 -117 -81q-2 -2 -9.5 -8t-11 -9.5l-9 -9t-8.5 -10t-3 -8.5q-1 -9 4 -18t11 -12q13 -6 31.5 -3t36.5 0.5t20 -15.5q3 -23 -41.5 -25t-63.5 10q-19 10 -31.5 30.5t-6.5 46.5q1 6 6.5 13.5t10 11.5t13 12 t11.5 10q3 3 21.5 20.5t28.5 24.5q11 7 37 22t39 24q8 6 19.5 15.5t21.5 16.5t23 12q19 8 20 8z" />
<glyph unicode="&#xf709;" d="M-187 1256q52 -17 -16 -57q-6 -4 -18 -10q-14 -8 -19 -11q-87 -54 -117 -81q-2 -2 -9.5 -8t-11 -9.5l-9 -9t-8.5 -10t-3 -8.5q-1 -9 4 -18t11 -12q13 -6 31.5 -3t36.5 0.5t20 -15.5q3 -23 -41.5 -25t-63.5 10q-19 10 -31.5 30.5t-6.5 46.5q1 6 6.5 13.5t10 11.5t13 12 t11.5 10q3 3 21.5 20.5t28.5 24.5q11 7 37 22t39 24q8 6 19.5 15.5t21.5 16.5t23 12q19 8 20 8z" />
<glyph unicode="&#x161;" d="M-532 1121q-22 -19 -22.5 -50.5t23.5 -50.5q15 -11 35 -15.5t34 1.5q8 4 11.5 14t5.5 23t4 18q2 6 11 8t17 -4q6 -5 15 -22.5t20 -26t28 -3.5q15 4 28 22q4 6 6.5 18.5t6.5 21t13 9.5q19 2 22 -9q4 -40 -28.5 -76.5t-73.5 -30.5q-25 5 -40 34q-5 -18 -28 -30t-50 -9 q-28 4 -57 21q-43 33 -45 89.5t38 84.5q17 12 49 23.5t56 13.5q32 0 37 0.5t38 -4.5t39 -6q14 -2 25 -2q13 1 33.5 10.5t28.5 10.5q12 1 20 -4t9 -13q3 -23 -37 -37t-76 -11q-14 1 -48.5 6.5t-47.5 5.5t-45 -5q-39 -14 -55 -25z" />
<glyph unicode="&#xf712;" d="M-532 1121q-22 -19 -22.5 -50.5t23.5 -50.5q15 -11 35 -15.5t34 1.5q8 4 11.5 14t5.5 23t4 18q2 6 11 8t17 -4q6 -5 15 -22.5t20 -26t28 -3.5q15 4 28 22q4 6 6.5 18.5t6.5 21t13 9.5q19 2 22 -9q4 -40 -28.5 -76.5t-73.5 -30.5q-25 5 -40 34q-5 -18 -28 -30t-50 -9 q-28 4 -57 21q-43 33 -45 89.5t38 84.5q17 12 49 23.5t56 13.5q32 0 37 0.5t38 -4.5t39 -6q14 -2 25 -2q13 1 33.5 10.5t28.5 10.5q12 1 20 -4t9 -13q3 -23 -37 -37t-76 -11q-14 1 -48.5 6.5t-47.5 5.5t-45 -5q-39 -14 -55 -25z" />
<glyph unicode="&#x178;" d="M-187 1426q52 -17 -16 -57q-6 -4 -18 -10q-14 -8 -19 -11q-87 -54 -117 -81q-10 -7 -25 -21.5t-16 -23.5t4 -18t11 -12q13 -6 31.5 -3t36.5 0.5t20 -15.5q3 -23 -41.5 -25t-63.5 10q-19 10 -31.5 30.5t-6.5 46.5q1 6 6.5 13.5t10 11.5t13 12t11.5 10q3 3 21.5 20.5 t28.5 24.5q11 7 37 22t39 24q8 6 19.5 15.5t21.5 16.5t23 12q19 8 20 8z" />
<glyph unicode="&#xf717;" d="M-187 1426q52 -17 -16 -57q-6 -4 -18 -10q-14 -8 -19 -11q-87 -54 -117 -81q-10 -7 -25 -21.5t-16 -23.5t4 -18t11 -12q13 -6 31.5 -3t36.5 0.5t20 -15.5q3 -23 -41.5 -25t-63.5 10q-19 10 -31.5 30.5t-6.5 46.5q1 6 6.5 13.5t10 11.5t13 12t11.5 10q3 3 21.5 20.5 t28.5 24.5q11 7 37 22t39 24q8 6 19.5 15.5t21.5 16.5t23 12q19 8 20 8z" />
<glyph unicode="&#x17d;" d="M-167 1117q1 -6 54.5 -2t52.5 -15q-1 -12 -8.5 -19.5t-20.5 -9.5t-24.5 -2.5t-28 0.5t-23.5 1q0 -15 -1.5 -28t-5 -26.5t-11 -19.5t-18.5 -1q-10 4 -11 16t1.5 31t0.5 28q-15 -2 -45 -2h-37q-17 3 -17 20q2 17 20 21.5t38.5 1.5t40.5 2q-4 27 3.5 58.5t31.5 10.5 q6 -5 7.5 -16.5t0.5 -23.5t0 -25z" />
<glyph unicode="&#xf70d;" d="M-167 1117q1 -6 54.5 -2t52.5 -15q-1 -12 -8.5 -19.5t-20.5 -9.5t-24.5 -2.5t-28 0.5t-23.5 1q0 -15 -1.5 -28t-5 -26.5t-11 -19.5t-18.5 -1q-10 4 -11 16t1.5 31t0.5 28q-15 -2 -45 -2h-37q-17 3 -17 20q2 17 20 21.5t38.5 1.5t40.5 2q-4 27 3.5 58.5t31.5 10.5 q6 -5 7.5 -16.5t0.5 -23.5t0 -25z" />
<glyph unicode="&#x17e;" d="M-337 1307q1 -6 54.5 -2t52.5 -15q-1 -12 -8.5 -19.5t-20.5 -9.5t-24.5 -2.5t-28 0.5t-23.5 1q0 -15 -1.5 -28t-5 -26.5t-11 -19.5t-18.5 -1q-10 4 -11 16t1.5 31t0.5 28q-15 -2 -45 -2h-37q-17 3 -17 20q2 17 20 21.5t38.5 1.5t40.5 2q-4 27 3.5 58.5t31.5 10.5 q6 -5 7.5 -16.5t0.5 -23.5t0 -25z" />
<glyph unicode="&#xf716;" d="M-337 1307q1 -6 54.5 -2t52.5 -15q-1 -12 -8.5 -19.5t-20.5 -9.5t-24.5 -2.5t-28 0.5t-23.5 1q0 -15 -1.5 -28t-5 -26.5t-11 -19.5t-18.5 -1q-10 4 -11 16t1.5 31t0.5 28q-15 -2 -45 -2h-37q-17 3 -17 20q2 17 20 21.5t38.5 1.5t40.5 2q-4 27 3.5 58.5t31.5 10.5 q6 -5 7.5 -16.5t0.5 -23.5t0 -25z" />
<glyph unicode="&#x192;" d="M-676 994q-36 28 35 44q8 1 23 4q6 1 9 2q77 14 216 -12q-10 28 6.5 65t42.5 50q18 9 40.5 9.5t36.5 -7.5q35 -22 37 -75t-32 -80q-25 -19 -43 -19q-19 1 -125 21.5t-171 9.5q-7 -1 -27.5 -5.5t-33 -6.5t-14.5 0zM-358 1061q1 -15 24.5 -31.5t37.5 -13.5q23 5 22 52 t-24 52q-3 1 -14 -2q-19 -4 -33.5 -21.5t-12.5 -35.5z" />
<glyph unicode="&#xf703;" d="M-676 994q-36 28 35 44q8 1 23 4q6 1 9 2q77 14 216 -12q-10 28 6.5 65t42.5 50q18 9 40.5 9.5t36.5 -7.5q35 -22 37 -75t-32 -80q-25 -19 -43 -19q-19 1 -125 21.5t-171 9.5q-7 -1 -27.5 -5.5t-33 -6.5t-14.5 0zM-358 1061q1 -15 24.5 -31.5t37.5 -13.5q23 5 22 52 t-24 52q-3 1 -14 -2q-19 -4 -33.5 -21.5t-12.5 -35.5z" />
<glyph unicode="&#x2c6;" d="M-303 1055q37 2 69 28q43 35 50 2q3 -16 -25 -37t-49 -27q-19 -6 -48.5 -4.5t-35.5 15.5q-5 11 -4.5 30.5t-1.5 32.5q-6 24 -24.5 41.5t-43.5 15.5q-23 -2 -35 -19q-5 -7 -7.5 -21t-7 -22.5t-16.5 -8.5q-11 0 -28 24.5t-29 27.5q-39 12 -65.5 -12.5t-21.5 -63.5 q1 -5 4.5 -15t6 -17.5t1.5 -15.5t-9 -12q-19 -6 -33 22.5t-13 56.5q1 53 51 85.5t105 9.5q3 -1 8 -5.5t9 -7.5l5 -4q3 0 16 14t16 15q58 36 112 -10t44 -118z" />
<glyph unicode="&#xf707;" d="M-303 1055q37 2 69 28q43 35 50 2q3 -16 -25 -37t-49 -27q-19 -6 -48.5 -4.5t-35.5 15.5q-5 11 -4.5 30.5t-1.5 32.5q-6 24 -24.5 41.5t-43.5 15.5q-23 -2 -35 -19q-5 -7 -7.5 -21t-7 -22.5t-16.5 -8.5q-11 0 -28 24.5t-29 27.5q-39 12 -65.5 -12.5t-21.5 -63.5 q1 -5 4.5 -15t6 -17.5t1.5 -15.5t-9 -12q-19 -6 -33 22.5t-13 56.5q1 53 51 85.5t105 9.5q3 -1 8 -5.5t9 -7.5l5 -4q3 0 16 14t16 15q58 36 112 -10t44 -118z" />
<glyph unicode="&#x2dc;" d="M-249 1154q10 3 18.5 -0.5t10.5 -11.5q3 -12 -13 -34t-28 -33q-11 -11 -26 -23q-45 -38 -74 -53q-83 -42 -132 -19q-32 15 -42.5 62t14.5 77q25 28 47 31q13 2 24.5 -2.5t7.5 -17.5q-1 -4 -7 -8t-14 -7t-11 -6q-18 -16 -23 -31q-8 -32 9.5 -51t52.5 -15q38 6 91 45 q37 28 55 50q4 5 11 16.5t14 19.5t15 11z" />
<glyph unicode="&#xf710;" d="M-249 1154q10 3 18.5 -0.5t10.5 -11.5q3 -12 -13 -34t-28 -33q-11 -11 -26 -23q-45 -38 -74 -53q-83 -42 -132 -19q-32 15 -42.5 62t14.5 77q25 28 47 31q13 2 24.5 -2.5t7.5 -17.5q-1 -4 -7 -8t-14 -7t-11 -6q-18 -16 -23 -31q-8 -32 9.5 -51t52.5 -15q38 6 91 45 q37 28 55 50q4 5 11 16.5t14 19.5t15 11z" />
<glyph unicode="&#xe01;" horiz-adv-x="649" d="M557 587q1 -25 1 -85v-120q0 -40 1.5 -118t1.5 -122v-21.5v-20.5v-19t-0.5 -18t-1 -15t-2.5 -12.5l-4 -9t-5.5 -6.5t-7.5 -2q-17 0 -18 20q-6 96 -6.5 317.5t-6.5 320.5q-4 55 -29 82t-78 49q-60 24 -101 24q-70 0 -135 -29q-30 -14 -54.5 -37t-24.5 -51q0 -17 11.5 -43 t12.5 -29q12 -43 12 -114q0 -2 -3 -101q-2 -44 -5 -355v-23q0 -28 -16 -30q-10 0 -16.5 6.5t-8.5 18.5t-2.5 21t0 23t0.5 15q0 22 0.5 70t0.5 75q0 12 -0.5 36t-0.5 37q0 32 3 97t3 96q0 83 -12 119q-2 7 -9.5 23.5t-11.5 30.5t-4 29q0 67 82 113t179 46q48 0 119 -27 q63 -25 94.5 -58t37.5 -100q1 -16 4 -103z" />
<glyph unicode="&#xe02;" horiz-adv-x="589" d="M509 858q18 -7 18 -73q0 -36 -1 -83t-1 -66v-26q0 -10 -1.5 -34t-1.5 -37q0 -18 0.5 -57.5t0.5 -59.5q0 -50 -5 -107l-6 -52.5t-6.5 -50t-9 -50.5t-12.5 -44.5t-17.5 -41.5t-23 -33.5t-30 -27.5t-38 -15.5t-47.5 -6.5q-158 0 -158 250q0 66 20.5 216t20.5 228q0 13 -3 30 t-10 39t-24 37t-40 15q-21 0 -32.5 -17t-12.5 -37t-5 -37t-12 -17q-30 0 -30 39q0 45 27.5 79t68.5 34q49 0 83 -45.5t36 -106.5q0 -54 -14 -154.5t-17 -134.5q-12 -134 -12 -172q0 -203 122 -203q25 0 44 9.5t30.5 22.5t21 36.5t14 43t10.5 50.5q21 118 21 202q0 22 -1 62 t-1 59q0 35 2.5 102t2.5 118q0 8 -1.5 31t-1.5 36q0 52 22 52q2 0 10 -2z" />
<glyph unicode="&#xe03;" horiz-adv-x="639" d="M546 717q1 -15 1 -47q0 -26 -3 -74.5t-3 -73.5q0 -8 0.5 -25t0.5 -25q0 -12 -0.5 -35t-0.5 -35v-71q0 -56 -3.5 -99t-14.5 -90t-31 -78t-55 -51t-84 -20q-179 0 -179 289q0 46 6 92t17 106t15 85q2 13 3.5 37.5t3.5 36.5q14 86 14 127q-68 -46 -112 -46q-51 0 -86 37 t-35 78q0 24 18 24q11 0 19.5 -15.5t14 -34t23.5 -34t46 -15.5q37 0 65 24q3 3 22 35.5t33 32.5q20 0 28.5 -31t8.5 -65q0 -30 -20 -177q-3 -26 -15.5 -84t-16.5 -87q-7 -48 -7 -117q0 -54 5 -94.5t18.5 -80t42.5 -61t73 -21.5q26 0 47.5 9t35.5 25t25 37.5t16.5 46.5 t10 51.5t5 53t1.5 51t0 45.5v22q0 25 -1 76.5t-1 76.5q0 19 4 72t4 82q0 22 -3.5 70t-3.5 72q0 34 22 34q10 0 16 -11t7.5 -27.5t2.5 -36t0 -37t0 -29.5z" />
<glyph unicode="&#xe04;" horiz-adv-x="698" d="M612 509q3 -73 3.5 -207t2.5 -196q0 -6 1.5 -25t1.5 -30q0 -49 -24 -49q-7 0 -12 9.5t-8 30.5t-5 40.5t-2.5 51.5t-0.5 52v54.5v45.5q0 24 0.5 74t0.5 76q0 116 -12 200q-14 89 -70.5 135t-143.5 46q-70 0 -119 -28t-75.5 -80t-38 -116t-11.5 -147q0 -19 2 -59 q16 6 45.5 26.5t45.5 27.5q13 5 29.5 9.5t39 9.5t35.5 8q40 10 68 10q35 0 35 -19q0 -14 -16 -20.5t-47 -9.5t-33 -3q-77 -14 -138.5 -46.5t-61.5 -75.5q0 -25 2.5 -63.5t2.5 -53.5v-34q0 -8 1.5 -25.5t1.5 -23.5q0 -109 -27 -109q-23 0 -23 38q0 24 2 72t2 73q0 40 -5 127 t-5 131q0 91 12.5 161t42.5 131.5t87.5 95t140.5 33.5q95 0 161 -41t91 -114q17 -50 21 -193z" />
<glyph unicode="&#xe05;" horiz-adv-x="748" d="M587 818q44 -31 59 -85.5t15 -138.5q0 -53 -3 -174.5t-3 -179.5q0 -33 1 -94.5t1 -92.5q0 -46 -22 -46q-26 0 -26 54q0 19 2 49.5t2 42.5q-3 47 -3 95q0 43 3 135.5t3 140.5q0 8 -0.5 26t-0.5 26q0 10 0.5 31t0.5 32q0 37 -10.5 72.5t-39 64t-69.5 28.5 q-19 0 -51.5 -13.5t-44.5 -28.5q-5 -6 -13 -29t-18 -40.5t-22 -17.5q-10 0 -20.5 19t-19.5 42t-32 42t-56 19t-63 -16q-37 -20 -49 -66t-12 -113q0 -36 4.5 -105.5t4.5 -97.5q8 2 20 14t18 16q83 48 182 48q2 0 9.5 0.5t13.5 0t14.5 -0.5t15 -1.5t12.5 -4t9.5 -7t3.5 -10.5 q-3 -28 -30 -28q-9 0 -31.5 4t-33.5 4q-82 0 -142 -42t-60 -103q0 -19 3.5 -71t3.5 -73v-16v-18.5v-19t-1 -20t-2 -18t-3.5 -17t-5 -12.5t-7 -9t-9.5 -3q-22 0 -22 45q0 13 3 43q0 32 -2 84q-2 37 -2.5 151.5t-6.5 179.5q-4 54 -4 86q0 125 45 183t133 58q38 -1 70 -25.5 t50 -57.5q15 34 60.5 60t89.5 26q46 0 88 -27z" />
<glyph unicode="&#xe06;" horiz-adv-x="801" d="M636 855q8 5 20 5q16 0 18 -8q21 -170 21 -473v-20.5v-24.5t-0.5 -25t-1 -28.5t-1.5 -27t-2.5 -29t-4.5 -27t-6 -27.5t-7.5 -23.5t-9.5 -22.5q-32 -61 -96 -99t-155 -38q-65 0 -119 34t-89 86q-4 -12 -6.5 -42t-11.5 -47t-34 -21q-10 0 -10 20q0 26 8 78.5t8 71.5 q1 105 4 166t20 142.5t49 142.5q2 3 11 19.5t12.5 23.5t10.5 23t10 26.5t6 26t3 30.5q0 23 -5 42q-4 -1 -8 -4t-8.5 -7.5t-7.5 -6.5q-51 -38 -109 -38q-38 0 -77.5 26t-39.5 60q0 15 17 15q14 0 28 -18l14 -19q26 -22 69 -22q24 0 43 11t29.5 24.5t24.5 24.5t28 11 q20 0 33.5 -29.5t13.5 -63.5q0 -46 -14 -83t-39.5 -79t-35.5 -66q-5 -11 -9 -24.5t-7 -25t-5.5 -30t-3.5 -29t-2 -33t-1.5 -31.5t-1.5 -34t-1 -32q0 -8 -2 -31.5t-2 -35.5q0 -34 11 -57q33 -72 83 -111.5t131 -39.5q129 0 187 112q14 28 29 146q0 19 2.5 85.5t2.5 105.5 q0 162 -14 308q-5 40 -5 49q0 14 5 18z" />
<glyph unicode="&#xe07;" horiz-adv-x="539" d="M406 839q32 -16 48.5 -60t16.5 -96q0 -66 -25 -193q-7 -33 -28 -153t-39 -189q-2 -7 -8.5 -34t-9 -36t-11.5 -28t-18 -26.5t-25.5 -14.5t-37.5 -7q-25 0 -46.5 11.5t-39.5 34.5t-30 43t-27 51q-83 193 -87 290q0 14 21 14q12 0 15 -6q11 -30 25.5 -89.5t24.5 -87.5 q36 -104 100 -196q16 -23 47 -23q15 0 26 7t17 21t9 26t6 30t5 25q6 36 36 186q1 10 25.5 138t24.5 191q0 25 -0.5 38t-4.5 36t-12 34.5t-24.5 21.5t-40.5 10q-53 0 -70 -29q-3 -6 -6 -19t-8 -20t-16 -7q-10 0 -15 7v-1q-5 5 -5 19q0 44 36 68t92 24q35 0 59 -11z" />
<glyph unicode="&#xe08;" horiz-adv-x="615" d="M267 846q16 3 34 3q118 0 179 -77t61 -211q0 -128 -32 -344q-3 -28 -4.5 -43t-6 -41.5t-9 -41.5t-12.5 -34t-18 -29t-24.5 -17.5t-32.5 -7.5q-27 0 -52.5 22t-37.5 52q-14 33 -22 121.5t-25 154.5t-58 79q-5 1 -23 2.5t-29 6t-11 13.5q0 24 36 24q102 0 130 -107 q8 -30 15.5 -122.5t25 -147.5t55.5 -55q35 0 46 95q1 10 2 14q4 32 15 99t15 103q1 11 1.5 37t1.5 39q1 16 5.5 57.5t4.5 67.5q0 49 -18.5 108t-42.5 97q-57 47 -127 47q-52 0 -109.5 -32t-88.5 -70q-4 -5 -10.5 -16.5t-12.5 -18.5t-13 -7q-6 0 -12 6t-6 16q0 45 67.5 91 t137.5 65q4 2 5 2z" />
<glyph unicode="&#xe09;" horiz-adv-x="660" d="M562 198v-21q0 -76 17 -126q2 -6 10.5 -16t8.5 -18q0 -7 -6 -13t-14 -7q-22 0 -40 47.5t-19 100.5q-32 -15 -60.5 -43t-46.5 -51.5t-51.5 -42t-78.5 -18.5q-38 0 -77.5 20t-57.5 46q-7 9 -12 20.5t-9 26t-7 25.5t-5 31l-3 30t-1.5 33.5t-1 31.5t-0.5 34v32q0 67 -7 88 q-3 10 -20 24.5t-17 24.5q0 8 6 13t14 5q17 0 35.5 -17.5t24.5 -35.5q10 -33 10 -103q0 -7 -0.5 -20t-0.5 -19q0 -48 2.5 -82t10.5 -68t23 -54t40 -33t61 -13q30 0 52.5 13t47.5 45q56 73 131 105q-1 15 -1 45q0 47 6 153t6 159q0 179 -40 235q-21 29 -77.5 43t-119.5 14 q-141 0 -198 -119q-3 -7 -6 -18.5t-6 -17t-10 -5.5q-23 0 -23 27q0 18 9 36q68 137 237 137q69 0 133 -18.5t93 -49.5q27 -29 41 -139q8 -64 8 -146q0 -53 -11 -331z" />
<glyph unicode="&#xe0a;" horiz-adv-x="645" d="M538 501q6 -68 6 -285q0 -34 -3 -63q-1 -6 -2 -19t-2 -20t-3.5 -18t-8 -20.5t-13.5 -18.5q-21 -25 -58.5 -42.5t-74.5 -17.5q-2 0 -6 0.5t-6 0.5q-38 3 -67 14.5t-48 25t-32 40t-19.5 46.5t-10 59.5t-4 63.5t-0.5 73v6q-1 39 6 125t7 122q0 19 1.5 67t1.5 73 q0 109 -61 109q-25 0 -42 -16t-23 -35t-12 -35.5t-13 -18.5q-20 1 -20 29q0 50 32 84t82 34q101 0 101 -149q0 -11 -1.5 -34t-1.5 -35q0 -8 0.5 -25.5t0.5 -26.5q-1 -34 -6 -137t-5 -156q0 -7 -0.5 -43t0 -47.5t2.5 -37t7.5 -41.5t13.5 -29q16 -26 50 -42t72 -16q60 0 95 36 q27 34 27 145q0 20 0.5 58.5t0.5 60.5t-1 57.5t-3 57.5t-7 52t-12.5 48.5t-19 39.5t-26.5 34t-36 22.5t-46 12.5q-4 0 -13 0.5t-14 1t-11 3t-9 7t-4 12.5q0 10 17 18.5t44 17.5t37 14q25 14 33 19t19.5 19t19.5 37q7 19 9 57.5t5 54.5q2 7 20 13q25 -4 25 -61 q0 -74 -28 -114t-96 -66q62 -23 94 -71.5t40 -129.5z" />
<glyph unicode="&#xe0b;" horiz-adv-x="612" d="M550 944q3 -21 3 -39q0 -37 -9.5 -65t-31.5 -49.5t-33.5 -29.5t-39.5 -24q-5 -3 -8 -5q31 -20 48 -34t35 -37.5t25.5 -57t7.5 -80.5q0 -5 -6 -143q-1 -22 -1.5 -62t-1.5 -64t-5.5 -57t-13.5 -59q-21 -60 -70 -100t-107 -40q-47 0 -92.5 25.5t-65.5 66.5q-32 65 -32 244 q0 15 1 45.5t1 46.5q0 11 -1 33t-1 32q0 54 38 138t38 121v23l-12 -11q-11 -12 -14.5 -14.5t-15 -11.5t-19 -12t-20 -6.5t-24.5 -3.5q-34 0 -78.5 40t-44.5 80q0 11 6 21t14 10q10 0 19.5 -17t17 -37t25 -37t41.5 -17q27 0 58.5 27t31.5 57q0 2 -1 6t-1 5q0 6 6.5 10t11.5 4 q23 0 33.5 -37.5t10.5 -62.5q0 -59 -38 -140t-38 -137q0 -9 0.5 -26t0.5 -25q0 -13 -1 -38.5t-1 -37.5q0 -42 0.5 -67.5t3 -62.5t8.5 -61t15 -49.5t24.5 -42.5t36.5 -27q36 -17 66 -17q46 0 87 46q11 12 19.5 27t14 27.5t10 35t7 34.5t4.5 40.5t2.5 39t1.5 44t1 42.5 q5 115 5 142q0 193 -161 193q-13 1 -13 18q0 9 7 14t21.5 7.5t15.5 2.5q62 19 109 69q27 38 27 80v22q0 37 25 37q14 0 17 -12z" />
<glyph unicode="&#xe0c;" horiz-adv-x="952" d="M884 821q5 -50 5 -119v-65v-17q0 -42 -5.5 -132.5t-5.5 -133.5v-70q0 -56 -5 -97.5t-20.5 -86.5t-50 -69.5t-87.5 -24.5q-63 0 -111 25q-21 10 -50 35.5t-38 32.5q-1 -7 -1.5 -21t-1 -23t-3 -19t-7.5 -15t-13 -5q-20 0 -20 37q0 15 8 84q6 57 9 123t3.5 100.5t0 118.5 t-0.5 100q0 157 -76 218q-21 17 -55.5 29.5t-52.5 12.5q-88 0 -154.5 -47t-66.5 -120q0 -22 12 -58t14 -51q8 -53 8 -103q0 -115 -23 -391q-1 -18 -2.5 -27.5t-6.5 -17.5t-14 -8q-20 0 -20 39q0 68 10.5 194.5t10.5 189.5q0 20 -2 60q-2 27 -17 88.5t-15 94.5q0 81 76 140 t180 59q58 0 101 -22q77 -39 106 -98.5t32 -164.5q0 -14 -2 -43.5t-2 -45.5q0 -17 1 -50t1 -49q0 -45 -3 -120.5t-3 -103.5q0 -8 1 -12q3 -13 16.5 -32.5t36.5 -41.5t62 -37t84 -15q56 0 82 60t26 144q0 13 -1.5 39.5t-1.5 40.5q0 65 5 209t5 208q0 14 -4 49t-4 57 q0 34 19 34q9 0 15.5 -3.5t9 -12t3.5 -14.5t1.5 -18.5t1.5 -17.5z" />
<glyph unicode="&#xe0e;" horiz-adv-x="636" d="M562 282v-46q0 -22 -0.5 -72.5t-0.5 -74.5q0 -9 0.5 -25t0.5 -23q0 -146 -42 -192q-35 -39 -100.5 -59t-141.5 -20q-126 0 -126 27q0 16 11 22.5t21 6.5q23 0 49.5 -3.5t33.5 -3.5q103 0 151 17q27 10 46 26t29 33t15.5 43.5t6.5 47.5t1 55v39q0 51 1 167.5t1 180.5 q0 153 -6 248q-4 55 -29 82t-77 49q-58 24 -101 24q-44 0 -91.5 -12t-85.5 -40.5t-38 -65.5q0 -17 12 -42.5t13 -29.5q12 -43 12 -113q0 -3 -3 -102q-3 -50 -4 -110t-1 -133t-1 -111q0 -3 0.5 -11.5t0.5 -12.5q0 -29 -16 -29q-7 0 -12 3t-8 9t-5 11.5t-2.5 14t-1 14t0 13.5 t0.5 9q0 23 1 74t1 81q0 11 -0.5 35.5t-0.5 37.5q0 32 3 97t3 96q0 84 -12 119q-2 6 -9.5 22.5t-11.5 30.5t-4 29q0 66 81 113t176 47q52 0 123 -27q63 -25 94.5 -58.5t37.5 -100.5q5 -63 5 -177q0 -21 -0.5 -68.5t-0.5 -72.5q0 -60 1 -89z" />
<glyph unicode="&#xe0f;" horiz-adv-x="660" d="M582 44q0 -35 -0.5 -58t-3.5 -56.5t-9.5 -55.5t-16.5 -43t-27 -31.5t-39 -10.5q-56 0 -93 16q-20 8 -69 43q-67 -59 -177 -59q-31 0 -61.5 14.5t-30.5 39.5q0 8 6.5 12t11.5 4q10 0 26.5 -14t39.5 -14q76 0 144 36q5 3 21.5 18t26.5 15t23 -11t25.5 -24.5t37.5 -24.5 t56 -11t42 29q21 110 21 186v39q0 51 1 167t1 179q0 168 -5 247q-3 54 -28.5 81.5t-78.5 49.5q-60 24 -101 24q-43 0 -90.5 -12t-85.5 -40t-38 -65q0 -17 11.5 -44t12.5 -29q12 -43 12 -113q0 -3 -3 -102q-5 -113 -5 -354v-8v-10v-9.5t-1 -9.5t-3 -7.5t-5 -6t-7 -2.5 q-10 0 -16.5 6t-8.5 18t-2.5 20.5t0 23t0.5 16.5q0 22 0.5 70t0.5 75q0 11 -0.5 35.5t-0.5 37.5q0 32 3 97t3 96q0 81 -12 119q-2 7 -9.5 23t-11.5 30.5t-4 29.5q0 65 81.5 112t175.5 47q52 0 123 -27q63 -24 94.5 -57.5t37.5 -101.5q5 -55 5 -187v-120q0 -21 0.5 -62.5 t0.5 -60.5q0 -24 -1 -82t-1 -86q0 -33 1 -47z" />
<glyph unicode="&#xe10;" horiz-adv-x="615" d="M559 890q1 -2 1 -6q0 -6 -6 -13.5t-12 -12t-16.5 -11.5t-12.5 -9q-7 -6 -20 -15.5t-21.5 -16.5t-15.5 -16q68 -72 68 -192q0 -97 -34 -224l-14 -59q-19 -121 -51 -192q-1 -2 -6 -13.5t-7.5 -16.5l-8 -16t-9.5 -16.5t-10 -14.5t-12 -13.5t-13 -10t-15 -7.5t-17 -2 q-35 0 -58 36.5t-28 66.5q-14 48 -23 114.5t-13 86.5q-22 99 -92 172q-12 12 -12 19q0 13 19 13q12 0 26 -9q52 -41 75 -107.5t39 -175.5q5 -48 25 -111.5t47 -63.5q11 0 22.5 13t22 39.5t19 51.5t18 65.5t15 63t13.5 61.5q34 157 34 265q0 94 -48 151.5t-132 57.5 q-55 0 -114.5 -36t-88.5 -89q0 -1 -3 -6t-6 -9t-7.5 -8t-9.5 -4q-16 0 -16 18q0 17 16.5 43.5t28.5 38.5q36 38 91.5 64.5t118.5 26.5q64 0 121 -40q10 5 50.5 41.5t62.5 36.5q15 0 19 -9zM463 -97q0 10 18 10q23 0 23 -40q0 -50 -30.5 -75t-79.5 -25q-60 0 -100 28 q-2 2 -7 8.5t-9 11.5t-7 5q-5 0 -15.5 -12t-13.5 -14q-45 -31 -123 -31q-36 0 -69.5 9t-33.5 27q0 9 6.5 14t12.5 5t17 -4t15 -5q30 -5 53 -5q85 0 117 44q3 5 8 15.5t10 16t14 5.5q18 0 31 -25.5t19 -30.5q30 -23 76 -23q14 0 24.5 2.5t17 8.5t11 10.5t7 15.5t3.5 16 t2.5 19t2.5 19z" />
<glyph unicode="&#xe11;" horiz-adv-x="804" d="M332 774q2 2 14 11.5t15.5 12.5t14.5 11t16.5 11t16.5 9.5t19 9t19 6t22.5 4.5t23.5 1q97 0 148 -70.5t51 -177.5q0 -37 -4 -110.5t-4 -109.5q0 -16 0.5 -46t0.5 -46q0 -18 -1.5 -64.5t-1.5 -64.5v-92q0 -58 -19 -60q-16 0 -20 17.5t-4 53.5v32q-1 10 -1 29q0 25 2 74.5 t2 66.5q0 20 -1 62.5t-1 63.5q0 119 9 180q-1 7 -3 29.5t-3.5 32t-4.5 26t-7 29t-10 23.5q-18 35 -52 58t-80 23q-67 0 -136 -76.5t-86 -187.5q-2 -11 -6 -31.5t-6 -36t-2 -29.5q0 -8 0.5 -23t0.5 -21q0 -386 -35 -386q-1 0 -2 0.5t-2 0.5q-17 3 -17 12v2q14 172 14 325 q0 12 -0.5 37t-0.5 38q0 169 87 296q-4 9 -10.5 36t-13.5 38q-2 -1 -11 -8.5t-11.5 -9.5t-10.5 -8t-12 -8t-11.5 -6.5t-13 -6t-13 -3.5t-15.5 -3t-16 -1q-48 0 -82.5 27.5t-34.5 68.5q0 10 5 15.5t11 5.5q10 0 17.5 -12t13.5 -27t23.5 -27t43.5 -12q32 0 62 20t36 43 q2 15 16 15q27 0 61 -92z" />
<glyph unicode="&#xe12;" horiz-adv-x="1108" d="M999 844q19 -171 19 -274q0 -26 -2.5 -82.5t-2.5 -84.5q0 -15 0.5 -48.5t0.5 -50.5q0 -120 -17 -180q-15 -54 -59.5 -89t-103.5 -35q-33 0 -59 7t-47 23t-33.5 28.5t-31.5 36.5t-29 34q-2 -9 -3.5 -40t-7 -47t-20.5 -16q-17 0 -17 41q0 16 4.5 50t5.5 50q2 54 2 79 q0 41 -2.5 121t-2.5 121q0 34 4 98.5t4 92.5q0 159 -113 159q-24 0 -55 -24q-16 -12 -31.5 -40.5t-28.5 -50t-25 -21.5q-4 0 -6 1q-12 9 -23.5 31t-20.5 41t-30.5 34t-53.5 15q-35 0 -57.5 -26.5t-31.5 -77.5t-11.5 -90t-2.5 -100q0 -21 2 -58.5t2 -46.5q1 -23 1 -80t2 -94 l-1 -19q98 3 154 40.5t73 123.5q1 5 1.5 23t6 24t21.5 6q19 0 19 -25q0 -26 -14 -66q-31 -87 -96 -125t-166 -40v-28v-62q0 -7 0.5 -22t0.5 -23q0 -46 -23 -46q-18 0 -18 27q0 5 0.5 14.5t0.5 13.5q0 80 -5.5 224.5t-5.5 210.5q0 22 2 62q1 9 2 27q8 136 28 187 q35 85 127 85q10 0 19.5 -1.5t17 -3t15.5 -6t13 -7t12.5 -9.5t10.5 -9.5t10.5 -12t9 -12t10 -13.5t9.5 -13q18 42 59.5 71t91.5 29q42 0 71 -16t44 -46t21 -63.5t6 -78.5q0 -36 -4 -106t-4 -104q0 -26 1.5 -74t1.5 -72q0 -20 -0.5 -62t-0.5 -63q13 -14 37.5 -46.5t41 -51.5 t49 -36t72.5 -18q34 0 58 14t37.5 35.5t20.5 56t9 65t2 73.5v76q0 35 1.5 110t1.5 110q0 43 -6 124t-6 114q0 41 24 41q15 0 18 -14z" />
<glyph unicode="&#xe13;" horiz-adv-x="943" d="M821 850q4 1 10 1t10 -2t6.5 -6.5t4 -8.5t2 -11.5t0.5 -12v-13v-11.5q0 -21 0.5 -66.5t0.5 -68.5q0 -64 -4 -189t-4 -196q0 -111 12 -180q1 -4 4.5 -20t3.5 -25q0 -25 -22 -34q-12 4 -17 17t-7.5 32.5t-6.5 28.5q-6 -3 -11.5 -8.5t-11 -13t-9.5 -11.5q-64 -60 -137 -60 q-48 0 -88 29.5t-56 71.5q-17 41 -17 153v54q0 48 -1 137.5t-1 133.5q0 9 0.5 27t0.5 26q0 199 -191 199q-90 0 -147 -37t-57 -110q0 -33 19 -64.5t21 -38.5q8 -25 8 -64q0 -17 -5 -82q-4 -56 -11.5 -169.5t-12.5 -176.5q0 -5 -1 -14.5t-1.5 -14t-1.5 -12t-2.5 -11t-3.5 -8 t-5.5 -6t-8.5 -1.5q-21 0 -21 44q0 67 14 211t14 227q0 47 -21.5 96.5t-21.5 89.5q3 54 36 98.5t81 62.5q48 21 132 21q142 0 193 -83q40 -59 40 -145q0 -16 -1 -49.5t-1 -50.5q0 -40 2 -113.5t2 -103.5q0 -15 -1 -47t-1 -49q0 -191 124 -191q35 0 71.5 25t64.5 64 q22 29 22 42q0 6 -2 25.5t-2 28.5t-2 65t-2 90q0 25 3.5 68.5t3.5 64.5q0 36 -1.5 106t-1.5 104q0 7 -0.5 27.5t0 31.5t1.5 27.5t4.5 28t8.5 20.5z" />
<glyph unicode="&#xe14;" horiz-adv-x="692" d="M582 24q0 31 -4 98t-4 100q0 15 1 44t1 45q0 54 -4 156q0 11 -1 41t-2 41.5t-4 38t-7.5 40t-13.5 35.5t-21 37.5t-30.5 33.5t-42.5 34l-13.5 9t-14 9.5t-13 8t-15 8t-15.5 6t-18.5 5t-20 3t-23.5 1.5q-40 0 -71.5 -14.5t-51.5 -35t-34.5 -58.5t-21.5 -69t-11 -84 t-4.5 -85.5t-0.5 -90.5q0 -8 0.5 -23.5t0.5 -23.5q0 -9 -1 -27t-1 -25q0 -15 1 -45.5t1 -45.5q102 3 160 40t76 125q1 5 1.5 23t6 24t21.5 6q19 0 19 -25q0 -40 -23 -90.5t-56 -79.5q-68 -61 -203 -61q-1 -14 -1 -38q0 -8 0.5 -29t0.5 -36q0 -36 -18 -36q-26 0 -26 88 q0 9 0.5 22t0.5 17q0 23 -2 68.5t-2 64.5q0 10 2 34t2 38v26q0 93 8 182q7 96 22 157.5t49 92.5q27 24 73.5 40.5t74.5 16.5q15 0 27.5 -0.5t25.5 -3.5t20.5 -4.5t20 -7t17 -7t17.5 -10t15.5 -9.5t18 -12t17.5 -12q82 -56 113 -148q5 -15 8 -36t4 -36t2 -44t2 -39 q6 -112 6 -397q0 -79 -23 -79q-5 0 -9 4t-9 4z" />
<glyph unicode="&#xe15;" horiz-adv-x="754" d="M653 639q4 -45 4 -105q0 -57 -5.5 -176.5t-5.5 -180.5q0 -14 2.5 -53t2.5 -62q0 -47 -22 -47q-25 0 -25 43v25q0 21 -1.5 68t-1.5 70q0 66 2 99l4 73q4 81 6 183q0 77 -8 128q-8 47 -36.5 83.5t-85.5 36.5q-17 0 -30 -5.5t-20 -12.5t-13.5 -22.5t-8.5 -24.5t-6.5 -30.5 t-6.5 -29.5q-11 -8 -18 -8q-13 0 -25 37q-34 104 -112 104q-22 0 -39.5 -7t-29.5 -23t-21 -30.5t-14 -42.5t-8 -45t-4.5 -52t-1.5 -49v-50v-21q0 -52 2.5 -159t2.5 -160q125 0 193 76q13 14 23.5 41.5t18.5 46t20 18.5q18 0 18 -32q0 -39 -28 -79q-35 -48 -100 -79t-140 -33 q2 -58 2 -114q0 -38 -21 -38q-4 0 -6.5 1.5t-5 4.5t-4 6t-2.5 8t-1.5 9t-1 10t-1 9.5t-0.5 10v8.5q-15 328 -15 455q0 209 39 277q19 34 57 53.5t76 19.5q74 0 125 -73q46 66 110 66q48 0 91 -28t57 -63q6 -13 9.5 -31t4.5 -29.5t2.5 -38t2.5 -36.5z" />
<glyph unicode="&#xe16;" horiz-adv-x="680" d="M554 0q-6 3 -10 8.5t-6.5 14t-4 15.5t-2 19t-0.5 18v20v17q0 21 2 63t2 62v314q-3 133 -60.5 206t-192.5 73q-75 0 -123.5 -27.5t-48.5 -88.5q0 -23 13 -62q2 -6 10 -18.5t10 -19.5q6 -22 6 -65q0 -59 -20.5 -166.5t-20.5 -164.5q0 -83 19.5 -128.5t73.5 -45.5q17 0 36 4 q35 7 36 7q20 0 20 -15t-27 -24.5t-48 -10.5h-13q-28 0 -50.5 8.5t-37 20.5t-24.5 33.5t-15 39t-7.5 46t-3 45.5t-0.5 46q0 49 19.5 145t19.5 144q0 35 -5 57q-4 17 -20.5 55.5t-16.5 60.5q0 82 64 124.5t161 42.5q107 0 183 -51t95 -153q14 -75 14 -176v-78q0 -22 1 -73.5 t1 -75.5q0 -19 -2.5 -50.5t-2.5 -49.5t2.5 -53t2.5 -54q0 -47 -29 -59z" />
<glyph unicode="&#xe17;" horiz-adv-x="683" d="M127 5q-3 2 -5.5 3.5t-4 3t-2.5 4.5t-2 4.5t-1.5 6.5t-0.5 7.5t-0.5 10.5t-0.5 12q-2 32 -2 96q0 53 3 182.5t3 213.5q0 167 -38 225q-4 6 -24.5 22.5t-20.5 30.5q0 18 16 18q36 0 62 -42.5t37 -96.5q6 3 10 8.5t7.5 13.5t6.5 12q90 128 203 128q98 0 156 -59.5 t58 -168.5q0 -204 -4 -292q-2 -43 -2 -139.5t-3 -141.5q-2 -31 -6 -43t-16 -12q-22 0 -22 45q0 53 4 221t4 267v44t-1.5 42.5t-4 43.5t-8.5 39t-13.5 37t-20 29.5t-28.5 24.5t-38 14t-49 6q-21 0 -40.5 -4.5t-33.5 -9.5t-30.5 -19t-24.5 -20.5t-23 -27.5t-19 -27.5 t-19.5 -32.5t-18.5 -30q-12 -20 -12 -45v-41q0 -69 -4 -225t-4 -227q0 -9 2 -29.5t2 -31.5q0 -41 -27 -50z" />
<glyph unicode="&#x2219;" horiz-adv-x="683" d="M127 5q-3 2 -5.5 3.5t-4 3t-2.5 4.5t-2 4.5t-1.5 6.5t-0.5 7.5t-0.5 10.5t-0.5 12q-2 32 -2 96q0 53 3 182.5t3 213.5q0 167 -38 225q-4 6 -24.5 22.5t-20.5 30.5q0 18 16 18q36 0 62 -42.5t37 -96.5q6 3 10 8.5t7.5 13.5t6.5 12q90 128 203 128q98 0 156 -59.5 t58 -168.5q0 -204 -4 -292q-2 -43 -2 -139.5t-3 -141.5q-2 -31 -6 -43t-16 -12q-22 0 -22 45q0 53 4 221t4 267v44t-1.5 42.5t-4 43.5t-8.5 39t-13.5 37t-20 29.5t-28.5 24.5t-38 14t-49 6q-21 0 -40.5 -4.5t-33.5 -9.5t-30.5 -19t-24.5 -20.5t-23 -27.5t-19 -27.5 t-19.5 -32.5t-18.5 -30q-12 -20 -12 -45v-41q0 -69 -4 -225t-4 -227q0 -9 2 -29.5t2 -31.5q0 -41 -27 -50z" />
<glyph unicode="&#xe18;" horiz-adv-x="648" d="M571 820q2 -4 2 -6q0 -19 -33.5 -31t-48.5 -12q-28 0 -78.5 19.5t-63.5 22.5q-32 8 -74 8q-149 0 -192 -155q-5 -20 -5 -40q4 -64 47 -64q3 0 73 10q53 7 106 12q10 1 43 8t51 7q38 0 74.5 -14t52.5 -37q24 -34 24 -124v-29q0 -19 1.5 -64t1.5 -69q0 -96 -21.5 -147.5 t-82 -78t-173.5 -26.5q-42 0 -92.5 21t-68.5 58q-30 52 -30 166v57q0 6 -0.5 21t-0.5 24q0 48 21 48t21 -59q0 -19 -0.5 -46t-0.5 -39q0 -146 51 -179q53 -34 116 -34q129 0 167 30q49 39 49 177v49v40v30.5v33.5t-0.5 28.5t-2.5 30.5t-4.5 24t-7 23.5t-10.5 16.5 q-9 10 -21.5 14t-35.5 6.5t-36 5.5q-42 -3 -144 -19t-139 -16t-53.5 34.5t-16.5 68.5q0 86 67 162t171 76q43 0 125 -23q9 -2 39.5 -14.5t45.5 -12.5q12 0 32 10t30 10q13 0 25 -13z" />
<glyph unicode="&#xe19;" horiz-adv-x="724" d="M579 864q3 2 12 2q18 0 19 -10q10 -124 10 -440q0 -32 -3 -99.5t-3 -100.5q0 -136 27 -167q3 -5 3 -10q0 -9 -6 -16t-15 -7q-11 0 -19.5 7.5t-13 21t-7 25.5t-5 29t-4.5 24q-15 -8 -41 -30.5t-39 -31.5q-85 -55 -188 -55q-188 0 -193 243q0 53 7 165t7 167q0 124 -37 199 q-3 7 -12.5 19.5t-16 23.5t-6.5 19q0 17 14 17q16 0 39 -29.5t34 -56.5q32 -85 32 -212q0 -49 -6.5 -152.5t-6.5 -154.5q0 -97 37 -150t124 -53q43 0 81 14.5t59.5 31t55 45.5t51.5 42q-1 17 -1 48t3.5 101.5t3.5 97.5q0 7 -0.5 20.5t-0.5 19.5q0 12 0.5 37t0.5 38 q0 50 -4 146t-4 136q0 29 12 36z" />
<glyph unicode="&#xe1a;" horiz-adv-x="689" d="M581 854q10 -60 13 -134t2.5 -171.5t1.5 -146.5q3 -105 3 -132q0 -196 -85 -239q-28 -14 -76 -22.5t-87 -8.5q-27 0 -113 19q-28 6 -47 16t-34 22.5t-24 37.5t-15 49.5t-8.5 72t-3.5 91.5t-1 120q0 30 2 95.5t2 93.5q0 95 -32 172q-2 5 -15.5 26.5t-13.5 36.5q0 11 16 11 q13 0 23.5 -8t17.5 -22.5t11 -26t8 -26t4 -15.5q24 -76 24 -136q0 -15 -0.5 -52t-0.5 -53v-88v-195q0 -129 39 -161q44 -37 182 -37q133 0 162 66q21 47 21 139q0 58 -4.5 179.5t-4.5 169.5q0 16 0.5 50.5t0.5 52.5q0 19 -3.5 60t-3.5 68q0 31 18 31q4 0 21 -5z" />
<glyph unicode="&#xe1b;" horiz-adv-x="662" d="M558 1032q8 -28 10 -61t2 -74.5t2 -64.5q3 -50 3 -155q0 -22 -1 -62.5t-1 -58.5q0 -21 1 -45t1 -35q0 -6 -0.5 -18t-0.5 -19q0 -25 1.5 -83t1.5 -80q0 -50 -1.5 -78.5t-7.5 -65t-21 -60t-39 -37.5q-53 -30 -193 -30q-47 0 -81.5 6t-66.5 23t-50 52t-21 88q-2 44 -2 67 q0 54 3.5 178.5t3.5 179.5q0 44 -4 79q-1 7 -5 22.5t-5 23.5q-5 40 -7 48q-4 11 -18 30.5t-13 30.5q0 17 15 17q16 0 33 -20.5t24 -40.5q3 -10 5.5 -30.5t3.5 -27.5q16 -88 16 -134q0 -16 -2 -48.5t-2 -49.5q0 -14 0.5 -40t0.5 -38q0 -29 -4 -96t-4 -94q0 -61 10.5 -98 t37 -57t61 -26t94.5 -6q42 0 68.5 2t56.5 11.5t43 27.5q27 38 27 132q0 64 -3 196.5t-3 190.5q0 27 2 80t2 79q0 48 -3.5 138t-3.5 131l3 -3l1 2q2 2 4.5 4t6.5 2t10.5 -2.5t8.5 -2.5z" />
<glyph unicode="&#xe1c;" horiz-adv-x="710" d="M532 839q2 11 10 11q18 0 29 -19t23 -66v1q1 -3 2.5 -10.5t2.5 -11.5q19 -83 22 -145q1 -9 2.5 -30t2.5 -30q9 -104 9 -143q0 -95 -10 -182q-5 -43 -13 -74.5t-23 -62.5t-41.5 -47.5t-64.5 -16.5q-71 0 -126 92q-1 -1 -2 -2.5t-2 -2.5q-19 -26 -30 -39.5t-35.5 -27.5 t-52.5 -14q-47 0 -79 21.5t-49 62t-24 87t-7 108.5v34q0 27 -2 79q-1 22 -1 74q0 138 24 220q2 4 7 26q6 24 10 36.5t12.5 32.5t18 29.5t25 17.5t35.5 8q29 0 61 -26t32 -59q0 -18 -18 -18q-21 0 -38 32q-19 32 -37 33q-80 0 -80 -372v-85v-54t1.5 -51t4.5 -51.5t8 -44 t13.5 -40.5t20.5 -29t29 -21.5t38 -6.5q68 0 98 151q0 3 0.5 10t1.5 10q1 14 3 22t8.5 14.5t18.5 6.5q19 0 19 -28q0 -9 -5 -39l-3 -17q0 -20 9 -49.5t35.5 -58.5t63.5 -29q32 0 57 37q13 16 21 71q3 25 4 29q1 2 2 8t1 8q8 52 8 80v43q0 21 2 59q1 19 1 57q0 26 -6 80 q-6 48 -6 71q-2 67 -16 123v-1l-9 30q-17 51 -17 77q0 8 1 12z" />
<glyph unicode="&#xe1d;" horiz-adv-x="719" d="M494 14q-96 0 -131 103q-20 -46 -46 -74t-67 -28q-32 0 -68.5 22t-51.5 45q-71 105 -73 368q0 29 4 83q0 7 1.5 25t2.5 26q2 33 3 46.5t4 44t7 44.5t10 37.5t15 35t20.5 24.5t27.5 18t36 5q16 0 27.5 -5.5t17 -11.5t15.5 -20q0 -1 2 -2.5t2 -2.5h-1l3 -3l1 -2 q10 -12 10 -21t-6 -16.5t-14 -7.5q-13 0 -26 22q-21 29 -40 29q-73 0 -73 -309q0 -46 0.5 -78t4 -80.5t9 -82t16.5 -71.5t26.5 -61.5t39 -39t53.5 -15.5q35 0 59 51t30 115q2 18 2 26q1 21 2 31.5t7.5 20.5t18.5 10q20 0 20 -27q0 -8 -5 -45q-4 -30 -4 -44q0 -38 22.5 -81.5 t49.5 -55.5q16 -8 41 -8q20 0 33 6q21 8 35.5 38.5t20 70.5t7.5 65t2 44q0 39 -2 101q-2 54 -2 76v36q0 6 0.5 18.5t0.5 19.5q0 15 -0.5 31.5t-1.5 36.5t-1 31q-2 66 -2 97v35q0 53 -22 155q-9 42 -11 55q-1 1 -1 3t-1 3q-5 20 -5 38q0 29 20 29q19 0 24 -41q2 -14 4 -24 q8 -35 10 -45q24 -111 23 -163v-10q0 -38 4 -92q3 -37 3 -78q-5 -53 -3 -94q0 -5 0.5 -16.5t0.5 -18.5q0 -26 2 -86q2 -62 2 -93q0 -57 -5.5 -99.5t-19.5 -83.5t-44 -63t-75 -22z" />
<glyph unicode="&#xe1e;" horiz-adv-x="760" d="M658 349q2 -56 2 -89q0 -53 -4 -92t-16 -80t-38 -63.5t-66 -22.5q-82 0 -137 76q-2 -2 -7.5 -8.5t-7.5 -9.5q-14 -17 -22.5 -25.5t-25.5 -17t-37 -8.5q-32 0 -64 19.5t-48 40.5q-32 45 -32 145q0 71 15 227q0 4 1 15.5t2 16.5q4 40 6 59q13 113 13 178q0 94 -55 94 q-21 0 -35 -11t-19.5 -21.5t-10.5 -28.5q-9 -33 -24 -33q-19 0 -19 28q0 38 33.5 75t80.5 37q48 0 71 -38t23 -89q0 -25 -9 -119q-4 -42 -6 -62q0 -2 -6 -95q-4 -80 -8 -113q-8 -74 -8 -118q0 -73 25 -118.5t74 -45.5q18 0 32 9t22 21.5t14.5 35t9.5 39t7 44.5q1 4 1.5 15 t0.5 15q4 69 29 69q19 0 19 -37q0 -26 -8 -68q-6 -32 -6 -49q0 -45 41 -75t79 -30q75 0 75 235q0 6 -0.5 17t-0.5 16v49q0 47 -6 141q-1 11 -2.5 34t-2.5 34q-10 139 -18 206l-1 8q-2 18 -2 34q0 44 18 44q14 0 25 -27q8 -38 20.5 -197t12.5 -286z" />
<glyph unicode="&#xe1f;" horiz-adv-x="690" d="M560 1018q4 -12 18.5 -162.5t22.5 -252.5t8 -347q0 -52 -4 -91t-16 -79t-37.5 -62t-64.5 -22q-79 0 -138 77q-5 -5 -20.5 -24t-22.5 -25t-23 -13.5t-34 -7.5q-33 0 -65 20t-47 40q-32 43 -32 145q0 87 18.5 255.5t18.5 241.5q0 95 -56 95q-26 0 -42 -14.5t-19.5 -32.5 t-10 -32.5t-16.5 -14.5q-18 0 -18 27q0 40 33.5 75.5t81.5 35.5q46 0 68.5 -40.5t22.5 -84.5q0 -33 -7.5 -103.5t-8.5 -79.5q-3 -30 -6.5 -101t-7.5 -107q-7 -63 -7 -116q0 -76 24.5 -122t74.5 -46q23 0 39 11.5t25.5 36.5t13.5 46t9 57q1 9 2 25.5t2 27t3.5 22t8 17.5 t14.5 6q18 0 18 -36q0 -23 -6.5 -63t-6.5 -55q0 -46 40.5 -76t80.5 -30q75 0 75 235q0 303 -29 570q-1 8 -9.5 67t-8.5 90q0 42 16 42q5 0 9.5 -4.5t9.5 -12t6 -8.5z" />
<glyph unicode="&#xe20;" horiz-adv-x="642" d="M165 477q1 -20 4.5 -115t3.5 -146q0 -107 -13 -145q-21 -62 -81 -62q-20 0 -44.5 13.5t-24.5 25.5q0 8 9.5 13.5t15.5 5.5q9 0 27 -9.5t27 -9.5q14 0 23 12.5t12.5 38t4 40t0.5 42.5q0 31 -2 88.5t-2 71.5t-0.5 56t-1.5 64t-4.5 53t-10.5 51q-4 13 -25.5 53.5t-21.5 57.5 q0 31 13 58.5t24.5 39t32.5 30.5q32 28 60.5 40.5t80.5 12.5q133 0 234 -101q17 -19 36 -64t19 -74q0 -8 -1.5 -33t-1.5 -42q0 -42 5.5 -127.5t5.5 -124.5q0 -29 1 -80.5t1.5 -93t0.5 -74.5q0 -40 -21 -40q-23 0 -23 78q-1 39 -1 112t-1.5 133.5t-6.5 112.5q-4 46 -2.5 85.5 t-2.5 83t-17 70.5q-29 59 -84.5 99t-141.5 40q-37 0 -68 -12q-39 -14 -69 -53t-29 -72q0 -18 19.5 -50t24.5 -45q10 -28 16 -108z" />
<glyph unicode="&#xe21;" horiz-adv-x="674" d="M585 299q0 -4 0.5 -22t0.5 -26q0 -251 -192 -251q-104 0 -188 55q-14 9 -40 31.5t-41 30.5q-1 -5 -4 -24t-5.5 -30t-7.5 -25t-13 -21t-19 -7q-9 0 -15 6.5t-6 15.5q0 7 4 11q26 37 26 167q0 33 -3 100t-3 99q0 305 11 441q1 10 18 10q25 0 25 -42q0 -40 -4.5 -137.5 t-4.5 -148.5q0 -12 0.5 -36t0.5 -35v-40q0 -30 3 -102.5t3 -103.5v-38q17 -12 50.5 -41.5t55 -46t60.5 -31t82 -14.5t73 13.5t46.5 34t25.5 55.5t11.5 65.5t2.5 76.5q0 31 -2 59q3 72 3 73v40q0 12 0.5 38t0.5 40q0 50 -4 145.5t-4 134.5q0 41 23 41q18 0 19 -10 q11 -136 11 -441q0 -10 -0.5 -30t-0.5 -31q0 -15 0.5 -25t0.5 -24z" />
<glyph unicode="&#xe22;" horiz-adv-x="683" d="M546 850h5q18 0 23 -8q18 -130 18 -286q0 -18 -2.5 -53.5t-2.5 -53.5q0 -28 1 -85t1 -84q0 -138 -20 -174q-29 -53 -100.5 -78t-145.5 -25q-115 0 -178.5 63t-63.5 187q0 74 18 139.5t53 100.5q-90 69 -90 164q0 25 6.5 54.5t20 61.5t41 53.5t64.5 21.5t60.5 -20.5 t23.5 -60.5q-3 -9 -18 -9q-8 0 -14 9t-10 20t-14.5 20t-25.5 9q-42 0 -65.5 -51t-23.5 -106q0 -51 24.5 -86t77.5 -61q34 -18 60 -23q10 -4 37 -9t42 -12t15 -20q0 -21 -21 -21q-16 4 -50 9.5t-57 13t-39 20.5q-32 -26 -51.5 -88.5t-19.5 -131.5q0 -93 35 -141 q19 -26 71 -47t93 -21q60 0 121.5 23.5t77.5 54.5q22 41 22 117q0 36 -2 111t-2 111q0 16 2.5 47.5t2.5 46.5q0 50 -6 146.5t-6 142.5q0 4 2 5.5t5 2t5 1.5z" />
<glyph unicode="&#xe23;" horiz-adv-x="562" d="M491 811q-3 -38 -87 -38q-21 1 -74 22q-50 21 -73 21q-74 0 -114 -46t-40 -110q0 -38 11.5 -63.5t36.5 -40t45 -21t56 -13.5q222 -44 222 -231q0 -79 -28 -158.5t-75 -113.5q-38 -22 -93 -22q-81 0 -130.5 36t-49.5 90q0 13 5.5 25t15.5 12q15 0 25 -39q8 -22 9 -25 q15 -26 46.5 -41.5t73.5 -15.5q78 0 114.5 62.5t36.5 166.5q0 107 -46 152q-30 28 -159 62h1q-163 41 -163 165q0 108 58 159t147 51q40 0 85 -14q8 -3 22 -11q24 -14 40 -14q12 0 36 6q20 4 27 4q19 0 19 -17z" />
<glyph unicode="&#xe24;" horiz-adv-x="704" d="M619 505q1 -14 5.5 -79.5t4.5 -100.5q0 -31 -3 -62q-15 -153 -15 -332q0 -5 0.5 -15t0.5 -14q0 -14 -2 -41t-2 -33v-16q0 -36 -23 -41q-22 0 -22 25q0 4 1 12t1 11v3q0 12 2 37.5t2 36.5q0 10 -0.5 26.5t-0.5 24.5q0 147 8 274q1 12 4.5 45t3.5 54q0 14 -8 182 q-3 72 -7.5 113t-17.5 89t-39 77t-67 46q-57 23 -111 23q-94 0 -156 -43.5t-62 -109.5q0 -12 4.5 -25t12.5 -29.5t11 -25.5q16 -45 16 -107q0 -40 -10.5 -126.5t-10.5 -132.5q0 -33 2.5 -64t10 -67t23.5 -58t39 -22q13 0 37 6t31 6q11 0 12 -9q0 -20 -22.5 -30.5 t-52.5 -10.5q-123 0 -123 252q0 30 3 62l11 97q7 86 7 107q0 47 -13 83q-2 7 -12 28.5t-14.5 38t-4.5 32.5q0 5 2 17q17 86 94.5 129.5t175.5 43.5q42 0 112 -24q53 -18 85 -48t47.5 -86.5t20 -92t8.5 -123.5q1 -9 1 -13z" />
<glyph unicode="&#xe25;" horiz-adv-x="645" d="M551 0q-14 2 -23 18t-12.5 46t-4 48.5t-0.5 53.5v5v4.5v4.5q0 32 2 100t2 102v29q-80 15 -158 15q-135 0 -190 -51q-23 -22 -40.5 -68.5t-17.5 -95.5q0 -14 2 -28.5t3.5 -23t8 -27t7.5 -22t10 -26.5l9 -22q1 -3 7 -11.5t10 -16.5t4 -14q0 -7 -5.5 -12.5t-14.5 -5.5 q-6 2 -12 6t-10 8t-8.5 11.5t-7 12t-6.5 14.5t-5.5 13.5t-5.5 14.5t-5 14q-26 72 -26 128q0 46 22.5 101t53.5 83q70 62 223 62q71 0 148 -11q4 56 4 85q0 119 -38 186t-138 87q-19 3 -38 3q-64 0 -119 -30.5t-75 -75.5q-2 -5 -5.5 -19.5t-8.5 -21t-15 -6.5q-19 0 -19 28 q0 34 27 68.5t64 57.5q61 39 147 39q132 0 196.5 -75t64.5 -232q0 -11 -0.5 -33t-0.5 -32q0 -22 1.5 -65.5t1.5 -64.5q0 -22 -2 -64t-2 -62q0 -11 -0.5 -41.5t0 -46.5t1.5 -40.5t4.5 -44t8.5 -37.5q0 -2 0.5 -4t0.5 -4q0 -11 -20 -14z" />
<glyph unicode="&#xe26;" horiz-adv-x="724" d="M613 108q0 -14 -4 -42t-4 -42t1.5 -42t1.5 -41t-0.5 -44t-0.5 -44q0 -9 1 -27t1 -29q0 -33 -18 -33q-9 0 -15 6t-9 15t-4 20.5t-1 20.5t0.5 18t0.5 10q0 11 0.5 32t0.5 28q0 17 -1.5 53t-1.5 55q0 32 4.5 105.5t4.5 112.5q0 33 -4 96.5t-4 94.5q0 21 1.5 63t1.5 63 q0 144 -63 212.5t-200 68.5q-71 0 -143 -24q-23 -11 -44.5 -44t-21.5 -59q0 -32 40 -71.5t46 -61.5q6 -24 6 -66q0 -37 -2.5 -92t-2.5 -77q0 -35 1.5 -103t1.5 -103q0 -62 -17 -98.5t-64 -36.5q-30 0 -54.5 15.5t-24.5 34.5q0 17 14 17q7 0 29.5 -14t36.5 -14q34 0 34 77 q0 23 -1 66t-1 63q0 47 2 133t2 129q0 36 -5 56q-2 9 -8 16.5t-15.5 15.5t-13.5 13q-47 55 -47 110q0 32 25.5 70.5t68.5 58.5q66 30 161 30q166 0 235.5 -82t69.5 -242q0 -20 -1 -60.5t-1 -61.5q0 -42 3 -126t3 -125q0 -50 -1 -74z" />
<glyph unicode="&#xe27;" horiz-adv-x="538" d="M444 393v-14q0 -30 1.5 -64.5t1.5 -41.5q0 -249 -95 -262l-15 -3q-36 -6 -47 -6q-41 0 -41 21q0 12 15.5 17t43.5 7t36 4t14.5 6t11.5 11.5l9 13.5t6.5 17.5t4 18t3 19.5t2 18t1.5 18.5t1 15.5q5 60 5 74q0 25 -1.5 70.5t-1.5 54.5q0 23 2.5 58.5t2.5 60.5 q-4 154 -25 213q-17 49 -80 71h1l-15 5q-44 15 -68 14q-50 0 -84.5 -27t-48.5 -77q-3 -11 -3.5 -26t-0.5 -26.5t-0.5 -22.5t-4.5 -16.5t-12 -5.5q-24 0 -24 62q0 67 55 128h-1q40 53 131 53q29 0 79 -13t77 -35q42 -35 54.5 -116.5t12.5 -202.5q0 -16 -1.5 -44t-1.5 -48z " />
<glyph unicode="&#xe28;" horiz-adv-x="766" d="M650 982q-3 -116 -86 -167q5 -10 18 -27t18 -26q9 -16 15.5 -34.5t11.5 -43.5t7 -40.5t5.5 -49.5t5.5 -47q4 -36 4 -83q0 -30 -2 -87.5t-2 -83.5q0 -38 6.5 -112t6.5 -108v-9v-10v-10t-1 -9.5t-2 -8.5t-3 -8t-4.5 -5.5t-6 -4t-8.5 -1.5q-8 0 -13 8.5t-7 25.5t-2.5 32 t-0.5 39.5v36.5q0 19 -4.5 70.5t-4.5 76.5q0 24 1 77.5t1 82.5q0 73 -4.5 126.5t-19 105.5t-38.5 84.5t-65 52t-98 19.5t-99 -15t-67.5 -41t-41 -65.5t-21 -82.5t-5.5 -99q0 -32 3.5 -92.5t3.5 -85.5q36 41 95 71.5t118 30.5q47 0 47 -23q0 -7 -3.5 -11t-12.5 -6t-14 -2.5 t-18 -1t-14 -0.5q-63 -3 -109.5 -36.5t-86.5 -87.5q-1 -14 -1 -42q0 -18 0.5 -55.5t0.5 -56.5v-17.5v-19.5v-19t-1 -20t-2 -18t-3.5 -16.5t-5.5 -12.5t-7.5 -9t-10.5 -4q-3 0 -5.5 1t-4 3t-2.5 3.5t-2 5.5l-1.5 6t-0.5 6.5v6.5v7v6q0 13 0.5 43t0.5 46q0 69 -3.5 212 t-3.5 204q0 70 16.5 139.5t48.5 108.5q29 36 88.5 57t125.5 22q87 0 148 -38q59 36 72 88q1 4 1.5 22.5t6.5 28t23 9.5t19 -12z" />
<glyph unicode="&#xe29;" horiz-adv-x="710" d="M597 502q2 1 22 18t37 17q14 0 14 -15q0 -8 -12.5 -20.5t-32.5 -28.5t-28 -25q-13 -239 -14 -256q-11 -189 -261 -189q-95 0 -153 29q-80 39 -80 232q0 28 5 92t5 99q0 15 -0.5 46t-0.5 47q0 14 0.5 42.5t0.5 42.5q0 112 -25 164q-5 11 -27 37.5t-22 35.5q0 12 16 12 q8 0 20 -6q39 -22 60.5 -79t21.5 -127q0 -28 -0.5 -85t-0.5 -86v-44q0 -32 -5 -95.5t-5 -93.5q0 -163 58 -198q67 -25 149 -25q69 0 121.5 21.5t68.5 66.5q14 40 16.5 150t7.5 143q-65 -15 -80 -15q-42 0 -73.5 24.5t-31.5 57.5q0 19 7 34t18 15q17 0 17 -21v-14 q0 -57 68 -57q43 0 73 22q-2 33 -2 99q0 23 0.5 71t0.5 72q0 98 -6 163q0 7 8 11t16 4t13.5 -7t8.5 -19.5t5 -26t2.5 -31.5t0.5 -30t-0.5 -27t-0.5 -19q0 -29 -1 -84.5t-1 -79.5q0 -28 2 -64z" />
<glyph unicode="&#xe2a;" horiz-adv-x="680" d="M615 952q-6 -110 -107 -160q5 -8 18.5 -27t22 -34.5t12.5 -33.5q22 -88 20 -241q0 -22 -1 -64.5t-1 -62.5q0 -103 15 -304q-10 -17 -23 -17q-10 0 -17 14t-9 34.5t-3.5 44.5t-0.5 45t0 35q0 12 -3.5 43.5t-3.5 50.5q0 14 3 137q-34 -4 -105.5 -7.5t-113 -7.5t-91 -21.5 t-78.5 -49.5q-50 -54 -50 -125q0 -63 48 -142q1 -2 11.5 -14t10.5 -21t-6 -13.5t-11 -4.5q-34 0 -65.5 67t-31.5 134q0 140 145 206q52 24 180 32t156 13q-2 65 -4.5 97.5t-10 84t-25 85.5t-45.5 58q-47 30 -130 30q-115 0 -176 -62q-28 -29 -48 -110q-5 -11 -19 -11 q-18 3 -19 11q0 111 96 177q56 38 194 38q72 0 123 -25q2 -1 6 -1q19 0 47 28.5t36 52.5q1 3 4 20.5t9.5 25t20.5 7.5q20 0 20 -12z" />
<glyph unicode="&#xe2b;" horiz-adv-x="704" d="M151 562q144 4 239.5 72.5t135.5 185.5q3 7 5.5 26t8.5 25.5t21 6.5q20 0 20 -15q-9 -68 -38.5 -119.5t-78.5 -102.5q73 -36 105 -100t32 -176q0 -29 -2 -86.5t-2 -84.5v-17q0 -18 -2.5 -56.5t-2.5 -56.5q0 -5 0.5 -15.5t0.5 -15.5q0 -18 -27 -18q-21 0 -21 45t4 150.5 t4 157.5q0 74 -10.5 114.5t-42.5 81.5q-11 14 -33 30t-37 16q-8 0 -23 -11l-15 -11q-119 -64 -239 -69q-3 -29 -3 -78v-62q0 -41 -5.5 -126.5t-5.5 -129.5q0 -54 4 -97q-1 -6 -9.5 -12.5t-18.5 -6.5q-19 0 -19 42v18q0 15 -1 45.5t-1 47.5q0 31 4.5 95.5t4.5 98.5 q0 36 1.5 108t1.5 106q0 167 -37 251q-29 43 -29 56q0 12 15 12q31 0 54.5 -49.5t33 -112.5t9.5 -125q0 -26 -1 -38z" />
<glyph unicode="&#xe2c;" horiz-adv-x="795" d="M674 463q0 -27 4 -86t4 -91q0 -61 -5 -105t-19 -84.5t-42.5 -61.5t-71.5 -21q-29 0 -50 15.5t-43 48t-29 40.5q-1 -1 -8.5 -14.5t-9 -15.5t-8.5 -13.5t-9.5 -14t-10 -11.5t-12.5 -11.5t-13 -8t-15.5 -7t-17 -3.5t-19.5 -2q-35 0 -57 15q-47 31 -61 67t-14 96v47 q0 20 -0.5 57t-0.5 55v118q0 13 -0.5 38.5t-0.5 39.5t0.5 43t0.5 44q0 40 -2 68t-7.5 60.5t-19.5 50t-36 17.5q-18 0 -31 -38.5t-28 -38.5q-18 0 -20 21q4 94 80 94q29 0 54 -19t36 -45q3 -8 6 -16.5t4.5 -19.5t3 -19t2.5 -22l1.5 -21t0.5 -24v-22.5v-24.5v-23 q0 -36 -1 -113.5t-1 -117.5q0 -21 1 -60.5t1 -58.5q0 -30 0.5 -46.5t3 -45.5t8.5 -46t16 -35.5t27 -27t40 -8.5q32 0 56.5 35t36 78t15.5 88v14t1 19.5t8.5 13.5t20.5 7q10 0 13 -5.5t3 -22.5q0 -20 -6.5 -52.5t-6.5 -47.5q0 -41 37.5 -83t72.5 -42q15 0 27 5.5t20.5 19 t14.5 25t9.5 34t5.5 35.5t3 40t1 36.5v35.5q0 47 -4 146t-4 140q0 13 0.5 35t0.5 31q0 34 -12 76t-26 59q-13 15 -45.5 23t-57.5 16t-25 24q0 8 6 11q90 34 118 54q60 43 60 115q0 7 -3 23.5t-3 26.5q0 7 19 7q32 0 32 -58q0 -131 -149 -178q72 -21 93 -54q36 -65 36 -190 v-26q0 -17 0.5 -52.5t0.5 -54.5z" />
<glyph unicode="&#xe2d;" horiz-adv-x="672" d="M185 547q3 -7 3 -15q0 -11 -10 -29t-11 -22q-34 -88 -34 -217q0 -69 28.5 -130t84.5 -80q33 -11 82 -11q128 0 170 70q19 32 34.5 93.5t16.5 102.5v39q0 21 1.5 65t1.5 67q0 50 -6 93q-2 10 -7 30t-7 30q-12 66 -24 86q-17 27 -54 53q-38 26 -62.5 33.5t-69.5 7.5 q-83 0 -164 -43q-13 -7 -46 -39t-46 -32q-3 0 -7 1.5t-8.5 5.5t-4.5 10q0 22 44.5 59.5t92.5 55.5q75 29 157 29q98 0 188 -90q22 -22 30.5 -46t17.5 -73q20 -110 20 -169v-68v-52q0 -67 -16.5 -155.5t-54.5 -128.5q-41 -43 -80 -60q-63 -15 -121 -15q-122 0 -179 74.5 t-57 199.5q0 132 39 219q2 3 7 14.5t7.5 16.5t7.5 12.5t10 11t10 3.5q8 0 16 -7z" />
<glyph unicode="&#xe2e;" horiz-adv-x="686" d="M604 596q7 -43 7 -97q0 -12 -0.5 -38t-0.5 -39v-52q0 -69 -16.5 -159t-54.5 -131q-3 -2 -11.5 -13t-14.5 -16q-50 -46 -175 -46q-122 0 -178.5 75t-56.5 200q0 69 14 149q7 36 27 84.5t39 48.5t19 -20q0 -12 -10 -30.5t-11 -22.5q-34 -88 -34 -224q0 -105 48.5 -162.5 t147.5 -57.5q80 0 118 22q44 24 73 105t29 155v29q0 21 1.5 65t1.5 67q0 41 -20 153q-6 34 -8.5 45t-11 31.5t-22 33.5t-36.5 29q-39 26 -63.5 33.5t-68.5 7.5q-36 0 -83 -12.5t-81 -30.5q-13 -7 -46 -39t-46 -32q-3 0 -7 1.5t-8.5 5.5t-4.5 10q0 21 45 58.5t92 56.5 q75 29 157 29q73 0 129 -41q19 7 43.5 33.5t30.5 45.5q1 3 4 20.5t9.5 25t20.5 7.5q20 0 20 -11q-6 -101 -90 -151q36 -32 47.5 -57t21.5 -81q2 -9 7.5 -31t6.5 -32z" />
<glyph unicode="&#xe2f;" horiz-adv-x="673" d="M524 -26q-7 -7 -19 -7q-9 4 -13 14.5t-4.5 19t0.5 26.5t1 24q0 17 -3 470q-29 -8 -70.5 -32t-82 -39t-88.5 -10q-92 9 -155 120q-29 54 -37.5 127t13.5 145q18 8 35 -14q-21 -118 8 -197q28 -77 76 -114q35 -26 67 -29q22 -2 45 3.5t37 12t38.5 20.5t34.5 19 q8 4 37.5 15.5t43.5 22.5q-1 24 -4 179q0 4 -1.5 27t0 37.5t6.5 23.5q30 15 36 -36q2 -16 2 -63q0 -23 2 -55t2 -38q3 -53 0.5 -306.5t-2.5 -305.5q0 -6 0.5 -16.5t1 -16t-1 -13.5t-5.5 -14z" />
<glyph unicode="&#xe30;" horiz-adv-x="468" d="M87 289q5 -6 3 -11.5t-7.5 -15.5t-5.5 -16q-1 -21 24 -35t52 -17q40 -3 81.5 11.5t71.5 38.5q5 4 26 28.5t36 27.5q11 2 19.5 -2t9.5 -9q1 -3 0 -7t-4.5 -7.5l-6.5 -6.5t-8 -7t-7 -6q-4 -4 -14 -15.5t-15 -15.5q-39 -33 -102 -54.5t-118 -9.5q-34 8 -59 30.5t-24 53.5 q1 22 14.5 38.5t33.5 6.5zM70 706q2 -5 2.5 -17.5t2.5 -23t9 -20.5t24.5 -15t45.5 -3q26 2 89 24q44 18 48 21q6 4 32.5 27.5t41.5 25.5q9 2 18 -1.5t10 -11.5q0 -6 -7.5 -14.5t-23 -20t-16.5 -12.5q-21 -19 -56 -34q-88 -38 -136 -41q-28 -2 -59.5 7t-44.5 23 q-12 14 -13 57q-1 40 17 37q7 -1 16 -8z" />
<glyph unicode="&#xe31;" d="M-69 1154q10 3 18.5 -0.5t10.5 -11.5q3 -12 -13 -34t-28 -33q-11 -11 -26 -23q-45 -38 -74 -53q-83 -42 -132 -19q-32 15 -42.5 62t14.5 77q25 28 47 31q13 2 24.5 -2.5t7.5 -17.5q-1 -4 -7 -8t-14 -7t-11 -6q-18 -16 -23 -31q-8 -32 9.5 -51t52.5 -15q38 6 91 45 q37 28 55 50q4 5 11 16.5t14 19.5t15 11z" />
<glyph unicode="&#xe32;" horiz-adv-x="476" d="M372 18q-11 -5 -17 -3q-16 6 -18 34q-1 18 -0.5 28t2.5 27t2 24q2 33 0 89.5t-2 85.5q0 16 2 45.5t2 37.5q0 14 -1 42t-1 42q0 27 2 88.5t1 92.5q0 69 -17 96q-34 54 -122 70.5t-150 -17.5q-8 -4 -18 -14.5t-18 -15.5t-15 -1q-37 31 44 71q51 25 92 26q108 3 187 -54 q5 -4 17 -14q13 -11 17 -17q22 -26 26 -111q2 -10 0.5 -89.5t-1.5 -93.5v-27.5v-33v-28.5q-1 -91 -4 -172q-1 -16 0.5 -47.5t1.5 -46.5q0 -7 -2.5 -25t-2.5 -27q0 -6 1 -16t1 -16t-2 -14.5t-7 -15.5z" />
<glyph unicode="&#xe33;" horiz-adv-x="513" d="M372 -2q-11 -5 -17 -3q-16 6 -18 34q-1 18 -0.5 28t2.5 27t2 24q2 33 0 89.5t-2 85.5q0 16 2 45.5t2 37.5q0 14 -1 42t-1 42q0 27 2 88.5t1 92.5q0 69 -17 96q-34 54 -122 70.5t-150 -17.5q-8 -4 -18 -14.5t-18 -15.5t-15 -1q-37 31 44 71q51 25 92 26q108 3 187 -54 q5 -4 17 -14q13 -11 17 -17q22 -26 26 -111q2 -10 0.5 -89.5t-1.5 -93.5v-27.5v-33v-28.5q-1 -91 -4 -172q-1 -16 0.5 -47.5t1.5 -46.5q0 -7 -2.5 -25t-2.5 -27q0 -6 1 -16t1 -16t-2 -14.5t-7 -15.5zM-185 1174q34 1 64 -20t43 -51q12 -27 7 -63q-7 -51 -52.5 -77.5 t-105.5 -12.5q-29 7 -54.5 31t-28.5 55t17.5 65t44.5 49q1 1 10.5 6t15.5 8q19 9 39 10zM-231 1120q-15 -10 -28.5 -31.5t-12.5 -38.5q0 -20 18.5 -40.5t37.5 -25.5q36 -7 63.5 6t34.5 38q12 40 -13 77.5t-64 30.5q-21 -4 -36 -16z" />
<glyph unicode="&#xe34;" d="M-533 973q-11 -1 -15 6.5t0 15.5q11 19 60 38q55 21 128.5 26t143.5 -12q95 -26 98 -47q1 -8 -6 -16t-15 -10q-6 -1 -12.5 1.5t-15 7t-12.5 5.5q-111 45 -234 24q-26 -4 -64.5 -19t-55.5 -20z" />
<glyph unicode="&#xe35;" d="M-519 976q-8 -1 -13 6t-2 16q3 11 31 29t44 23q72 18 155 8.5t136 -34.5q0 10 -2.5 33.5t-2 38t8.5 18.5q6 2 10 2.5t7.5 -1t6 -3.5t4 -7t2.5 -9t2 -11t1.5 -11.5t0.5 -13.5q0 -6 2 -21.5t2 -24t-1 -20t-6 -17.5t-14 -8q-5 -1 -14 2t-22 8t-18 7q-92 36 -180 31 q-50 -2 -74 -10q-10 -4 -29 -16.5t-35 -14.5z" />
<glyph unicode="&#xe36;" d="M-556 994q-36 28 35 44q8 1 23 4q6 1 9 2q77 14 216 -12q-10 28 6.5 65t42.5 50q18 9 40.5 9.5t36.5 -7.5q35 -22 37 -75t-32 -80q-25 -19 -43 -19q-19 1 -125 21.5t-171 9.5q-7 -1 -27.5 -5.5t-33 -6.5t-14.5 0zM-238 1061q1 -15 24.5 -31.5t37.5 -13.5q23 5 22 52 t-24 52q-3 1 -14 -2q-19 -4 -33.5 -21.5t-12.5 -35.5z" />
<glyph unicode="&#xe37;" d="M-269 1039q14 -5 43.5 -9.5t38.5 -6.5v47v7.5v10v11t1 11.5t2 10.5t3.5 8.5t5.5 5t8 1.5t11 -3.5q11 -6 12.5 -30t-0.5 -52t2 -56q0 -1 -4 -7q-7 -7 -17.5 -8.5t-19 0t-25 5t-27.5 5.5q-116 18 -193 17q-23 0 -66 -6.5t-65 -5.5q-4 2 -6.5 11t1.5 18q108 35 250 21 q2 11 1.5 30.5t-1 30.5t2.5 18q33 34 39 -34q1 -10 2 -30q1 -15 1 -20z" />
<glyph unicode="&#xe38;" d="M-247 -158q0 22 27.5 44.5t58.5 24.5q17 1 30 -2.5t22 -13t15 -19.5t9.5 -28t5.5 -31t2 -35.5t-0.5 -35.5t-1.5 -37t-1 -34q-5 -15 -17 -17.5t-19 7.5q-3 5 -5 18t-2 25t0.5 29t0.5 18q0 4 0.5 15.5t0.5 16.5v15.5t-1 16t-2.5 13.5t-4 13t-6 10t-8.5 7.5t-11 3.5 q-19 4 -38 -10q-4 -3 -11 -12.5t-13.5 -15.5t-13.5 -5q-15 3 -17 19z" />
<glyph unicode="&#xe39;" d="M-273 -316q-12 26 -14 98q0 7 1 19.5t1 21t-0.5 17.5t-3.5 14t-9 5q-15 1 -25.5 -10t-18.5 -21.5t-17 -9.5q-18 4 -19 23.5t12 33.5q22 26 79 26q17 0 30 -14t13 -39q0 -10 -2 -39.5t-2 -47.5t6 -38.5t19 -29.5q23 -11 40 -8.5t27 10.5q25 16 28 67q1 18 -2.5 73t2.5 56 q3 9 15 13t21 -3q7 -6 10 -33q6 -51 -2 -111q-4 -40 -29 -73.5t-62 -38.5q-31 -5 -60 9.5t-38 29.5z" />
<glyph unicode="&#xe3a;" d="M-109 -139q18 -45 -22 -80.5t-83 -15.5q-18 8 -27.5 29t-5.5 41q7 32 37 52.5t61 6.5q12 -4 19 -11q17 -15 21 -22zM-183 -201q19 -1 28.5 19t-2.5 38q-32 10 -44 -18q-10 -23 5 -35q6 -4 13 -4z" />
<glyph unicode="&#xe3b;" />
<glyph unicode="&#xe3c;" />
<glyph unicode="&#xe3d;" />
<glyph unicode="&#xe3e;" />
<glyph unicode="&#xe3f;" horiz-adv-x="721" d="M609 417q41 -61 41 -168q0 -68 -21 -115.5t-62.5 -74.5t-92.5 -40t-122 -17q0 -44 3 -89q-2 -16 -23 -16q-6 0 -10 3.5t-6.5 10.5t-3.5 13.5t-1.5 18t-0.5 18.5v20v18q-75 0 -111 3q-6 1 -29 1t-44 1.5t-32 5.5q-7 3 -12 42.5t-5 61.5q0 16 2.5 50t2.5 51q0 16 -1 47 t-1 45v15q18 245 18 375q0 28 -5 86t-5 87q0 52 12 92q3 14 93 14q40 0 120 -4v32t1 42.5t3.5 39.5t9.5 32.5t17 11.5q19 0 19 -22q0 -6 -2.5 -19t-2.5 -18q-2 -40 -2 -60q0 -28 1 -42q56 -5 90 -11t71.5 -19.5t57 -35t32.5 -58t13 -87.5q0 -85 -52 -141.5t-138 -80.5 q130 -49 178 -119zM140 930q-1 -19 -1 -58q0 -37 2 -114.5t2 -116.5q0 -59 -2 -88q21 3 64 3h39q61 0 110 5q10 0 32.5 7t28.5 8l57 12q12 4 24.5 13.5t18.5 15.5t19.5 22t15.5 19q7 8 12 16.5t7.5 13.5t4 14.5t1.5 13v15v14.5q0 75 -13 101q-26 50 -98 67.5t-179 17.5 q-22 0 -63 -0.5t-59 -0.5h-23zM604 211q2 24 2 36q-2 102 -40 154q-11 15 -71 56q-34 23 -64.5 33.5t-75.5 12.5q-9 0 -26.5 3.5t-25.5 3.5q-5 0 -15.5 -1.5t-15.5 -1.5q-133 0 -133 -12q0 -36 -7 -92.5t-9 -85.5q0 -5 1.5 -15t1.5 -16q0 -17 -1 -47.5t-1.5 -55.5t-0.5 -47 q0 -56 3 -82q23 -1 77 -7t93 -6h26q139 14 178 26q72 22 93 87q8 25 11 57z" />
<glyph unicode="&#xe40;" horiz-adv-x="300" d="M175 64q8 -10 29 -1t39.5 18.5t35.5 -2.5q10 -11 -7.5 -28t-39.5 -27q-23 -12 -52.5 -9t-43.5 21q-16 20 -29 84q-14 60 -14 193q-2 172 3 296q1 22 6 85.5t5 94.5q0 6 -1 18.5t-0.5 20.5t1.5 17t5.5 14t11.5 6q22 3 25.5 -42t-1.5 -65q-1 -17 -8 -147.5t-6 -184.5 q0 -24 2 -61.5t2 -58.5q0 -63 1.5 -98.5t10 -78t25.5 -65.5z" />
<glyph unicode="&#xe41;" horiz-adv-x="526" d="M375 868q14 -1 15.5 -71t-3.5 -186.5t-4 -165.5q0 -8 0.5 -85t2.5 -126q2 -65 11 -104q14 -69 41 -72q9 -1 39 28t43 19q18 -21 -18 -52q-13 -12 -16.5 -15t-16.5 -11.5t-21 -10t-21 0t-25 8.5q-12 8 -22 21.5t-16 35.5t-10 40t-6.5 49t-3.5 46.5t-2.5 49t-1.5 41.5 q-3 1 -2 126l2 126q0 89 3 133q1 20 2 65t3 67q4 34 10 39q5 5 17 4zM175 64q8 -10 29 -1t39.5 18.5t35.5 -2.5q10 -11 -7.5 -28t-39.5 -27q-23 -12 -52.5 -9t-43.5 21q-16 20 -29 84q-14 60 -14 193q-2 172 3 296q1 22 6 85.5t5 94.5q0 6 -1 18.5t-0.5 20.5t1.5 17t5.5 14 t11.5 6q22 3 25.5 -42t-1.5 -65q-1 -17 -8 -147.5t-6 -184.5q0 -24 2 -61.5t2 -58.5q0 -63 1.5 -98.5t10 -78t25.5 -65.5z" />
<glyph unicode="&#xe42;" horiz-adv-x="399" d="M96 1110q-11 -4 -19.5 -17t-5.5 -26q1 -4 4 -7t8.5 -5.5t9.5 -3.5t11 -2.5t9 -2.5q55 -16 89 -60q20 -50 23 -69q3 -24 3 -53q0 -33 -4 -107q-2 -29 -3 -83t-2 -71q-1 -28 -1.5 -80.5t-0.5 -69.5q0 -7 -0.5 -34.5t-0.5 -35.5q0 -24 -2.5 -86t-0.5 -110q0 -12 -1.5 -36.5 t-0.5 -34.5q3 -24 14 -48t28 -25q8 0 29 18.5t32 8.5q10 -13 0 -28.5t-33 -27t-41 -9.5q-34 3 -53 37q-7 14 -10.5 31.5t-4.5 30.5t-1 37t-1 38q-2 41 2.5 124t2.5 129q-1 13 1 43q0 39 2 129q3 137 4 153q4 120 -4 172q-3 26 -21 48q-13 17 -67.5 36t-57.5 38q-5 25 7 55 q8 22 34 35t59 13q12 1 36.5 -4t28.5 -6q5 -1 16.5 -1.5t17.5 -2.5q5 -1 20 -5.5t28 -6.5t26 -1q7 0 14.5 2.5t16.5 6.5t14 6q37 12 41 -8q4 -19 -31.5 -35t-61.5 -17q-25 -1 -70 11t-53 13q-61 11 -79 4z" />
<glyph unicode="&#xe43;" horiz-adv-x="382" d="M247 52q8 0 29 18.5t32 8.5q11 -13 1 -28.5t-33.5 -27t-41.5 -9.5q-35 4 -52 37q-7 14 -11 32t-4.5 30t-1 37.5t-0.5 37.5q-2 41 2 124t2 129q0 6 0.5 20.5t0.5 22.5q0 39 2 129q1 19 1 63.5t2 71.5q4 47 38 111q31 58 54 89q32 45 36 71q2 13 0 27q-5 32 -10 43 q-11 21 -28 38q-17 16 -51.5 20.5t-62.5 -3.5q-15 -4 -39 -21.5t-34 -30.5q-15 -19 -24 -45t-1 -45q3 -6 15.5 -14.5t12.5 -16.5q-1 -15 -19 -18q-15 0 -24 6.5t-20 22.5q-1 1 -2.5 7t-3.5 9q-5 24 7 59q10 29 20.5 46.5t30.5 34.5q22 16 37 27q32 23 92 22t91 -25 q26 -19 38 -49q15 -34 18 -58q3 -9 0.5 -22t-2 -19t-4.5 -17t-6.5 -15.5t-7.5 -14.5t-9 -14t-10 -13.5t-10 -13.5q-28 -41 -53.5 -94.5t-26.5 -80.5q-2 -27 -2.5 -73t-1.5 -66q-1 -24 -1 -150q-2 -30 -2 -70q0 -20 -3 -95t1 -101q0 -12 -1.5 -36.5t-0.5 -34.5 q2 -23 13 -47.5t28 -25.5z" />
<glyph unicode="&#xe44;" horiz-adv-x="360" d="M257 43q8 0 29 18.5t32 8.5q11 -13 1 -28.5t-33.5 -27t-41.5 -9.5q-33 3 -52 37q-7 14 -11 32t-4.5 30t-1 37.5t-0.5 37.5q-2 41 2 124t2 129q0 6 0.5 20.5t0.5 22.5q1 19 1.5 63.5t0.5 65.5q1 16 1.5 58t1.5 71t5 54q2 11 7 34.5t7 35.5q9 55 14 69q6 20 17 40t27 44 t24 39q28 54 0 58q-6 1 -13 -1.5t-12 -6t-11 -8.5t-7 -6q-4 -3 -13 -10.5t-13.5 -10.5t-12.5 -8t-17 -8t-20 -4q-113 -15 -168 62q-14 19 -14 34t26 10q8 -2 13 -7.5t11 -14.5t10 -13q21 -21 54.5 -30.5t78.5 1.5q13 4 32 22t40.5 30t48.5 7q44 -9 49 -42q2 -15 -5 -31.5 t-21 -37.5t-15 -23q-44 -73 -48 -85q-5 -14 -14 -69q-2 -11 -7 -34.5t-7 -35.5q-4 -34 -5.5 -103.5t-2.5 -80.5q-1 -49 -1 -150q0 -7 -1 -34.5t-1 -35.5q0 -20 -3 -95t1 -101q0 -12 -1.5 -36.5t-0.5 -34.5q2 -23 13 -47.5t28 -25.5z" />
<glyph unicode="&#xe45;" horiz-adv-x="554" d="M432 -222q-9 -4 -15 -12q-2 -3 -6.5 0.5t-5.5 0.5q-10 8 -10 45q-1 20 -2.5 30.5t-1.5 12.5v32q2 68 4 243v192q0 19 2 69.5t1 78.5q-1 17 -1.5 76t-2.5 84t-11 63t-25 63q-22 34 -75.5 50t-109.5 8q-45 -5 -79 -22q-9 -5 -30.5 -26t-38.5 -22q-24 40 43 77 q59 35 148.5 35.5t145.5 -37.5q20 -14 38 -41q21 -33 31 -92t11.5 -101.5t1.5 -120.5v-20q1 -21 -2.5 -61t-3.5 -57q-1 -45 -1 -157t-3 -163q-3 -55 -1.5 -118.5t-0.5 -109.5z" />
<glyph unicode="&#xe46;" horiz-adv-x="649" d="M310 738q0 -12 6.5 -43.5t4.5 -49.5t-21 -19q-7 1 -11.5 4.5t-7 10t-3.5 10t-2.5 12.5t-1.5 11q-13 70 -25 90q-18 27 -49 32q-23 3 -48 -13.5t-38 -36.5q-22 -35 -29 -153q-4 -64 16.5 -95.5t75.5 -19.5q3 1 17.5 7.5t22.5 2.5q16 -37 -48 -48q-5 0 -15 -2.5t-14 -2.5 q-43 0 -73 38q-18 23 -21 70.5t2 91.5q8 115 55 163q27 27 49 34q40 14 80 -1.5t59 -46.5q6 5 20 20.5t21.5 22t22.5 13.5t32 8q61 2 104 -36t48 -98q1 -16 -0.5 -46t-1.5 -40q5 -347 -2 -487q0 -44 -1 -65q-2 -46 2 -181q0 -1 0.5 -14.5t0 -22t-2 -20.5t-5.5 -19t-11 -8 q-16 -3 -20 11.5t-4 44.5q0 19 -0.5 42t-0.5 38q0 13 -1.5 57t-0.5 61q0 10 1 38t2 40q2 14 2 141v149q0 21 1.5 71.5t0.5 78.5q0 10 -1 52t-2.5 59t-9 42.5t-20.5 39.5q-14 14 -37.5 23.5t-41.5 7.5q-13 -2 -25.5 -11t-18 -14.5t-19 -24t-13.5 -19.5z" />
<glyph unicode="&#xe47;" d="M-382 1121q-22 -19 -22.5 -50.5t23.5 -50.5q15 -11 35 -15.5t34 1.5q8 4 11.5 14t5.5 23t4 18q2 6 11 8t17 -4q6 -5 15 -22.5t20 -26t28 -3.5q15 4 28 22q4 6 6.5 18.5t6.5 21t13 9.5q19 2 22 -9q4 -40 -28.5 -76.5t-73.5 -30.5q-25 5 -40 34q-5 -18 -28 -30t-50 -9 q-28 4 -57 21q-43 33 -45 89.5t38 84.5q17 12 49 23.5t56 13.5q32 0 37 0.5t38 -4.5t39 -6q14 -2 25 -2q13 1 33.5 10.5t28.5 10.5q12 1 20 -4t9 -13q3 -23 -37 -37t-76 -11q-14 1 -48.5 6.5t-47.5 5.5t-45 -5q-39 -14 -55 -25z" />
<glyph unicode="&#xe48;" d="M-164 1428q7 -4 8 -38t-1.5 -87t-2.5 -72q1 -7 -7.5 -10.5t-21.5 -3.5q-10 0 -12 11q-5 35 4 156q2 41 8 47q7 7 25 -3z" />
<glyph unicode="&#xe49;" d="M-313 1225q134 11 198 93q9 10 24.5 6.5t15.5 -16.5q-1 -4 -2.5 -8.5t-3 -7.5t-5 -7.5t-5.5 -6.5l-6.5 -6.5t-6.5 -6t-7.5 -6t-6.5 -5.5q-30 -23 -61 -36q-119 -52 -189 -27q-4 2 -5 5.5t1.5 8t5.5 9t6.5 10t5.5 8.5q7 13 11.5 26t6.5 28t-6 23t-26 7q-9 -1 -21 -10.5 t-25 -10.5q-14 0 -14 13q-1 25 26 40.5t57 10.5q24 -3 42 -26.5t13 -54.5q-2 -9 -11.5 -25t-11.5 -28z" />
<glyph unicode="&#xe4a;" d="M-163 1255q37 2 69 28q43 35 50 2q3 -16 -25 -37t-49 -27q-19 -6 -48.5 -4.5t-35.5 15.5q-5 11 -4.5 30.5t-1.5 32.5q-6 24 -24.5 41.5t-43.5 15.5q-23 -2 -35 -19q-5 -7 -7.5 -21t-7 -22.5t-16.5 -8.5q-11 0 -28 24.5t-29 27.5q-39 12 -65.5 -12.5t-21.5 -63.5 q1 -5 4.5 -15t6 -17.5t1.5 -15.5t-9 -12q-19 -6 -33 22.5t-13 56.5q1 53 51 85.5t105 9.5q3 -1 8 -5.5t9 -7.5l5 -4q3 0 16 14t16 15q58 36 112 -10t44 -118z" />
<glyph unicode="&#xe4b;" d="M-167 1327q1 -6 54.5 -2t52.5 -15q-1 -12 -8.5 -19.5t-20.5 -9.5t-24.5 -2.5t-28 0.5t-23.5 1q0 -15 -1.5 -28t-5 -26.5t-11 -19.5t-18.5 -1q-10 4 -11 16t1.5 31t0.5 28q-15 -2 -45 -2h-37q-17 3 -17 20q2 17 20 21.5t38.5 1.5t40.5 2q-4 27 3.5 58.5t31.5 10.5 q6 -5 7.5 -16.5t0.5 -23.5t0 -25z" />
<glyph unicode="&#xe4c;" d="M-67 1476q52 -17 -16 -57q-6 -4 -18 -10q-14 -8 -19 -11q-87 -54 -117 -81q-2 -1 -9.5 -7.5t-11 -10l-9 -9t-8.5 -10t-3 -8.5q-1 -9 4 -18t11 -12q13 -6 31.5 -3t36.5 0.5t20 -15.5q3 -23 -41.5 -25t-63.5 10q-19 10 -31.5 30.5t-6.5 46.5q1 6 6.5 13.5t10 11.5t13 12 t11.5 10q3 3 21.5 20.5t28.5 24.5q11 7 37 22t39 24q8 6 19.5 15.5t21.5 16.5t23 12q19 8 20 8z" />
<glyph unicode="&#xe4d;" d="M-215 1174q34 1 64 -20t43 -51q12 -27 7 -63q-7 -51 -52.5 -77.5t-105.5 -12.5q-29 7 -54.5 31t-28.5 55t17.5 65t44.5 49q1 1 10.5 6t15.5 8q19 9 39 10zM-261 1120q-15 -10 -28.5 -31.5t-12.5 -38.5q0 -20 18.5 -40.5t37.5 -25.5q36 -7 63.5 6t34.5 38q12 40 -13 77.5 t-64 30.5q-21 -4 -36 -16z" />
<glyph unicode="&#xe4e;" d="M-326 1253q-30 24 -30 59q0 64 76.5 112t168.5 48q81 -2 127 -20l23 -9v-65q-46 15 -61.5 20t-39 9t-49.5 4q-59 0 -121.5 -31.5t-62.5 -67.5q0 -24 78 -43l22 -8v-51h-30q-3 0 -11 1t-12 1q-37 0 -80 -33.5t-43 -58.5q0 -32 28 -53t73 -21q82 0 116 61l11 17h63l-18 -45 q-51 -94 -172 -94q-71 0 -116.5 38.5t-45.5 96.5q0 81 106 133z" />
<glyph unicode="&#xe4f;" horiz-adv-x="634" d="M332 690q34 1 69.5 -15t58.5 -38q56 -51 69 -121q16 -110 18 -131q6 -70 -3 -116q-4 -22 -34 -76q-46 -79 -120 -104q-52 -18 -91 -18q-69 0 -127 56q-32 29 -53 70q-2 4 -11.5 19t-12.5 24q-21 59 -19.5 133t23.5 129q11 30 38 71q46 70 103 99q2 1 6 2.5t6 2.5q3 2 8 4 t6 2q11 5 66 7zM258 648q-36 -15 -65 -48q-46 -50 -70 -128t-12 -161q5 -51 44 -114q27 -48 72 -74q54 -33 120 -15q85 21 128 91q3 6 10 17.5t9 15.5q24 55 16 147q-9 132 -27 172q-19 41 -62.5 74.5t-90.5 32.5q-53 -2 -72 -10zM304 512q53 10 88.5 -12t45 -61t6 -82 t-26 -80.5t-54.5 -51.5q-44 -19 -100.5 5t-72.5 60q-20 49 -4 109.5t49 84.5q29 20 69 28z" />
<glyph unicode="&#xe50;" horiz-adv-x="696" d="M373 750q42 1 86 -19t72 -47q70 -63 85 -149q18 -114 22 -162q7 -85 -3 -143q-7 -31 -43 -94q-56 -98 -147 -128q-66 -22 -113 -22q-84 0 -157 69q-39 36 -65 86q-1 3 -13 22.5t-16 30.5q-26 73 -24 164t29 160q14 37 46 87q57 87 127 122q2 1 7 3t8 4q1 0 17 7 q11 4 82 9zM282 698q-44 -19 -81 -60q-56 -61 -85.5 -157t-15.5 -199q7 -61 55 -141q33 -59 89 -91q67 -41 147 -19q57 15 93.5 41.5t64.5 71.5q19 30 24 41q30 67 20 181q-12 164 -34 212q-24 51 -77 92.5t-111 39.5q-66 -2 -89 -12z" />
<glyph unicode="&#xe51;" horiz-adv-x="634" d="M542 474q20 -57 24.5 -125t-14.5 -136q-2 -5 -10.5 -33t-13.5 -43q-28 -79 -81 -121l-6 -6q-3 -1 -18 -16q-51 -51 -118 -83q-21 -9 -49 -25q-1 -1 -6.5 -5t-7.5 -5.5t-7 -3.5t-8.5 -2.5t-8 1t-8.5 4.5q-2 9 -0.5 17t8.5 14t11 9t14.5 8t11.5 6q6 3 27.5 14t29 15 t23 13.5t26.5 18.5t23 20q3 3 25 23t29 27.5t20.5 24.5t21.5 33q5 9 17 53q2 9 9.5 25.5t9.5 24.5q7 27 7 103q-2 170 -103 257q-31 26 -68 43.5t-84 24t-86 -16.5q-42 -22 -70 -63.5t-33 -94.5q-8 -85 48 -188q55 -49 100 -51q26 -1 64 19q6 3 15 12.5t17.5 14t18.5 2.5 q6 -3 6 -8.5t-5 -13.5t-11 -14.5t-12 -12.5q-9 -9 -17 -15q-51 -29 -108 -15.5t-92 50.5q-44 48 -58.5 140t15.5 163q23 51 71 87q68 54 149 49q47 -4 104 -37q60 -33 82 -55q46 -43 76 -127z" />
<glyph unicode="&#xe52;" horiz-adv-x="812" d="M648 657q-27 18 -62 17t-59 -22q-9 -9 -18.5 -27t-10.5 -30t4 -45.5t6 -49.5q0 -2 2 -19t1.5 -23.5t-1.5 -18t-7 -16.5t-15 -4q-7 1 -11.5 7t-6.5 16.5t-2.5 19.5t-0.5 21v15q-6 72 -14 93q-13 36 -40 59.5t-65 13.5q-31 -9 -50.5 -42.5t-23.5 -73.5q0 -5 2.5 -57 t-3.5 -53q-9 -13 -18 -10q-18 7 -20 48q-12 138 51 196q31 31 73 36q39 5 69.5 -13.5t46.5 -49.5q16 25 18 27q13 15 38 29t48 16q31 3 62.5 -6.5t45.5 -29.5q12 -19 19 -60q12 -81 12 -232q0 -105 -14 -205q-6 -57 -12 -73q-30 -90 -101 -104q-11 -3 -34.5 -5t-32.5 -4 q-75 -13 -205 -5q-93 5 -132 34q-75 54 -78 172q-1 51 0.5 180.5t-0.5 186.5q-7 236 -101 320q-21 15 -31 22q-2 1 -7.5 4t-6.5 4.5t-3 4t-2 6.5v7t5 7t15 3q25 -1 55.5 -28.5t51.5 -55.5q70 -95 62 -351q-1 -32 1 -90t2 -87q-1 -130 6 -171q13 -70 58 -101q15 -11 42 -17 t45.5 -7.5t60.5 -3.5q116 -5 179 7q6 1 21.5 4t23 4.5t18 5.5t16.5 9q5 5 9.5 10t8.5 12t6.5 12.5t5 15t4 15t3.5 17t3 16.5t2.5 18.5t2.5 18.5q4 29 5.5 62t1.5 56.5t-0.5 63.5t-0.5 61q0 146 -23 217z" />
<glyph unicode="&#xe53;" horiz-adv-x="729" d="M612 4q-9 -1 -14.5 1.5t-6.5 8.5t-1 11.5t1.5 14.5t1.5 13q1 16 -1.5 51t-2.5 52q0 14 1.5 45t2.5 48v251q0 133 -62 163q-46 22 -85 -9t-58 -77q5 -15 12 -91q5 -23 1.5 -47.5t-23.5 -29.5q-5 1 -8.5 4t-5 5t-3 7.5t-1.5 7t-0.5 9t-0.5 8.5q-7 119 -28 164 q-17 36 -61.5 47.5t-79.5 -17.5q-33 -30 -41 -122q-1 -6 -9 -196q-1 -18 -4.5 -90t-2.5 -106q6 -82 49 -96q13 -5 38.5 0.5t39.5 9.5t22 -5q5 -24 -16 -35t-52 -12q-28 0 -55 10.5t-39 26.5q-26 32 -28 139q0 37 7 182q8 160 9 172q4 63 28.5 111t67.5 65q48 17 99.5 -2.5 t67.5 -61.5q2 2 15 16t17 17.5t17 14.5t21 15.5t21 9.5t26 6q69 8 126 -70q10 -20 14.5 -46t5.5 -45t1 -55.5t1 -54.5q4 -85 -5 -284q-1 -14 1 -41.5t2 -39.5q0 -4 0.5 -17t0 -20t-2 -16.5t-6.5 -14t-14 -5.5z" />
<glyph unicode="&#xe54;" horiz-adv-x="682" d="M492 132q-5 25 -7 125q-5 24 -0.5 59.5t27.5 25.5q5 -2 8 -5.5t4 -9.5t1 -10.5t-0.5 -13t-0.5 -13.5q6 -124 11 -170q5 -52 24 -73q1 -1 5.5 -4t8 -6.5t3.5 -7.5q1 -8 -6 -16.5t-11 -9.5q-14 -4 -31 12.5t-24 33.5q-3 7 -5.5 20t-3.5 18q-6 -4 -43.5 -28.5t-59.5 -36.5 t-59.5 -23t-69.5 -8q-96 9 -146 84q-13 26 -20.5 57t-10.5 80t-4 71.5t-0.5 90.5t0.5 78q0 58 23 101q13 25 39.5 53t51.5 42q55 32 117 36q37 3 90.5 -1t82.5 -5t76 9q90 27 141 97q23 30 33 31q9 1 18 -3.5t11 -8.5t-0.5 -11t-6 -11.5t-8 -10.5t-5.5 -7q-18 -24 -48 -49.5 t-56 -38.5q-75 -36 -151 -37q-25 -1 -86 4t-95 2q-42 -2 -93 -29q-36 -19 -65 -60.5t-34 -88.5q-2 -12 3 -78v-79q0 -42 14 -131q9 -62 21 -81q36 -59 116 -68q17 -3 38 1q49 10 116 52q9 6 29 23.5t38 26.5z" />
<glyph unicode="&#xe55;" horiz-adv-x="731" d="M779 782q2 -4 -0.5 -11t-6.5 -11.5t-8.5 -10.5t-5.5 -7q-17 -24 -47 -49t-56 -39q-71 -35 -151 -38q-31 0 -97 6h-12q-42 4 -72 1q-44 -3 -93 -29q-36 -19 -65 -61t-35 -89q-1 -9 4 -77v-79q0 -32 13 -131q11 -64 21 -81q38 -60 117 -69q19 -2 38 2q51 11 115 52 q11 6 30.5 23.5t36.5 26.5q-5 26 -7 125q0 3 -0.5 21t0 27t2.5 21.5t9 16t17 -0.5q8 -4 10.5 -10t2 -22t-0.5 -20q3 -83 10 -170q5 -54 24 -73q17 -13 18 -19q1 -8 -7 -16.5t-11 -8.5q-13 -4 -30.5 12.5t-24.5 33.5q-3 7 -4.5 19.5t-3.5 18.5q-6 -4 -43.5 -28.5t-59.5 -36.5 t-59.5 -23.5t-70.5 -8.5q-95 10 -146 85q-13 26 -20.5 58t-10.5 78.5t-3.5 72.5t0 88.5t0.5 78.5q0 58 22 102q13 25 39.5 53t51.5 42q54 30 117 36h3q-10 10 -15 22q-15 47 11 86.5t70 44.5q58 6 95 -26q25 -23 30.5 -62.5t-18.5 -70.5q43 0 74 9q89 27 141 96q21 29 33 32 q8 1 17.5 -3.5t11.5 -8.5zM449 666q21 16 27 26.5t2 31.5q-3 13 -16 29t-26 21q-41 16 -70 -11.5t-16 -67.5q9 -24 40 -31q4 0 12.5 -1t15 -1.5t11.5 -0.5q9 1 20 5z" />
<glyph unicode="&#xe56;" horiz-adv-x="681" d="M162 609q101 32 169 28q48 -3 132 -40q68 -27 102 -68q46 -57 46 -217q0 -19 -2 -57q0 -72 -6 -96q-10 -35 -40 -74.5t-60 -63.5q-59 -47 -140 -48q-81 -2 -150 38t-87 107q-10 38 -4 137q7 80 25 110q12 25 17 30q1 1 4 5.5t5 5.5t6 3.5t9 1.5t12 -4q8 -5 6.5 -13.5 t-5 -13.5t-11 -13.5t-9.5 -13.5q-14 -26 -19 -105q-7 -101 17 -148q25 -48 104.5 -75t145.5 -2q41 16 79 55.5t50 78.5q5 15 7 38q8 67 0 161.5t-33 139.5q-15 26 -52 49.5t-77 36.5q-82 27 -162 10q-17 -3 -47 -15.5t-44 -16.5q-16 3 -26 24q-4 17 -13 43.5t-16.5 48 t-14.5 46t-7.5 36t5.5 18.5q9 4 15 5t11.5 -4.5t9 -11.5t7 -16t6 -18t5.5 -18.5t6 -16.5q18 -46 24 -87z" />
<glyph unicode="&#xe57;" horiz-adv-x="920" d="M894 823q0 -12 -11.5 -30t-12.5 -20q-26 -61 -34.5 -149t-8.5 -213.5t-4 -179.5q-2 -43 -26 -119q-17 -56 -53 -91q-76 -76 -151 -39q-7 14 -7 70q-1 35 -1.5 111.5t-0.5 114.5q0 23 2 69.5t2.5 75t-4.5 63.5t-17 58q-16 32 -38 43q-19 9 -47.5 6.5t-48.5 -14.5 q-18 -13 -33 -42q-18 -36 -21 -51q-4 -25 5 -79t6 -80q-2 -7 -9.5 -11.5t-14.5 -1.5q-9 4 -14 12.5t-6 15.5t-1.5 21t-1.5 19q-1 12 -2.5 37.5t-3 41t-5 38.5t-9.5 37t-15.5 28.5t-24 22.5t-33.5 10q-61 8 -110 -54q-23 -73 -17 -274v-34.5v-44.5v-42q0 -93 17 -116 q5 -7 26 -15t33 -8t32.5 7t29.5 5q14 -12 6 -23q-7 -7 -15 -11q-32 -22 -79.5 -13.5t-66.5 33.5q-20 25 -24 102q-2 6 -2 109.5v120.5q-1 72 2 114t19.5 88.5t49.5 69.5t78.5 26.5t84.5 -18t50 -61.5q16 37 59 59t91 17.5t75 -38.5q22 -27 31 -60q5 -17 7 -37.5t2 -53.5v-37 q1 -65 -0.5 -203.5t-1.5 -192.5q42 -2 74 22t47 61q2 4 3.5 13.5t2.5 14.5q23 62 23 141q0 20 3 72.5t2 82.5q0 4 3 146q4 90 18 146q24 99 50 117q10 8 22 6.5t19 -11.5z" />
<glyph unicode="&#xe58;" horiz-adv-x="693" d="M719 783q-6 -45 -56 -90q-6 -5 -21 -16t-22 -17q-5 -4 -14 -11t-16 -12t-13 -8q-65 -19 -133 -11.5t-155.5 7.5t-133.5 -25q-27 -16 -36 -31q-7 -13 -15 -38q-14 -35 -14 -41v-124q0 -81 3 -156q6 -108 21 -146q15 -35 29 -43q29 -16 71 -9q61 11 70 107q1 6 1.5 17 t0.5 18t2 16.5t5.5 12.5t10.5 6t18 -3q8 -9 9 -21t-1.5 -28t-2.5 -25q1 -18 11.5 -41t21.5 -35q29 -29 88 -22q72 7 75 91q2 33 -3 134q0 3 -2 19t-1.5 24.5t5.5 13.5t15.5 5.5t15.5 -2.5q12 -6 12 -77q0 -15 0.5 -54t0 -61.5t-8 -50.5t-23.5 -44q-33 -35 -91 -40 q-57 -2 -76 6q-36 14 -59 63q-21 -23 -31.5 -33t-32.5 -22.5t-46 -13.5q-61 -2 -89 21q-16 12 -35 53q-21 54 -24 217v179q0 93 23 132q55 95 258 93q28 0 78 -5.5t87 -5t67 12.5q11 5 47 34q41 36 43 38q4 5 10 15.5t11 17.5t11.5 13t15 5t18.5 -9z" />
<glyph unicode="&#xe59;" horiz-adv-x="661" d="M328 613q46 65 125 76q14 2 66.5 -2t68.5 5q13 4 55 36q8 7 15.5 12.5t18 11.5t16.5 3t6 -15q0 -14 -6 -22.5t-21 -19.5t-17 -13q-35 -28 -62 -36q-27 -7 -97 -3t-91 -12q-47 -27 -46 -55q0 -7 4 -15t11 -17.5t9 -14.5q12 -25 30 -74t22 -60q14 -35 59 -171t76 -202l3 -6 q6 -12 8.5 -18t5 -15t-2 -14t-14.5 -6q-5 0 -9 1.5t-6.5 3t-5.5 6l-4 6t-3.5 7.5t-3.5 7q-3 7 -11.5 20t-11.5 20q-3 6 -6.5 19t-5.5 19q-35 95 -39 108q-7 20 -24 68t-26 73q-4 12 -24.5 68t-29.5 77.5t-29.5 59t-43.5 62.5q-21 19 -53 30t-65.5 6.5t-48.5 -28.5 q-21 -32 -26 -99q-4 -53 20 -169q35 -149 87 -250l9 -18t10.5 -20t10 -15.5t13 -16t14 -9t18.5 -5.5q7 -1 26 3.5t32.5 4t15.5 -10.5q4 -19 -25.5 -28t-56.5 -7q-32 3 -57 30q-15 15 -27.5 32.5t-24 43t-17 40.5t-18 51.5t-16.5 48.5q-21 59 -35 126q-21 94 -22 137t12.5 94 t30.5 68q45 44 119 37t115 -54z" />
<glyph unicode="&#xe5a;" horiz-adv-x="799" d="M668 -20q-9 8 -13 19.5t-3.5 23.5t0.5 28q2 68 2 206.5t1 207.5q1 30 -3 102t-4 103q0 90 -1 103q-4 19 -2.5 55t16.5 38q6 1 10.5 0t7 -4.5t4.5 -7t3 -10t1 -11t0.5 -13.5t0.5 -14q1 -8 3 -22.5t2 -18.5q2 -32 2 -91t2 -88v-174q0 -263 -4 -349q0 -8 1.5 -26t1.5 -30.5 t-5 -17.5q-11 -14 -23 -9zM524 -6q-7 -7 -19 -7q-9 4 -13 14.5t-4.5 19t0.5 26.5t1 24q0 17 -3 470q-29 -8 -70.5 -32t-82 -39t-88.5 -10q-92 9 -155 120q-29 54 -37.5 127t13.5 145q18 8 35 -14q-21 -118 8 -197q28 -77 76 -114q35 -26 67 -29q22 -2 45 3.5t37 12 t38.5 20.5t34.5 19q8 4 37.5 15.5t43.5 22.5q-1 24 -4 179q0 4 -1.5 27t0 37.5t6.5 23.5q30 15 36 -36q2 -16 2 -63q0 -23 2 -55t2 -38q3 -53 0.5 -306.5t-2.5 -305.5q0 -6 0.5 -16.5t1 -16t-1 -13.5t-5.5 -14z" />
<glyph unicode="&#xe5b;" horiz-adv-x="1352" d="M424 393q-34 -43 -80 -43q-40 0 -67 34t-27 81q0 46 26.5 79.5t67.5 33.5q32 0 53 -21q0 62 -28 97.5t-72 35.5q-61 0 -100.5 -64.5t-39.5 -168.5q0 -130 50.5 -208.5t130.5 -78.5q93 0 155 108t62 276v24l-2 36l31 39l102 -227l72 215l71 -190l64 155l72 -153l63 116 l64 -98l20 41h234l-50 -61h-145l-61 -80l-58 78l-71 -130l-64 134l-76 -170l-59 172l-66 -197l-88 191q-20 -157 -95 -250t-175 -93q-101 0 -169.5 91t-74.5 235q0 144 55 231t148 87q77 0 122 -59t45 -155q0 -90 -40 -143zM301 465q0 -25 12 -41t29 -16q20 0 31.5 16 t11.5 41t-11.5 41t-31.5 16q-17 0 -29 -16t-12 -41z" />
<glyph unicode="&#x200b;" />
<glyph unicode="&#x2013;" horiz-adv-x="621" d="M542 518q12 0 14.5 -16t-10.5 -20q-24 -5 -50 -7.5t-58.5 -3.5t-53 -1.5t-62 0t-55.5 0.5q-147 -4 -171 0q-24 3 -31 22q0 11 10 14q12 4 42.5 5t70 -0.5t43.5 -1.5q17 0 311 9z" />
<glyph unicode="&#x2014;" horiz-adv-x="885" d="M822 518q12 0 14.5 -16t-10.5 -20q-24 -5 -62 -7.5t-90 -3.5t-87 -1.5t-93 0t-67 0.5q-285 -8 -331 0q-24 3 -31 22q0 11 10 14q9 3 57.5 4.5t98.5 1t103 -1.5t57 -1q137 0 431 9z" />
<glyph unicode="&#x2018;" horiz-adv-x="272" d="M166 1045q0 -76 -2 -115q-3 -78 -10 -94q-8 -20 -27 -9q-9 22 -4 107q1 22 0 43.5t2 44t12 32.5q9 5 18 2t11 -11z" />
<glyph unicode="&#x2019;" horiz-adv-x="234" d="M123 1045q0 -76 -2 -115q-3 -78 -10 -94q-10 -18 -27 -9q-9 22 -4 107q1 22 0 43.5t2 44t12 32.5q9 5 18 2t11 -11z" />
<glyph unicode="&#x201a;" d="M-659 976q-8 -1 -13 6t-2 16q3 11 31 29t44 23q72 18 155 8.5t136 -34.5q0 10 -2.5 33.5t-2 38t8.5 18.5q6 2 10 2.5t7.5 -1t6 -3.5t4 -7t2.5 -9t2 -11t1.5 -11.5t0.5 -13.5q0 -6 2 -21.5t2 -24t-1 -20t-6 -17.5t-14 -8q-5 -1 -14 2t-22 8t-18 7q-92 36 -180 31 q-50 -2 -74 -10q-10 -4 -29 -16.5t-35 -14.5z" />
<glyph unicode="&#xf702;" d="M-659 976q-8 -1 -13 6t-2 16q3 11 31 29t44 23q72 18 155 8.5t136 -34.5q0 10 -2.5 33.5t-2 38t8.5 18.5q6 2 10 2.5t7.5 -1t6 -3.5t4 -7t2.5 -9t2 -11t1.5 -11.5t0.5 -13.5q0 -6 2 -21.5t2 -24t-1 -20t-6 -17.5t-14 -8q-5 -1 -14 2t-22 8t-18 7q-92 36 -180 31 q-50 -2 -74 -10q-10 -4 -29 -16.5t-35 -14.5z" />
<glyph unicode="&#x201e;" d="M-379 1039q14 -5 43.5 -9.5t38.5 -6.5v47v7.5v10v11t1 11.5t2 10.5t3.5 8.5t5.5 5t8 1.5t11 -3.5q11 -6 12.5 -30t-0.5 -52t2 -56q0 -1 -4 -7q-7 -7 -17.5 -8.5t-19 0t-25 5t-27.5 5.5q-116 18 -193 17q-23 0 -66 -6.5t-65 -5.5q-4 2 -6.5 11t1.5 18q108 35 250 21 q2 11 1.5 30.5t-1 30.5t2.5 18q33 34 39 -34q1 -10 2 -30q1 -15 1 -20z" />
<glyph unicode="&#xf704;" d="M-379 1039q14 -5 43.5 -9.5t38.5 -6.5v47v7.5v10v11t1 11.5t2 10.5t3.5 8.5t5.5 5t8 1.5t11 -3.5q11 -6 12.5 -30t-0.5 -52t2 -56q0 -1 -4 -7q-7 -7 -17.5 -8.5t-19 0t-25 5t-27.5 5.5q-116 18 -193 17q-23 0 -66 -6.5t-65 -5.5q-4 2 -6.5 11t1.5 18q108 35 250 21 q2 11 1.5 30.5t-1 30.5t2.5 18q33 34 39 -34q1 -10 2 -30q1 -15 1 -20z" />
<glyph unicode="&#x2020;" d="M-314 1208q7 -4 8 -38t-1.5 -87t-2.5 -72q1 -7 -7.5 -10.5t-21.5 -3.5q-10 0 -12 11q-5 35 4 156q2 41 8 47q9 6 25 -3z" />
<glyph unicode="&#xf705;" d="M-314 1208q7 -4 8 -38t-1.5 -87t-2.5 -72q1 -7 -7.5 -10.5t-21.5 -3.5q-10 0 -12 11q-5 35 4 156q2 41 8 47q9 6 25 -3z" />
<glyph unicode="&#x2021;" d="M-403 1055q134 11 198 93q9 10 24.5 6.5t15.5 -16.5q-1 -4 -2.5 -8.5t-3 -7.5t-5 -7.5t-5.5 -6.5l-6.5 -6.5t-6.5 -6t-7.5 -6t-6.5 -5.5q-30 -23 -61 -36q-119 -52 -189 -27q-4 2 -5 5.5t1.5 8t5.5 9t6.5 10t5.5 8.5q7 13 11.5 26t6.5 28t-6 23t-26 7q-9 -1 -21 -10.5 t-25 -10.5q-14 0 -14 13q-1 25 26 40.5t57 10.5q24 -3 42 -26.5t13 -54.5q-2 -9 -11.5 -25t-11.5 -28z" />
<glyph unicode="&#xf706;" d="M-403 1055q134 11 198 93q9 10 24.5 6.5t15.5 -16.5q-1 -4 -2.5 -8.5t-3 -7.5t-5 -7.5t-5.5 -6.5l-6.5 -6.5t-6.5 -6t-7.5 -6t-6.5 -5.5q-30 -23 -61 -36q-119 -52 -189 -27q-4 2 -5 5.5t1.5 8t5.5 9t6.5 10t5.5 8.5q7 13 11.5 26t6.5 28t-6 23t-26 7q-9 -1 -21 -10.5 t-25 -10.5q-14 0 -14 13q-1 25 26 40.5t57 10.5q24 -3 42 -26.5t13 -54.5q-2 -9 -11.5 -25t-11.5 -28z" />
<glyph unicode="&#x2022;" horiz-adv-x="702" d="M331 692q55 10 94.5 -7.5t57.5 -52.5t21.5 -79.5t-8 -87.5t-36 -78t-57.5 -50q-54 -23 -123.5 6.5t-89.5 74.5q-24 61 -4.5 135.5t60.5 104.5q36 25 85 34z" />
<glyph unicode="&#x2026;" horiz-adv-x="978" d="M241 121q18 -45 -22 -80.5t-83 -15.5q-18 8 -27.5 29t-5.5 41q7 32 37 52.5t61 6.5q12 -4 19 -11q17 -15 21 -22zM167 59q19 -1 28.5 19t-2.5 38q-32 10 -44 -18q-10 -23 5 -35q6 -4 13 -4zM551 121q18 -45 -22 -80.5t-83 -15.5q-18 8 -27.5 29t-5.5 41q7 32 37 52.5 t61 6.5q12 -4 19 -11q17 -15 21 -22zM477 59q19 -1 28.5 19t-2.5 38q-32 10 -44 -18q-10 -23 5 -35q6 -4 13 -4zM871 121q18 -45 -22 -80.5t-83 -15.5q-18 8 -27.5 29t-5.5 41q7 32 37 52.5t61 6.5q12 -4 19 -11q17 -15 21 -22zM797 59q19 -1 28.5 19t-2.5 38 q-32 10 -44 -18q-10 -23 5 -35q6 -4 13 -4z" />
<glyph unicode="&#x2030;" d="M-337 1117q1 -6 54.5 -2t52.5 -15q-1 -12 -8.5 -19.5t-20.5 -9.5t-24.5 -2.5t-28 0.5t-23.5 1q0 -15 -1.5 -28t-5 -26.5t-11 -19.5t-18.5 -1q-10 4 -11 16t1.5 31t0.5 28q-15 -2 -45 -2h-37q-17 3 -17 20q2 17 20 21.5t38.5 1.5t40.5 2q-4 27 3.5 58.5t31.5 10.5 q6 -5 7.5 -16.5t0.5 -23.5t0 -25z" />
<glyph unicode="&#xf708;" d="M-337 1117q1 -6 54.5 -2t52.5 -15q-1 -12 -8.5 -19.5t-20.5 -9.5t-24.5 -2.5t-28 0.5t-23.5 1q0 -15 -1.5 -28t-5 -26.5t-11 -19.5t-18.5 -1q-10 4 -11 16t1.5 31t0.5 28q-15 -2 -45 -2h-37q-17 3 -17 20q2 17 20 21.5t38.5 1.5t40.5 2q-4 27 3.5 58.5t31.5 10.5 q6 -5 7.5 -16.5t0.5 -23.5t0 -25z" />
<glyph unicode="&#x2039;" d="M-94 1208q7 -4 8 -38t-1.5 -87t-2.5 -72q1 -7 -7.5 -10.5t-21.5 -3.5q-10 0 -12 11q-5 35 4 156q2 41 8 47q7 7 25 -3z" />
<glyph unicode="&#xf70a;" d="M-94 1208q7 -4 8 -38t-1.5 -87t-2.5 -72q1 -7 -7.5 -10.5t-21.5 -3.5q-10 0 -12 11q-5 35 4 156q2 41 8 47q7 7 25 -3z" />
<glyph unicode="&#x203a;" d="M-314 1408q7 -4 8 -38t-1.5 -87t-2.5 -72q1 -7 -7.5 -10.5t-21.5 -3.5q-10 0 -12 11q-5 35 4 156q2 41 8 47q9 6 25 -3z" />
<glyph unicode="&#xf713;" d="M-314 1408q7 -4 8 -38t-1.5 -87t-2.5 -72q1 -7 -7.5 -10.5t-21.5 -3.5q-10 0 -12 11q-5 35 4 156q2 41 8 47q9 6 25 -3z" />
<glyph unicode="&#x20ac;" horiz-adv-x="613" d="M559 890q1 -2 1 -6q0 -6 -6 -13.5t-12 -12t-16.5 -11.5t-12.5 -9q-7 -6 -20 -15.5t-21.5 -16.5t-15.5 -16q68 -72 68 -192q0 -97 -34 -224l-14 -59q-19 -121 -51 -192q-1 -2 -6 -13.5t-7.5 -16.5l-8 -16t-9.5 -16.5t-10 -14.5t-12 -13.5t-13 -10t-15 -7.5t-17 -2 q-35 0 -58 36.5t-28 66.5q-14 48 -23 114.5t-13 86.5q-22 99 -92 172q-12 12 -12 19q0 13 19 13q12 0 26 -9q52 -41 75 -107.5t39 -175.5q5 -48 25 -111.5t47 -63.5q11 0 22.5 13t22 39.5t19 51.5t18 65.5t15 63t13.5 61.5q34 157 34 265q0 94 -48 151.5t-132 57.5 q-55 0 -114.5 -36t-88.5 -89q0 -1 -3 -6t-6 -9t-7.5 -8t-9.5 -4q-16 0 -16 18q0 17 16.5 43.5t28.5 38.5q36 38 91.5 64.5t118.5 26.5q64 0 121 -40q10 5 50.5 41.5t62.5 36.5q15 0 19 -9z" />
<glyph unicode="&#xf700;" horiz-adv-x="613" d="M559 890q1 -2 1 -6q0 -6 -6 -13.5t-12 -12t-16.5 -11.5t-12.5 -9q-7 -6 -20 -15.5t-21.5 -16.5t-15.5 -16q68 -72 68 -192q0 -97 -34 -224l-14 -59q-19 -121 -51 -192q-1 -2 -6 -13.5t-7.5 -16.5l-8 -16t-9.5 -16.5t-10 -14.5t-12 -13.5t-13 -10t-15 -7.5t-17 -2 q-35 0 -58 36.5t-28 66.5q-14 48 -23 114.5t-13 86.5q-22 99 -92 172q-12 12 -12 19q0 13 19 13q12 0 26 -9q52 -41 75 -107.5t39 -175.5q5 -48 25 -111.5t47 -63.5q11 0 22.5 13t22 39.5t19 51.5t18 65.5t15 63t13.5 61.5q34 157 34 265q0 94 -48 151.5t-132 57.5 q-55 0 -114.5 -36t-88.5 -89q0 -1 -3 -6t-6 -9t-7.5 -8t-9.5 -4q-16 0 -16 18q0 17 16.5 43.5t28.5 38.5q36 38 91.5 64.5t118.5 26.5q64 0 121 -40q10 5 50.5 41.5t62.5 36.5q15 0 19 -9z" />
<glyph unicode="&#x2122;" d="M-405 1174q34 1 64 -20t43 -51q12 -27 7 -63q-7 -51 -52.5 -77.5t-105.5 -12.5q-29 7 -54.5 31t-28.5 55t17.5 65t44.5 49q1 1 10.5 6t15.5 8q19 9 39 10zM-451 1120q-15 -10 -28.5 -31.5t-12.5 -38.5q0 -20 18.5 -40.5t37.5 -25.5q36 -7 63.5 6t34.5 38q12 40 -13 77.5 t-64 30.5q-21 -4 -36 -16z" />
<glyph unicode="&#xf711;" d="M-405 1174q34 1 64 -20t43 -51q12 -27 7 -63q-7 -51 -52.5 -77.5t-105.5 -12.5q-29 7 -54.5 31t-28.5 55t17.5 65t44.5 49q1 1 10.5 6t15.5 8q19 9 39 10zM-451 1120q-15 -10 -28.5 -31.5t-12.5 -38.5q0 -20 18.5 -40.5t37.5 -25.5q36 -7 63.5 6t34.5 38q12 40 -13 77.5 t-64 30.5q-21 -4 -36 -16z" />
<glyph unicode="&#x25cc;" horiz-adv-x="641" d="M330 147q12 0 21 -8.5t9 -20.5q0 -11 -9.5 -19.5t-20.5 -8.5q-12 0 -20 8.5t-8 19.5q0 12 8 20.5t20 8.5zM558 377q12 0 20.5 -8.5t8.5 -19.5q0 -30 -29 -30q-12 0 -20 8.5t-8 21.5q0 11 8 19.5t20 8.5zM101 377q10 0 19 -8.5t9 -19.5q0 -13 -8.5 -21.5t-19.5 -8.5 q-13 0 -21.5 8.5t-8.5 21.5q0 11 8.5 19.5t21.5 8.5zM330 606q12 0 21 -8t9 -20t-9 -20t-21 -8t-20 8t-8 20t8 20t20 8zM169 538q12 0 20.5 -8t8.5 -21q0 -12 -8.5 -20.5t-20.5 -8.5t-20.5 8.5t-8.5 20.5q0 13 8.5 21t20.5 8zM491 538q11 0 19.5 -8t8.5 -21q0 -12 -8 -20.5 t-20 -8.5t-21 8.5t-9 20.5t9 20.5t21 8.5zM491 216q11 0 19.5 -8t8.5 -20t-8 -20.5t-20 -8.5t-21 8.5t-9 20.5t9 20t21 8zM169 216q12 0 20.5 -8t8.5 -20t-8.5 -20.5t-20.5 -8.5t-20.5 8.5t-8.5 20.5t8.5 20t20.5 8z" />
<glyph unicode="&#x25fc;" horiz-adv-x="800" d="M0 800h800v-800h-800v800z" />
<glyph unicode="&#xf701;" d="M-683 973q-11 -1 -15 6.5t0 15.5q11 19 60 38q55 21 128.5 26t143.5 -12q95 -26 98 -47q1 -8 -6 -16t-15 -10q-6 -1 -12.5 1.5t-15 7t-12.5 5.5q-111 45 -234 24q-26 -4 -64.5 -19t-55.5 -20z" />
<glyph unicode="&#xf70c;" d="M-113 1055q37 2 69 28q43 35 50 2q3 -16 -25 -37t-49 -27q-19 -6 -48.5 -4.5t-35.5 15.5q-5 11 -4.5 30.5t-1.5 32.5q-6 24 -24.5 41.5t-43.5 15.5q-23 -2 -35 -19q-5 -7 -7.5 -21t-7 -22.5t-16.5 -8.5q-11 0 -28 24.5t-29 27.5q-39 12 -65.5 -12.5t-21.5 -63.5 q1 -5 4.5 -15t6 -17.5t1.5 -15.5t-9 -12q-19 -6 -33 22.5t-13 56.5q1 53 51 85.5t105 9.5q3 -1 8 -5.5t9 -7.5l5 -4q3 0 16 14t16 15q58 36 112 -10t44 -118z" />
<glyph unicode="&#xf70e;" d="M-17 1256q52 -17 -16 -57q-6 -4 -18 -10q-14 -8 -19 -11q-87 -54 -117 -81q-10 -7 -25 -21.5t-16 -23.5t4 -18t11 -12q13 -6 31.5 -3t36.5 0.5t20 -15.5q3 -23 -41.5 -25t-63.5 10q-19 10 -31.5 30.5t-6.5 46.5q1 6 6.5 13.5t10 11.5t13 12t11.5 10q3 3 21.5 20.5 t28.5 24.5q11 7 37 22t39 24q8 6 19.5 15.5t21.5 16.5t23 12q19 8 20 8z" />
<glyph unicode="&#xf70f;" horiz-adv-x="905" d="M826 147q-1 -15 -12.5 -41t-22.5 -39q-11 -14 -29.5 -29t-58 -31.5t-82.5 -16.5q-48 0 -80.5 20.5t-48 59t-21 79t-5.5 95.5q0 28 0.5 159.5t0.5 158.5q0 57 -4 95.5t-16 75t-36.5 59t-62.5 34.5q-32 12 -81 12q-58 0 -110 -31t-52 -75q0 -20 12.5 -56t13.5 -41 q15 -61 15 -141q0 -53 -10 -165q-3 -28 -5.5 -124.5t-10.5 -146t-27 -49.5q-21 0 -21 42q0 12 2 30q27 270 27 399q0 81 -15 145q-2 8 -14.5 40.5t-12.5 54.5q0 62 34 94q24 24 79.5 46t103.5 22q42 0 100 -18q77 -24 107 -90.5t30 -170.5q0 -19 -1 -88t-1 -89v-70 q-1 -50 -0.5 -93t3 -78.5t10 -63.5t20 -47t33.5 -29t50 -10q58 0 100.5 28.5t52.5 89.5q5 30 5.5 85t-1.5 127.5t-2 93.5q0 46 -1.5 179t-1.5 195q0 40 19 40q8 0 13.5 -9t9 -27.5t5 -38t2 -49t0.5 -51t-0.5 -52.5t-0.5 -47q0 -32 1 -138t0.5 -187t-2.5 -127z" />
<glyph unicode="&#xf715;" d="M-293 1235q37 2 69 28q43 35 50 2q3 -16 -25 -37t-49 -27q-19 -6 -48.5 -4.5t-35.5 15.5q-5 11 -4.5 30.5t-1.5 32.5q-6 24 -24.5 41.5t-43.5 15.5q-23 -2 -35 -19q-5 -7 -7.5 -21t-7 -22.5t-16.5 -8.5q-11 0 -28 24.5t-29 27.5q-39 12 -65.5 -12.5t-21.5 -63.5 q1 -5 4.5 -15t6 -17.5t1.5 -15.5t-9 -12q-19 -6 -33 22.5t-13 56.5q1 53 51 85.5t105 9.5q3 -1 8 -5.5t9 -7.5l5 -4q3 0 16 14t16 15q58 36 112 -10t44 -118z" />
<glyph unicode="&#xf718;" d="M-247 -368q0 22 27.5 44.5t58.5 24.5q17 1 30 -2.5t22 -13t15 -19.5t9.5 -28t5.5 -31t2 -35.5t-0.5 -35.5t-1.5 -37t-1 -34q-5 -15 -17 -17.5t-19 7.5q-3 5 -5 18t-2 25t0.5 29t0.5 18q0 4 0.5 15.5t0.5 16.5v15.5t-1 16t-2.5 13.5t-4 13t-6 10t-8.5 7.5t-11 3.5 q-19 4 -38 -10q-4 -3 -11 -12.5t-13.5 -15.5t-13.5 -5q-15 3 -17 19z" />
<glyph unicode="&#xf719;" d="M-273 -526q-12 26 -14 98q0 7 1 19.5t1 21t-0.5 17.5t-3.5 14t-9 5q-15 1 -25.5 -10t-18.5 -21.5t-17 -9.5q-18 4 -19 23.5t12 33.5q22 26 79 26q17 0 30 -14t13 -39q0 -10 -2 -39.5t-2 -47.5t6 -38.5t19 -29.5q23 -11 40 -8.5t27 10.5q25 16 28 67q1 18 -2.5 73t2.5 56 q3 9 15 13t21 -3q7 -6 10 -33q6 -51 -2 -111q-4 -40 -29 -73.5t-62 -38.5q-31 -5 -60 9.5t-38 29.5z" />
<glyph unicode="&#xf71a;" d="M-89 -329q18 -45 -22 -80.5t-83 -15.5q-18 8 -27.5 29t-5.5 41q7 32 37 52.5t61 6.5q12 -4 19 -11q17 -15 21 -22zM-163 -391q19 -1 28.5 19t-2.5 38q-32 10 -44 -18q-10 -23 5 -35q6 -4 13 -4z" />
<glyph horiz-adv-x="780" d="M680 362q0 -27 1 -35.5t1 -40.5q0 -61 -5 -105t-19 -84.5t-42.5 -61.5t-71.5 -21q-29 0 -50 15.5t-43 48t-29 40.5q-1 -1 -8.5 -14.5t-9 -15.5t-8.5 -13.5t-9.5 -14t-10 -11.5t-12.5 -11.5t-13 -8t-15.5 -7t-17 -3.5t-19.5 -2q-35 0 -57 15q-47 31 -61 67t-14 96v47 q0 20 -0.5 57t-0.5 55v118q0 13 -0.5 38.5t-0.5 39.5t0.5 43t0.5 44q0 40 -2 68t-7.5 60.5t-19.5 50t-36 17.5q-18 0 -31 -38.5t-28 -38.5q-18 0 -20 21q4 94 80 94q29 0 54 -19t36 -45q3 -8 6 -16.5t4.5 -19.5t3 -19t2.5 -22l1.5 -21t0.5 -24v-22.5v-24.5v-23 q0 -36 -1 -113.5t-1 -117.5q0 -21 1 -60.5t1 -58.5q0 -30 0.5 -46.5t3 -45.5t8.5 -46t16 -35.5t27 -27t40 -8.5q32 0 56.5 35t36 78t15.5 88v14t1 19.5t8.5 13.5t20.5 7q10 0 13 -5.5t3 -22.5q0 -20 -6.5 -52.5t-6.5 -47.5q0 -41 37.5 -83t72.5 -42q15 0 27 5.5t20.5 19 t14.5 25t9.5 34t5.5 35.5t3 40t1 36.5v35.5q0 47 -4 81t-4 75q0 13 0.5 35t0.5 31q0 34 -12 76t-26 59q-13 15 -45.5 23t-57.5 16t-25 24q0 8 6 11q90 34 118 54q60 43 60 115q0 7 -3 23.5t-3 26.5q0 7 19 7q32 0 32 -58q0 -131 -149 -178q72 -21 93 -54q36 -65 36 -190v-26 q0 -17 3.5 -38t3.5 -40z" />
<glyph horiz-adv-x="529" d="M372 -2q-11 -5 -17 -3q-16 6 -18 34q-1 18 -0.5 28t2.5 27t2 24q2 33 0 89.5t-2 85.5q0 16 2 45.5t2 37.5q0 14 -1 42t-1 42q0 27 2 88.5t1 92.5q0 69 -17 96q-34 54 -122 70.5t-150 -17.5q-8 -4 -18 -14.5t-18 -15.5t-15 -1q-37 31 44 71q51 25 92 26q108 3 187 -54 q5 -4 17 -14q13 -11 17 -17q22 -26 26 -111q2 -10 0.5 -89.5t-1.5 -93.5v-27.5v-33v-28.5q-1 -91 -4 -172q-1 -16 0.5 -47.5t1.5 -46.5q0 -7 -2.5 -25t-2.5 -27q0 -6 1 -16t1 -16t-2 -14.5t-7 -15.5zM-365 1174q34 1 64 -20t43 -51q12 -27 7 -63q-7 -51 -52.5 -77.5 t-105.5 -12.5q-29 7 -54.5 31t-28.5 55t17.5 65t44.5 49q2 1 11 6t15 8q19 9 39 10zM-411 1120q-15 -10 -28.5 -31.5t-12.5 -38.5q0 -20 18.5 -40.5t37.5 -25.5q36 -7 63.5 6t34.5 38q12 40 -13 77.5t-64 30.5q-21 -4 -36 -16z" />
<glyph d="M-544 1253q-31 24 -31 59q0 66 77 113t169 47q70 0 127 -20l20 -9v-65q-57 20 -84.5 26.5t-62.5 6.5q-60 0 -122.5 -31t-62.5 -68q0 -24 76 -43l25 -8v-51h-33q-1 0 -8.5 1t-11.5 1q-41 0 -82 -34t-41 -58q0 -32 28 -53t70 -21q85 0 119 61l8 17h65l-20 -45 q-51 -94 -172 -94q-71 0 -116.5 38.5t-45.5 96.5q0 81 109 133z" />
</font>
</defs>
</svg>
